<svg width="1440" height="704" viewBox="0 0 1440 704" fill="none" xmlns="http://www.w3.org/2000/svg">
<g clip-path="url(#clip0_32_376)">
<rect width="1440" height="704" fill="#F0F4F3"/>
<path d="M-51.4304 376.42C-78.6903 371.886 -131.086 413.188 -105.787 468.284C-79.3064 525.954 15.161 463.581 73.9206 429.306C78.656 446.979 63.9622 537.06 73.2272 571.638C92.0129 641.747 183.224 560.612 227.067 585.925C270.909 611.237 250.297 680.689 295.616 703.444C332.151 724.538 365.901 666.081 403.567 668.342" stroke="#FF8200" stroke-opacity="0.15" stroke-width="38.8125" stroke-linecap="round" stroke-linejoin="round"/>
<path d="M1139.97 92.0623C1117.49 108.132 1109.64 174.385 1166.49 195.455C1226 217.51 1248.69 106.607 1266 40.8218C1281.85 49.9699 1335.16 124.057 1366.16 141.956C1429.01 178.247 1436.14 56.3798 1485.04 43.2771C1533.94 30.1743 1568.47 93.8593 1616.61 77.9041C1657.36 66.9851 1639.89 1.78512 1668.12 -23.25" stroke="#FF8200" stroke-opacity="0.15" stroke-width="38.8125" stroke-linecap="round" stroke-linejoin="round"/>
</g>
<defs>
<clipPath id="clip0_32_376">
<rect width="1440" height="704" fill="white"/>
</clipPath>
</defs>
</svg>
