<svg width="106" height="107" viewBox="0 0 106 107" fill="none" xmlns="http://www.w3.org/2000/svg">
<g filter="url(#filter0_d_18_179)">
<ellipse cx="52.5714" cy="51.5" rx="28.5714" ry="28.5714" fill="url(#paint0_linear_18_179)" fill-opacity="0.15" shape-rendering="crispEdges"/>
<path d="M52.5714 82.0714C69.4556 82.0714 83.1429 68.3841 83.1429 51.5C83.1429 34.6159 69.4556 20.9286 52.5714 20.9286C35.6873 20.9286 22 34.6159 22 51.5C22 68.3841 35.6873 82.0714 52.5714 82.0714Z" stroke="#FBFBFB" stroke-width="4" shape-rendering="crispEdges"/>
</g>
<path d="M49.25 40.75C50.1771 40.75 51.0834 41.0249 51.8542 41.54C52.6251 42.0551 53.2259 42.7871 53.5807 43.6437C53.9355 44.5002 54.0283 45.4427 53.8474 46.352C53.6666 47.2613 53.2201 48.0965 52.5646 48.7521C51.909 49.4076 51.0738 49.8541 50.1645 50.0349C49.2552 50.2158 48.3127 50.123 47.4562 49.7682C46.5996 49.4134 45.8676 48.8126 45.3525 48.0417C44.8374 47.2709 44.5625 46.3646 44.5625 45.4375C44.5625 44.1943 45.0564 43.002 45.9354 42.1229C46.8145 41.2439 48.0068 40.75 49.25 40.75ZM49.25 38.875C47.9521 38.875 46.6833 39.2599 45.6041 39.981C44.5249 40.7021 43.6837 41.727 43.187 42.9261C42.6903 44.1253 42.5604 45.4448 42.8136 46.7178C43.0668 47.9908 43.6918 49.1601 44.6096 50.0779C45.5274 50.9957 46.6967 51.6207 47.9697 51.8739C49.2427 52.1271 50.5622 51.9972 51.7614 51.5005C52.9605 51.0038 53.9854 50.1626 54.7065 49.0834C55.4276 48.0042 55.8125 46.7354 55.8125 45.4375C55.8125 43.697 55.1211 42.0278 53.8904 40.7971C52.6597 39.5664 50.9905 38.875 49.25 38.875ZM58.625 65.125H56.75V60.4375C56.75 59.1943 56.2561 58.002 55.3771 57.1229C54.498 56.2439 53.3057 55.75 52.0625 55.75H46.4375C45.1943 55.75 44.002 56.2439 43.1229 57.1229C42.2439 58.002 41.75 59.1943 41.75 60.4375V65.125H39.875V60.4375C39.875 58.697 40.5664 57.0278 41.7971 55.7971C43.0278 54.5664 44.697 53.875 46.4375 53.875H52.0625C53.803 53.875 55.4722 54.5664 56.7029 55.7971C57.9336 57.0278 58.625 58.697 58.625 60.4375V65.125ZM58.625 40.75H68V42.625H58.625V40.75ZM58.625 45.4375H68V47.3125H58.625V45.4375ZM58.625 50.125H65.1875V52H58.625V50.125Z" fill="black"/>
<defs>
<filter id="filter0_d_18_179" x="0" y="0.928558" width="105.143" height="105.143" filterUnits="userSpaceOnUse" color-interpolation-filters="sRGB">
<feFlood flood-opacity="0" result="BackgroundImageFix"/>
<feColorMatrix in="SourceAlpha" type="matrix" values="0 0 0 0 0 0 0 0 0 0 0 0 0 0 0 0 0 0 127 0" result="hardAlpha"/>
<feMorphology radius="1" operator="erode" in="SourceAlpha" result="effect1_dropShadow_18_179"/>
<feOffset dy="2"/>
<feGaussianBlur stdDeviation="10.5"/>
<feComposite in2="hardAlpha" operator="out"/>
<feColorMatrix type="matrix" values="0 0 0 0 0 0 0 0 0 0 0 0 0 0 0 0 0 0 0.1 0"/>
<feBlend mode="normal" in2="BackgroundImageFix" result="effect1_dropShadow_18_179"/>
<feBlend mode="normal" in="SourceGraphic" in2="effect1_dropShadow_18_179" result="shape"/>
</filter>
<linearGradient id="paint0_linear_18_179" x1="24" y1="51.5" x2="87.4921" y2="51.5" gradientUnits="userSpaceOnUse">
<stop stop-color="#FF8200"/>
<stop offset="1" stop-color="#FF002B"/>
</linearGradient>
</defs>
</svg>
