<svg width="30" height="30" viewBox="0 0 30 30" fill="none" xmlns="http://www.w3.org/2000/svg">
<g clip-path="url(#clip0_9_3578)">
<path d="M6.42827 25.6368L6.64017 25.7957C9.41678 27.8782 12.8704 28.8499 16.3255 28.5208L16.6439 28.4905C20.3478 28.1378 23.7313 26.2401 25.9637 23.2636C27.9381 20.6312 28.8594 17.3568 28.5474 14.081L28.4885 13.463C28.1353 9.75372 26.3201 6.33756 23.4438 3.96885L23.2171 3.78213C20.2937 1.37464 16.486 0.320769 12.7408 0.882548C9.47567 1.37232 6.50747 3.05364 4.40857 5.6023L4.07725 6.00462C1.4941 9.14131 0.439768 13.2644 1.20009 17.256C1.83769 20.6035 3.70217 23.5922 6.42827 25.6368Z" stroke="black" stroke-width="1.5"/>
<path d="M14.5706 12.2964L19.8569 13.595C19.9347 13.6141 20.0169 13.6016 20.0855 13.5601C20.1541 13.5187 20.2033 13.4517 20.2225 13.3739C20.2417 13.2961 20.2292 13.2139 20.1877 13.1453C20.1462 13.0767 20.0793 13.0274 20.0014 13.0083L14.7152 11.7097C14.6374 11.691 14.5554 11.7038 14.487 11.7452C14.4186 11.7867 14.3693 11.8535 14.3498 11.931C14.3402 11.9695 14.3382 12.0095 14.3441 12.0488C14.35 12.088 14.3636 12.1257 14.3841 12.1597C14.4046 12.1936 14.4317 12.2232 14.4637 12.2467C14.4957 12.2701 14.532 12.287 14.5706 12.2964ZM20.7424 15.0587L13.1069 13.1825C13.0684 13.173 13.0284 13.1712 12.9892 13.1772C12.9499 13.1832 12.9123 13.1969 12.8784 13.2175C12.8445 13.238 12.8149 13.2651 12.7914 13.297C12.768 13.329 12.751 13.3653 12.7416 13.4038C12.7321 13.4423 12.7303 13.4824 12.7364 13.5216C12.7424 13.5608 12.756 13.5984 12.7766 13.6323C12.7972 13.6663 12.8242 13.6958 12.8562 13.7193C12.8881 13.7427 12.9244 13.7597 12.9629 13.7691L20.599 15.6454C20.6376 15.6548 20.6776 15.6565 20.7167 15.6505C20.7559 15.6444 20.7936 15.6307 20.8274 15.6101C20.8613 15.5895 20.8909 15.5625 20.9143 15.5305C20.9377 15.4985 20.9546 15.4622 20.9641 15.4237C20.9735 15.3852 20.9752 15.3452 20.9691 15.306C20.9631 15.2668 20.9494 15.2292 20.9288 15.1953C20.9082 15.1614 20.8812 15.1319 20.8492 15.1084C20.8172 15.085 20.7809 15.0681 20.7424 15.0587ZM20.3099 16.8206L12.6738 14.9443C12.6353 14.9349 12.5953 14.9331 12.5561 14.9391C12.5169 14.9451 12.4792 14.9588 12.4453 14.9794C12.4114 14.9999 12.3819 15.027 12.3584 15.0589C12.3349 15.0909 12.318 15.1272 12.3085 15.1657C12.2991 15.2042 12.2973 15.2442 12.3033 15.2835C12.3093 15.3227 12.323 15.3603 12.3435 15.3942C12.3641 15.4281 12.3911 15.4577 12.4231 15.4812C12.4551 15.5046 12.4914 15.5216 12.5299 15.531L20.166 17.4073C20.2438 17.4263 20.326 17.4137 20.3945 17.3722C20.463 17.3307 20.5122 17.2637 20.5313 17.1859C20.5504 17.1081 20.5378 17.0259 20.4963 16.9574C20.4547 16.8889 20.3877 16.8396 20.3099 16.8206ZM19.8769 18.5825L14.9117 17.3625C14.8732 17.353 14.8332 17.3513 14.794 17.3573C14.7548 17.3633 14.7171 17.377 14.6832 17.3975C14.6493 17.4181 14.6198 17.4451 14.5963 17.4771C14.5728 17.5091 14.5559 17.5453 14.5464 17.5839C14.537 17.6224 14.5352 17.6624 14.5412 17.7016C14.5472 17.7408 14.5609 17.7784 14.5814 17.8124C14.602 17.8463 14.629 17.8758 14.661 17.8993C14.693 17.9228 14.7293 17.9397 14.7678 17.9492L19.7329 19.1691C19.8107 19.1882 19.8929 19.1756 19.9614 19.1341C20.0299 19.0926 20.0791 19.0256 20.0982 18.9478C20.1173 18.87 20.1047 18.7878 20.0632 18.7193C20.0217 18.6508 19.9547 18.6015 19.8769 18.5825ZM19.4438 20.3443L18.0073 19.9917C17.9311 19.977 17.8521 19.9921 17.7868 20.034C17.7214 20.0758 17.6747 20.1412 17.6562 20.2166C17.6377 20.292 17.6489 20.3716 17.6874 20.4389C17.726 20.5063 17.789 20.5562 17.8633 20.5784L19.2998 20.931C19.3776 20.9501 19.4598 20.9375 19.5283 20.896C19.5969 20.8545 19.6461 20.7875 19.6652 20.7097C19.6842 20.6319 19.6717 20.5497 19.6301 20.4812C19.5886 20.4126 19.5216 20.3634 19.4438 20.3443Z" fill="#2A2A2A"/>
<path d="M23.0087 12.1107C23.0096 12.058 22.9964 12.006 22.9706 11.9601L21.1985 9.03328C21.163 8.97735 21.1097 8.93497 21.0473 8.91291C21.0352 8.90807 21.0249 8.89961 21.0122 8.89658L19.2043 8.45263L16.8811 6.12944C16.8336 6.08467 16.773 6.05645 16.7081 6.049C16.6942 6.04719 16.6815 6.04114 16.667 6.04114H8.8041C8.7239 6.04114 8.64698 6.073 8.59026 6.12971C8.53355 6.18643 8.50169 6.26335 8.50169 6.34356V13.1734L6.39624 12.6393C6.34183 12.6256 6.28466 12.6273 6.23114 12.6442C6.17762 12.661 6.12986 12.6925 6.0932 12.735C6.05654 12.7775 6.03243 12.8294 6.02357 12.8848C6.01471 12.9402 6.02144 12.997 6.04302 13.0488L7.08394 15.5456L7.08878 15.5516C7.10614 15.5924 7.13239 15.6287 7.1656 15.6581L8.50229 16.8115V19.6494C8.50229 19.7296 8.53415 19.8065 8.59087 19.8632C8.64758 19.92 8.7245 19.9518 8.80471 19.9518H9.88798L9.83596 20.1641C9.82648 20.2026 9.82468 20.2427 9.83068 20.2819C9.83667 20.3211 9.85034 20.3588 9.8709 20.3927C9.89146 20.4266 9.91851 20.4562 9.9505 20.4796C9.98249 20.5031 10.0188 20.52 10.0573 20.5294L13.3283 21.3333C13.3277 21.3635 13.3241 21.3925 13.3259 21.4234C13.3434 21.6647 13.4541 21.8855 13.638 22.0434C13.7796 22.1658 13.9559 22.2412 14.1424 22.2588C14.3288 22.2765 14.5161 22.2356 14.6783 22.1419L15.4071 22.771C15.4973 22.8488 15.6019 22.9081 15.7151 22.9454C15.8282 22.9826 15.9476 22.9972 16.0664 22.9881C16.3083 22.9706 16.5285 22.8593 16.6864 22.676L17.0559 22.2478L20.042 22.9815C20.0806 22.991 20.1206 22.9929 20.1599 22.9869C20.1992 22.981 20.2369 22.9673 20.2709 22.9468C20.3049 22.9262 20.3345 22.8991 20.3581 22.8671C20.3816 22.8351 20.3985 22.7987 20.4079 22.7601L23.0057 12.1881C23.0087 12.1748 23.0063 12.1615 23.0075 12.1482L23.0087 12.1107ZM22.0743 11.6486L20.7273 11.3171L21.0581 9.97078L21.7785 11.1599L22.0743 11.6486ZM18.0696 8.17319L16.9694 7.90283V7.07299L18.0696 8.17319ZM9.10592 6.64537H16.364V7.75465L13.3749 7.02037C13.2971 7.00155 13.215 7.01427 13.1466 7.05574C13.0781 7.09721 13.0289 7.16408 13.0095 7.24174L13.0077 7.25021H11.8283C11.7481 7.25021 11.6712 7.28207 11.6145 7.33879C11.5577 7.3955 11.5259 7.47242 11.5259 7.55263V8.76231C11.5259 8.84251 11.5577 8.91944 11.6145 8.97615C11.6712 9.03286 11.7481 9.06473 11.8283 9.06473H12.562L12.265 10.2744H11.2235C11.1433 10.2744 11.0663 10.3063 11.0096 10.363C10.9529 10.4197 10.921 10.4966 10.921 10.5768C10.921 10.657 10.9529 10.734 11.0096 10.7907C11.0663 10.8474 11.1433 10.8792 11.2235 10.8792H12.1162L11.8192 12.0889H10.0138C9.93358 12.0889 9.85665 12.1208 9.79994 12.1775C9.74322 12.2342 9.71136 12.3111 9.71136 12.3913C9.71136 12.4715 9.74322 12.5485 9.79994 12.6052C9.85665 12.6619 9.93358 12.6938 10.0138 12.6938H11.6704L11.3735 13.9034H10.0144C9.94973 13.905 9.88732 13.9275 9.83657 13.9675L9.14161 13.3675C9.13078 13.3582 9.11925 13.3497 9.10713 13.3421V6.64537H9.10592ZM7.78858 15.3974L8.18354 14.9395L14.1358 20.077L13.7408 20.5349L10.8164 18.0109L9.00128 16.4438L9.00007 16.4432L7.78858 15.3974ZM8.97406 14.0238L11.0686 15.8323L14.9257 19.1613L14.5307 19.6192L8.5785 14.4817L8.97406 14.0238ZM12.7102 8.45989H12.1301V7.85505H12.8589L12.7102 8.45989ZM11.0904 15.0508L10.462 14.5083H11.2241L11.0904 15.0508ZM8.39402 13.7698L7.67971 14.5972L7.4529 14.8603L6.83294 13.3736L8.39402 13.7698ZM9.10592 17.3335L10.2811 18.3478L10.0356 19.347H9.10592V17.3335ZM10.7946 18.7911L12.8952 20.6044L10.494 20.0147L10.7946 18.7911ZM14.2525 21.6581C14.2128 21.6613 14.1728 21.6565 14.135 21.6439C14.0971 21.6313 14.0622 21.6113 14.0323 21.5849C14.0022 21.5591 13.9775 21.5276 13.9597 21.4922C13.9418 21.4568 13.9311 21.4182 13.9283 21.3786C13.926 21.329 13.936 21.2796 13.9573 21.2347C13.9604 21.2286 13.9676 21.2256 13.97 21.2196C13.9797 21.1984 13.9912 21.173 13.9985 21.1627C13.9997 21.1615 13.9997 21.1597 14.0009 21.1591L14.7902 20.2446L14.7914 20.244L14.792 20.2428L15.5813 19.3282C15.6089 19.2963 15.6432 19.2709 15.6817 19.2538C15.695 19.2478 15.7089 19.2466 15.7229 19.2423C15.7478 19.2333 15.7738 19.2278 15.8003 19.226C15.8233 19.2262 15.8462 19.2288 15.8686 19.2339C15.8819 19.2363 15.8952 19.2363 15.9079 19.2405C15.9545 19.2567 15.9965 19.2839 16.0301 19.32C16.0637 19.356 16.0881 19.3997 16.1009 19.4473C16.1138 19.4949 16.1149 19.5449 16.104 19.593C16.0931 19.6411 16.0707 19.6858 16.0386 19.7232L14.4575 21.554C14.4321 21.5842 14.4008 21.609 14.3656 21.6268C14.3303 21.6447 14.2919 21.6553 14.2525 21.6581ZM16.021 22.3857C15.9814 22.3892 15.9415 22.3846 15.9038 22.3721C15.866 22.3596 15.8312 22.3395 15.8015 22.3131L15.115 21.7204L16.3005 20.3474L16.987 20.9401C17.0172 20.9659 17.042 20.9974 17.06 21.0328C17.078 21.0682 17.0888 21.1068 17.0917 21.1465C17.0946 21.1861 17.0896 21.2259 17.0771 21.2635C17.0645 21.3012 17.0446 21.336 17.0184 21.3659L16.7184 21.7131L16.2279 22.2817C16.202 22.3118 16.1704 22.3365 16.1349 22.3543C16.0994 22.3722 16.0607 22.3829 16.021 22.3857ZM19.892 22.3234L17.4981 21.7349C17.5029 21.7288 17.5041 21.7216 17.5083 21.7155C17.5725 21.6315 17.6227 21.5401 17.6535 21.4415C17.6553 21.4361 17.6553 21.4307 17.6571 21.4246C17.7077 21.2576 17.7086 21.0795 17.6597 20.9119C17.6108 20.7444 17.5143 20.5947 17.3819 20.4811L16.6561 19.8544C16.6585 19.8484 16.6579 19.8417 16.6604 19.8357C16.6881 19.7601 16.7056 19.6812 16.7124 19.601C16.7136 19.5853 16.713 19.5702 16.7136 19.5544C16.7161 19.4812 16.7098 19.4079 16.6948 19.3361C16.6924 19.3252 16.6918 19.3137 16.6894 19.3028C16.6691 19.2245 16.6383 19.1492 16.5981 19.079L16.5696 19.0331C16.524 18.9602 16.4684 18.894 16.4045 18.8365C16.3386 18.7813 16.265 18.7359 16.1862 18.7016C16.1698 18.6944 16.1541 18.6865 16.1372 18.6805C16.0615 18.6505 15.9822 18.631 15.9013 18.6224C15.891 18.6212 15.8807 18.6224 15.8704 18.6218C15.796 18.6173 15.7212 18.622 15.6479 18.6357L15.6049 18.643C15.5263 18.6611 15.4513 18.6901 15.3793 18.7288C15.3739 18.7319 15.3672 18.7325 15.3618 18.7355L11.6051 15.493L13.5249 7.67844L20.5737 9.41069L20.0686 11.4659C20.0591 11.5045 20.0573 11.5445 20.0633 11.5837C20.0693 11.6229 20.083 11.6606 20.1036 11.6945C20.1241 11.7284 20.1512 11.758 20.1832 11.7814C20.2152 11.8049 20.2515 11.8218 20.29 11.8313L22.3458 12.3369L19.892 22.3234Z" fill="#2A2A2A"/>
<path d="M15.5902 10.6784L19.1146 11.5445C19.1532 11.554 19.1932 11.5558 19.2324 11.5499C19.2716 11.5439 19.3093 11.5303 19.3432 11.5097C19.3772 11.4892 19.4068 11.4622 19.4303 11.4302C19.4538 11.3983 19.4708 11.362 19.4803 11.3235C19.4898 11.285 19.4916 11.2449 19.4856 11.2057C19.4796 11.1665 19.466 11.1288 19.4455 11.0949C19.4249 11.0609 19.3979 11.0314 19.366 11.0078C19.334 10.9843 19.2977 10.9673 19.2592 10.9579L16.0281 10.1631L16.1727 9.57519L19.4031 10.3693C19.4417 10.3788 19.4817 10.3806 19.5209 10.3746C19.5601 10.3685 19.5977 10.3549 19.6317 10.3343C19.6656 10.3138 19.6951 10.2867 19.7186 10.2548C19.7421 10.2228 19.759 10.1865 19.7685 10.148C19.7779 10.1095 19.7797 10.0694 19.7737 10.0302C19.7677 9.99103 19.754 9.95339 19.7334 9.91946C19.7129 9.88554 19.6859 9.856 19.6539 9.83253C19.6219 9.80905 19.5856 9.7921 19.5471 9.78265L16.0227 8.91652C15.9449 8.89754 15.8628 8.91018 15.7943 8.95168C15.7258 8.99318 15.6766 9.06015 15.6574 9.13789L15.3689 10.3125C15.3497 10.3904 15.3623 10.4727 15.4038 10.5413C15.4453 10.6099 15.5124 10.6592 15.5902 10.6784Z" fill="#2A2A2A"/>
</g>
<defs>
<clipPath id="clip0_9_3578">
<rect width="30" height="30" fill="white"/>
</clipPath>
</defs>
</svg>
