<svg width="30" height="30" viewBox="0 0 30 30" fill="none" xmlns="http://www.w3.org/2000/svg">
<g clip-path="url(#clip0_24_6823)">
<path d="M5.87912 18.9775L4.55332 20.3033L-0.75 15L4.55332 9.69666L5.87918 11.0225L2.83916 14.0625H16.125V15.9375H2.83916L5.87912 18.9775Z" fill="#2A2A2A"/>
<path d="M4.69145 22.955C6.81617 25.0798 9.64104 26.25 12.6458 26.25C15.6509 26.25 18.4763 25.0798 20.6012 22.955C22.7263 20.8301 23.8804 18.005 23.8804 15C23.8804 11.9953 22.7263 9.17021 20.6012 7.04525C18.4762 4.92029 15.6509 3.75 12.6458 3.75C9.64121 3.75 6.81629 4.92029 4.69145 7.0452C4.54412 7.19287 4.40084 7.34453 4.26178 7.5H1.8752C4.24672 4.09992 8.18627 1.875 12.6458 1.875C19.8948 1.875 25.7554 7.75184 25.7554 15C25.7554 22.2489 19.8948 28.125 12.6458 28.125C8.18615 28.125 4.24643 25.9002 1.87502 22.5H4.26154C4.40066 22.6556 4.54401 22.8073 4.69145 22.955Z" fill="#2A2A2A"/>
</g>
<defs>
<clipPath id="clip0_24_6823">
<rect width="30" height="30" fill="white"/>
</clipPath>
</defs>
</svg>
