<svg width="30" height="30" viewBox="0 0 30 30" fill="none" xmlns="http://www.w3.org/2000/svg">
<path d="M21.4959 18.9775L22.8217 20.3033L28.125 15L22.8217 9.69666L21.4958 11.0225L24.5358 14.0625H11.25V15.9375H24.5358L21.4959 18.9775Z" fill="#2A2A2A"/>
<path d="M22.9389 22.955C20.8142 25.0798 17.9893 26.25 14.9845 26.25C11.9794 26.25 9.1541 25.0798 7.02914 22.955C4.90412 20.8301 3.75 18.005 3.75 15C3.75 11.9953 4.90412 9.17021 7.0292 7.04525C9.15422 4.92029 11.9795 3.75 14.9845 3.75C17.9892 3.75 20.8141 4.92029 22.9389 7.0452C23.0863 7.19287 23.2295 7.34453 23.3686 7.5H25.7552C23.3837 4.09992 19.4441 1.875 14.9845 1.875C7.73561 1.875 1.875 7.75184 1.875 15C1.875 22.2489 7.73561 28.125 14.9845 28.125C19.4442 28.125 23.3839 25.9002 25.7554 22.5H23.3688C23.2297 22.6556 23.0864 22.8073 22.9389 22.955Z" fill="#2A2A2A"/>
</svg>
