<svg width="30" height="30" viewBox="0 0 30 30" fill="none" xmlns="http://www.w3.org/2000/svg">
<g clip-path="url(#clip0_34_10538)">
<path d="M22.9448 13.1209L21.3031 14.7334C21.0881 14.9484 20.8195 15.0609 20.4974 15.0711C20.1753 15.0813 19.8966 14.9687 19.6613 14.7334C19.4463 14.5184 19.3388 14.2447 19.3388 13.9125C19.3388 13.5802 19.4463 13.3066 19.6613 13.0916L21.2738 11.4498L19.6613 9.83737C19.4463 9.62237 19.3388 9.35383 19.3388 9.03173C19.3388 8.70963 19.4463 8.43091 19.6613 8.19559C19.8958 7.96105 20.1745 7.84379 20.4974 7.84379C20.8203 7.84379 21.0986 7.96105 21.3324 8.19559L22.9448 9.80805L24.5573 8.16628C24.7723 7.93174 25.0408 7.81447 25.3629 7.81447C25.685 7.81447 25.9637 7.93174 26.1991 8.16628C26.4336 8.40082 26.5509 8.67953 26.5509 9.00241C26.5509 9.32529 26.4336 9.60361 26.1991 9.83737L24.5866 11.4498L26.2284 13.0916C26.4629 13.3261 26.5755 13.5998 26.5661 13.9125C26.5567 14.2252 26.4344 14.4988 26.1991 14.7334C25.9645 14.9484 25.6909 15.0609 25.3782 15.0711C25.0655 15.0813 24.7918 14.9687 24.5573 14.7334L22.9448 13.1209ZM10.6316 14.3816C9.34159 14.3816 8.2373 13.9223 7.31869 13.0036C6.40008 12.085 5.94078 10.9807 5.94078 9.69078C5.94078 8.40082 6.40008 7.29653 7.31869 6.37792C8.2373 5.45931 9.34159 5 10.6316 5C11.9215 5 13.0258 5.45931 13.9444 6.37792C14.863 7.29653 15.3223 8.40082 15.3223 9.69078C15.3223 10.9807 14.863 12.085 13.9444 13.0036C13.0258 13.9223 11.9215 14.3816 10.6316 14.3816ZM1.25 21.4177V20.4796C1.25 19.815 1.42121 19.2045 1.76364 18.6478C2.10607 18.0912 2.56029 17.6659 3.12631 17.3719C4.33809 16.766 5.56942 16.3118 6.8203 16.0093C8.07117 15.7067 9.34159 15.555 10.6316 15.5543C11.9215 15.5543 13.1919 15.7059 14.4428 16.0093C15.6937 16.3126 16.925 16.7668 18.1368 17.3719C18.7036 17.6651 19.1582 18.0904 19.5006 18.6478C19.8431 19.2052 20.0139 19.8158 20.0131 20.4796V21.4177C20.0131 22.0627 19.7836 22.6151 19.3247 23.0747C18.8658 23.5344 18.3135 23.7639 17.6677 23.7631H3.59539C2.95041 23.7631 2.39846 23.5337 1.93954 23.0747C1.48063 22.6158 1.25078 22.0635 1.25 21.4177ZM3.59539 21.4177H17.6677V20.4796C17.6677 20.2646 17.6142 20.0691 17.5071 19.8932C17.4 19.7173 17.2581 19.5805 17.0814 19.4828C16.0259 18.9551 14.9607 18.5595 13.8858 18.296C12.8108 18.0326 11.7261 17.9004 10.6316 17.8996C9.53704 17.8996 8.4523 18.0318 7.37733 18.296C6.30236 18.5603 5.23716 18.9559 4.18174 19.4828C4.00583 19.5805 3.86394 19.7173 3.75605 19.8932C3.64816 20.0691 3.59461 20.2646 3.59539 20.4796V21.4177ZM10.6316 12.0362C11.2765 12.0362 11.8289 11.8067 12.2886 11.3478C12.7483 10.8889 12.9777 10.3365 12.9769 9.69078C12.9769 9.0458 12.7475 8.49385 12.2886 8.03493C11.8297 7.57602 11.2773 7.34617 10.6316 7.34539C9.98657 7.34539 9.43462 7.57524 8.97571 8.03493C8.51679 8.49463 8.28695 9.04658 8.28617 9.69078C8.28617 10.3358 8.51601 10.8881 8.97571 11.3478C9.43541 11.8075 9.98735 12.037 10.6316 12.0362Z" fill="white"/>
</g>
<defs>
<clipPath id="clip0_34_10538">
<rect width="26.6667" height="20" fill="white" transform="translate(0 5)"/>
</clipPath>
</defs>
</svg>
