<svg width="30" height="30" viewBox="0 0 30 30" fill="none" xmlns="http://www.w3.org/2000/svg">
<path d="M14.1 16.182L17.25 13.032L20.4 16.182L21.432 15.15L18.282 12L21.432 8.85L20.4 7.818L17.25 10.968L14.1 7.818L13.068 8.85L16.218 12L13.068 15.15L14.1 16.182ZM9.1725 22.5C8.4825 22.5 7.9065 22.269 7.4445 21.807C6.9815 21.344 6.75 20.7675 6.75 20.0775V3.9225C6.75 3.2325 6.9815 2.6565 7.4445 2.1945C7.9065 1.7315 8.4825 1.5 9.1725 1.5H25.3275C26.0175 1.5 26.5935 1.7315 27.0555 2.1945C27.5185 2.6565 27.75 3.2325 27.75 3.9225V20.0775C27.75 20.7675 27.519 21.344 27.057 21.807C26.594 22.269 26.0175 22.5 25.3275 22.5H9.1725ZM9.1725 21H25.3275C25.5575 21 25.769 20.904 25.962 20.712C26.154 20.519 26.25 20.3075 26.25 20.0775V3.9225C26.25 3.6925 26.154 3.481 25.962 3.288C25.769 3.096 25.5575 3 25.3275 3H9.1725C8.9425 3 8.731 3.096 8.538 3.288C8.346 3.481 8.25 3.6925 8.25 3.9225V20.0775C8.25 20.3075 8.346 20.519 8.538 20.712C8.731 20.904 8.9425 21 9.1725 21ZM4.6725 27C3.9825 27 3.4065 26.769 2.9445 26.307C2.4815 25.844 2.25 25.2675 2.25 24.5775V6.9225H3.75V24.5775C3.75 24.8075 3.846 25.019 4.038 25.212C4.231 25.404 4.4425 25.5 4.6725 25.5H22.3275V27H4.6725Z" fill="white"/>
</svg>
