<svg width="30" height="30" viewBox="0 0 30 30" fill="none" xmlns="http://www.w3.org/2000/svg">
<path d="M13.9301 21.5628L13.93 21.5629C13.997 21.63 14.0834 21.6733 14.176 21.6873L14.2241 21.6667L14.2829 21.6613L16.3932 21.4655C16.3933 21.4655 16.3934 21.4654 16.3935 21.4654C16.4949 21.4558 16.5895 21.4105 16.6606 21.3376L16.6638 21.3342L16.6639 21.3342L22.6674 15.3308C22.6678 15.3303 22.6683 15.3298 22.6688 15.3293C22.8204 15.1739 22.9399 14.99 23.0203 14.7883C23.1009 14.5859 23.1407 14.3695 23.1372 14.1517L23.137 14.1399L23.1372 14.1399C23.141 13.8998 23.0967 13.6614 23.007 13.4387L23.3549 13.2986L23.007 13.4387C22.9183 13.2184 22.7869 13.0179 22.6204 12.8486M13.9301 21.5628L22.6204 12.8486M13.9301 21.5628L13.9234 21.5564C13.8786 21.5138 13.844 21.4614 13.8224 21.4035C13.8008 21.3455 13.7926 21.2833 13.7986 21.2217L13.7986 21.2217L13.799 21.2171L13.9731 19.1279L13.9731 19.1279L13.9735 19.1229C13.9807 19.0199 14.0238 18.9227 14.0953 18.8482L20.0942 12.8493L13.9301 21.5628ZM22.6204 12.8486C22.6223 12.8504 22.6243 12.8522 22.6262 12.854L22.8811 12.5789L22.6149 12.843C22.6167 12.8448 22.6186 12.8467 22.6204 12.8486ZM4.33365 20.8653H4.32854C4.21156 20.8653 4.09937 20.8189 4.01664 20.7361L3.75148 21.0013L4.01664 20.7361C3.93392 20.6534 3.88745 20.5412 3.88745 20.4242C3.88745 19.2089 4.23266 18.3261 4.76559 17.6733C5.30316 17.0148 6.05473 16.5625 6.90941 16.2545C8.63081 15.6341 10.6735 15.6306 11.9454 15.6306C12.7349 15.6306 13.4071 15.6312 14.0114 15.7041L14.0194 15.7051L14.0273 15.7057C14.1433 15.7147 14.2511 15.7692 14.3271 15.8574C14.4023 15.9445 14.4404 16.0576 14.4333 16.1724C14.4219 16.2888 14.3657 16.3963 14.2766 16.4722C14.1866 16.549 14.07 16.5873 13.952 16.579L13.9389 16.5781H13.9258C13.6586 16.5781 13.376 16.5641 13.0648 16.5486L13.0113 16.5459C12.6822 16.5296 12.3257 16.5128 11.9454 16.5128C9.11562 16.5128 7.32372 16.8641 6.23338 17.5419C5.67715 17.8876 5.30352 18.3181 5.07363 18.8205C4.84642 19.317 4.76964 19.8618 4.76964 20.4242H4.7696L4.76967 20.4293C4.77045 20.4868 4.75971 20.5439 4.73808 20.5971C4.71644 20.6504 4.68435 20.6988 4.64371 20.7394L4.90887 21.0046L4.64371 20.7394C4.60306 20.78 4.55468 20.8121 4.50143 20.8338C4.44817 20.8554 4.39112 20.8662 4.33365 20.8654L4.33365 20.8653ZM14.9345 19.2552L14.836 19.3531L14.8251 19.4916L14.7598 20.3186L14.7248 20.7613L15.1671 20.7216L16.0159 20.6454L16.1513 20.6332L16.2475 20.5371L22.0472 14.7374L22.0592 14.7254L22.07 14.7124C22.197 14.5602 22.2628 14.3664 22.2549 14.1686C22.2522 13.9317 22.167 13.7032 22.0137 13.5224L21.9859 13.4896L21.9513 13.4639C21.7797 13.3364 21.5715 13.2675 21.3577 13.2675C21.1438 13.2675 20.9357 13.3364 20.764 13.4639L20.7424 13.48L20.7233 13.499L14.9345 19.2552ZM11.945 13.2485C11.2122 13.2484 10.496 13.0311 9.88677 12.624C9.27741 12.2168 8.80247 11.6381 8.52201 10.961C8.24155 10.2839 8.16817 9.53888 8.31115 8.82009C8.45413 8.1013 8.80704 7.44105 9.32526 6.92283C9.84347 6.40461 10.5037 6.0517 11.2225 5.90873C11.9413 5.76575 12.6864 5.83913 13.3634 6.11959C14.0405 6.40005 14.6192 6.87499 15.0264 7.48435C15.4334 8.09353 15.6508 8.80971 15.6509 9.54237C15.6482 10.5244 15.2569 11.4655 14.5624 12.16C13.868 12.8544 12.927 13.2457 11.945 13.2485ZM11.9454 6.71971C11.387 6.71971 10.8412 6.8853 10.3769 7.19552C9.9126 7.50575 9.55073 7.94668 9.33705 8.46257C9.12336 8.97846 9.06745 9.54613 9.17639 10.0938C9.28532 10.6415 9.55421 11.1445 9.94906 11.5394C10.3439 11.9342 10.847 12.2031 11.3946 12.312C11.9423 12.421 12.51 12.3651 13.0258 12.1514C13.5417 11.9377 13.9827 11.5758 14.2929 11.1115C14.6031 10.6472 14.7687 10.1014 14.7687 9.54299C14.7687 8.79421 14.4712 8.0761 13.9418 7.54663C13.4123 7.01717 12.6942 6.71971 11.9454 6.71971Z" fill="white" stroke="black" stroke-width="0.75"/>
</svg>
