<svg width="30" height="30" viewBox="0 0 30 30" fill="none" xmlns="http://www.w3.org/2000/svg">
<g clip-path="url(#clip0_9_3579)">
<path d="M9.95651 1.40142L9.86275 1.43622L9.89755 1.52998L10.3152 2.65498L10.3499 2.74869L10.4437 2.71394C11.9018 2.17336 13.4448 1.89771 15 1.89998H15.0001C22.2235 1.89998 28.1001 7.77661 28.1001 15C28.1001 22.2234 22.2235 28.1 15.0001 28.1C7.77675 28.1 1.90013 22.2234 1.9001 15C1.90124 13.0699 2.32885 11.1639 3.15235 9.4183C3.94547 7.7371 5.08691 6.24469 6.5001 5.03957V8.99998V9.09998H6.6001H7.8001H7.9001V8.99998V2.99998V2.89998H7.8001H1.8001H1.7001V2.99998V4.19998V4.29998H1.8001H5.21472C3.76254 5.62823 2.59517 7.23883 1.78466 9.03421C0.938207 10.9092 0.500329 12.9428 0.500098 15C0.500098 22.995 7.00507 29.5 15.0001 29.5C22.9951 29.5 29.5001 22.995 29.5001 15C29.5001 7.00495 22.9951 0.499976 15.0001 0.499976C13.2651 0.499976 11.5685 0.803254 9.95651 1.40142Z" fill="#2A2A2A" stroke="#2A2A2A" stroke-width="0.2"/>
<path d="M11.4 19.8H10.2V21H19.8V19.8H18.6V17.7516L15.8484 15L18.6 12.2484V10.2H19.8V9H10.2V10.2H11.4V12.2484L14.1516 15L11.4 17.7516V19.8ZM12.6 11.7516V10.2H17.4V11.7516L15 14.1516L12.6 11.7516ZM15 15.8484L17.4 18.2484V19.8H12.6V18.2484L15 15.8484ZM11.4 23.4H12.6V24.6H11.4V23.4ZM14.4 23.4H15.6V24.6H14.4V23.4ZM17.4 23.4H18.6V24.6H17.4V23.4Z" fill="#2A2A2A"/>
</g>
<defs>
<clipPath id="clip0_9_3579">
<rect width="30" height="30" fill="white"/>
</clipPath>
</defs>
</svg>
