<svg width="30" height="30" viewBox="0 0 30 30" fill="none" xmlns="http://www.w3.org/2000/svg">
<g clip-path="url(#clip0_27_142)">
<path d="M21.75 15C21.75 15.45 21.375 15.75 21 15.75H15.75V21C15.75 21.45 15.375 21.75 15 21.75C14.625 21.75 14.25 21.45 14.25 21V15.75H9C8.625 15.75 8.25 15.45 8.25 15C8.25 14.55 8.625 14.25 9 14.25H14.25V9C14.25 8.55 14.625 8.25 15 8.25C15.375 8.25 15.75 8.55 15.75 9V14.25H21C21.375 14.25 21.75 14.55 21.75 15Z" fill="white"/>
<path d="M15 30C6.75 30 0 23.25 0 15C0 6.75 6.75 0 15 0C18.375 0 21.525 1.125 24.225 3.15C24.525 3.375 24.6 3.9 24.375 4.2C24.15 4.5 23.625 4.575 23.325 4.35C20.925 2.475 18 1.5 15 1.5C7.575 1.5 1.5 7.575 1.5 15C1.5 22.425 7.575 28.5 15 28.5C22.425 28.5 28.5 22.425 28.5 15C28.5 12.6 27.825 10.2 26.625 8.1C26.4 7.725 26.55 7.275 26.85 7.05C27.225 6.825 27.675 6.975 27.9 7.275C29.25 9.675 30 12.3 30 15C30 23.25 23.25 30 15 30Z" fill="white"/>
</g>
<defs>
<clipPath id="clip0_27_142">
<rect width="30" height="30" fill="white"/>
</clipPath>
</defs>
</svg>
