<svg width="454" height="440" viewBox="0 0 454 440" fill="none" xmlns="http://www.w3.org/2000/svg">
<path d="M226.856 440C352.145 440 453.711 381.36 453.711 309.024C453.711 236.688 352.145 178.049 226.856 178.049C101.567 178.049 0 236.688 0 309.024C0 381.36 101.567 440 226.856 440Z" fill="#F0F0F0"/>
<path d="M357.138 354.471C342.262 345.882 342.262 331.959 357.138 323.371C372.014 314.782 396.134 314.782 411.01 323.371C425.885 331.959 425.885 345.882 411.01 354.471C396.134 363.059 372.014 363.059 357.138 354.471Z" fill="#E0E0E0"/>
<path d="M54.574 355.664L15.444 333.076C13.2391 331.805 13.2391 329.735 15.444 328.464L243.051 197.055C244.288 196.428 245.655 196.102 247.042 196.102C248.428 196.102 249.796 196.428 251.033 197.055L290.172 219.643C292.377 220.914 292.377 222.985 290.172 224.256L62.5656 355.664C61.3269 356.291 59.9581 356.618 58.5698 356.618C57.1815 356.618 55.8126 356.291 54.574 355.664Z" fill="#E0E0E0"/>
<path d="M195.226 315.398L228.868 295.949C232.334 293.946 234.068 291.327 234.068 288.699C234.068 286.07 234.068 284.019 234.068 284.019L199.174 264.339C198.199 263.708 197.388 262.856 196.805 261.852C196.223 260.848 195.886 259.721 195.823 258.562V217.073L137.09 251.023V292.492C137.158 293.65 137.496 294.776 138.078 295.779C138.66 296.783 139.469 297.636 140.441 298.269L170.135 315.369C177.048 319.404 188.294 319.404 195.226 315.398Z" fill="url(#paint0_linear_319_2119)" fill-opacity="0.73"/>
<g opacity="0.6">
<path d="M195.226 315.398L228.868 295.949C232.334 293.946 234.068 291.327 234.068 288.699C234.068 286.07 234.068 284.019 234.068 284.019L199.174 264.339C198.199 263.708 197.388 262.856 196.805 261.852C196.223 260.848 195.886 259.721 195.823 258.562V217.073L137.09 251.023V292.492C137.158 293.65 137.496 294.776 138.078 295.779C138.66 296.783 139.469 297.636 140.441 298.269L170.135 315.369C177.048 319.404 188.294 319.404 195.226 315.398Z" fill="black"/>
</g>
<path opacity="0.3" d="M151.176 299.839V304.499L140.411 298.289C139.44 297.656 138.632 296.803 138.051 295.799C137.471 294.795 137.135 293.669 137.07 292.512V251.023L148.259 244.562C148.49 247.402 148.74 250.339 148.981 253.227L141.114 257.753V290.153C141.177 291.312 141.513 292.44 142.095 293.444C142.678 294.448 143.49 295.3 144.465 295.93L151.176 299.839Z" fill="black"/>
<path d="M141.114 290.162C141.18 291.32 141.518 292.447 142.1 293.45C142.682 294.454 143.492 295.307 144.465 295.939L170.096 310.709C177.028 314.705 188.274 314.715 195.216 310.709L228.916 291.26C235.858 287.254 235.858 280.765 228.916 276.759L203.266 261.989C202.296 261.355 201.488 260.502 200.908 259.499C200.327 258.495 199.991 257.37 199.925 256.212V223.803L141.191 257.753L141.114 290.162Z" fill="url(#paint1_linear_319_2119)" fill-opacity="0.73"/>
<path opacity="0.3" d="M141.114 290.162C141.18 291.32 141.518 292.447 142.1 293.45C142.682 294.454 143.492 295.307 144.465 295.939L170.096 310.709C177.028 314.705 188.274 314.715 195.216 310.709L228.916 291.26C235.858 287.254 235.858 280.765 228.916 276.759L203.266 261.989C202.296 261.355 201.488 260.502 200.908 259.499C200.327 258.495 199.991 257.37 199.925 256.212V223.803L141.191 257.753L141.114 290.162Z" fill="black"/>
<path opacity="0.5" d="M210.054 265.947L203.227 262.009C202.257 261.374 201.449 260.521 200.869 259.518C200.289 258.514 199.952 257.389 199.886 256.232V223.803L141.153 257.753V290.162C141.219 291.32 141.557 292.447 142.139 293.45C142.721 294.454 143.531 295.307 144.504 295.939L151.243 299.791L210.054 265.947Z" fill="black"/>
<path d="M234.077 284.029V288.708C234.077 291.337 232.334 293.946 228.877 295.958L195.178 315.398C191.49 317.367 187.371 318.389 183.19 318.373V313.713C187.371 313.729 191.49 312.707 195.178 310.738L228.877 291.279C232.334 289.286 234.077 286.657 234.077 284.029Z" fill="url(#paint2_linear_319_2119)" fill-opacity="0.73"/>
<path opacity="0.5" d="M234.077 284.029V288.708C234.077 291.337 232.334 293.946 228.877 295.958L195.178 315.398C191.49 317.367 187.371 318.389 183.19 318.373V313.713C187.371 313.729 191.49 312.707 195.178 310.738L228.877 291.279C232.334 289.286 234.077 286.657 234.077 284.029Z" fill="black"/>
<path d="M46.7557 330.438C48.0254 331.051 49.4214 331.358 50.8313 331.333C52.2411 331.307 53.6254 330.952 54.8725 330.293L282.104 199.106C283.322 198.311 284.336 197.241 285.064 195.981C285.792 194.722 286.212 193.308 286.292 191.856V8.02951C286.249 6.61641 285.872 5.23359 285.192 3.99373C284.513 2.75387 283.55 1.69206 282.383 0.894831C281.115 0.280878 279.72 -0.0251523 278.311 0.00161648C276.902 0.0283853 275.52 0.387198 274.276 1.04889L47.0445 132.275C45.8304 133.075 44.8224 134.15 44.1029 135.413C43.3834 136.677 42.9727 138.092 42.9043 139.544V323.342C42.9472 324.743 43.318 326.115 43.9868 327.347C44.6557 328.58 45.604 329.638 46.7557 330.438Z" fill="url(#paint3_linear_319_2119)" fill-opacity="0.73"/>
<path d="M54.9013 330.284L282.132 199.096C283.353 198.303 284.368 197.233 285.096 195.973C285.824 194.713 286.243 193.299 286.321 191.846V8.02952C286.321 5.36244 284.443 4.27443 282.132 5.61278L54.9013 136.8C53.6823 137.594 52.6678 138.665 51.9401 139.925C51.2123 141.184 50.7919 142.598 50.7129 144.051V327.867C50.7129 330.534 52.5904 331.622 54.9013 330.284Z" fill="url(#paint4_linear_319_2119)" fill-opacity="0.73"/>
<path opacity="0.5" d="M54.9013 330.284L282.132 199.096C283.353 198.303 284.368 197.233 285.096 195.973C285.824 194.713 286.243 193.299 286.321 191.846V8.02952C286.321 5.36244 284.443 4.27443 282.132 5.61278L54.9013 136.8C53.6823 137.594 52.6678 138.665 51.9401 139.925C51.2123 141.184 50.7919 142.598 50.7129 144.051V327.867C50.7129 330.534 52.5904 331.622 54.9013 330.284Z" fill="black"/>
<path d="M54.2851 335.06C53.0935 335.58 51.8034 335.835 50.5035 335.809C49.2036 335.782 47.925 335.474 46.7557 334.905C45.6014 334.104 44.6515 333.042 43.9826 331.806C43.3136 330.571 42.9443 329.195 42.9043 327.79V311.056L50.7515 315.6V332.335C50.7033 334.771 52.2535 335.878 54.2851 335.06Z" fill="url(#paint5_linear_319_2119)" fill-opacity="0.73"/>
<path opacity="0.5" d="M54.2851 335.06C53.0935 335.58 51.8034 335.835 50.5035 335.809C49.2036 335.782 47.925 335.474 46.7557 334.905C45.6014 334.104 44.6515 333.042 43.9826 331.806C43.3136 330.571 42.9443 329.195 42.9043 327.79V311.056L50.7515 315.6V332.335C50.7033 334.771 52.2535 335.878 54.2851 335.06Z" fill="black"/>
<path d="M50.7034 315.6V332.335C50.7034 335.002 52.6291 336.08 54.8917 334.751L282.123 203.564C283.336 202.773 284.347 201.709 285.075 200.456C285.802 199.204 286.226 197.798 286.311 196.352V179.541L50.7034 315.6Z" fill="url(#paint6_linear_319_2119)" fill-opacity="0.73"/>
<path opacity="0.3" d="M50.7129 315.562V332.335C50.7129 335.002 52.6386 336.08 54.9013 334.751L282.132 203.564C283.344 202.772 284.353 201.707 285.079 200.455C285.805 199.202 286.227 197.797 286.311 196.352V179.541L50.7129 315.562Z" fill="black"/>
<path d="M58.5603 294.562V146.66C58.6051 145.788 58.8553 144.94 59.2903 144.184C59.7254 143.427 60.333 142.785 61.0637 142.308L275.913 18.226C277.299 17.4269 278.426 18.072 278.426 19.6703V167.65C278.379 168.522 278.127 169.371 277.69 170.127C277.254 170.883 276.645 171.526 275.913 172.002L61.0733 296.055C59.6868 296.854 58.5603 296.199 58.5603 294.562Z" fill="#FF8200"/>
<path d="M58.5603 294.562V146.66C58.6051 145.788 58.8553 144.94 59.2903 144.184C59.7254 143.427 60.333 142.785 61.0637 142.308L275.913 18.226C277.299 17.4269 278.426 18.072 278.426 19.6703V167.65C278.379 168.522 278.127 169.371 277.69 170.127C277.254 170.883 276.645 171.526 275.913 172.002L61.0733 296.055C59.6868 296.854 58.5603 296.199 58.5603 294.562Z" fill="#263238"/>
<path d="M168.507 252.9C167.363 253.644 166.411 254.647 165.729 255.828C165.046 257.01 164.652 258.335 164.579 259.698C164.579 262.201 166.341 263.222 168.507 261.97C169.652 261.225 170.605 260.22 171.287 259.037C171.97 257.854 172.363 256.527 172.435 255.163C172.435 252.659 170.673 251.648 168.507 252.9Z" fill="#FF8200"/>
<path opacity="0.7" d="M51.9454 139.91C51.1992 141.165 50.7727 142.583 50.7033 144.041V315.6L42.9043 311.056V139.544C42.9548 138.082 43.3791 136.656 44.1367 135.404L51.9454 139.91Z" fill="black"/>
<path opacity="0.3" d="M286.273 7.33624C285.974 5.17947 284.232 4.44771 282.123 5.61275L54.8918 136.8C53.6598 137.571 52.6429 138.641 51.9359 139.91L44.0791 135.375C44.7908 134.106 45.8107 133.037 47.0447 132.265L274.276 1.08738C275.522 0.425603 276.906 0.0667737 278.316 0.0400072C279.726 0.0132408 281.123 0.319291 282.393 0.933328C283.46 1.66062 284.359 2.60863 285.028 3.71327C285.698 4.81791 286.122 6.05342 286.273 7.33624Z" fill="black"/>
<path d="M298.53 29.9631C298.192 29.7937 297.815 29.7195 297.438 29.7483C297.062 29.7772 296.7 29.908 296.392 30.1268L81.9861 153.987C81.1401 154.547 80.4377 155.298 79.9359 156.179C79.4341 157.061 79.1469 158.048 79.0976 159.061V306.059C79.0675 306.555 79.1661 307.051 79.3837 307.498C79.6013 307.945 79.9305 308.328 80.3396 308.61C80.8114 308.87 83.3341 310.334 84.0851 310.738C84.3508 310.873 84.6477 310.936 84.9454 310.919C85.2431 310.902 85.531 310.806 85.7797 310.642L300.138 186.782C300.984 186.222 301.686 185.471 302.188 184.589C302.69 183.708 302.977 182.721 303.026 181.707V33.9493C303.069 33.5759 303.007 33.1979 302.847 32.8578C302.688 32.5176 302.436 32.2287 302.121 32.0236C301.64 31.7059 299.069 30.2808 298.53 29.9631Z" fill="url(#paint7_linear_319_2119)" fill-opacity="0.73"/>
<path d="M85.7316 156.067L300.147 32.2547C301.765 31.2919 303.036 32.0814 303.036 33.9493V181.707C302.987 182.721 302.699 183.708 302.197 184.589C301.696 185.471 300.993 186.222 300.147 186.782L85.7316 310.642C84.114 311.605 82.843 310.055 82.843 308.187V161.141C82.8939 160.128 83.1817 159.141 83.6834 158.26C84.1851 157.379 84.8866 156.628 85.7316 156.067Z" fill="#FAFAFA"/>
<path d="M301.457 32.8132C302.025 32.8132 302.112 33.5257 302.112 33.9493V181.707C302.06 182.556 301.811 183.38 301.385 184.116C300.958 184.851 300.367 185.477 299.656 185.944L85.2694 309.804C85.1255 309.898 84.9593 309.951 84.788 309.958C84.2488 309.958 83.8251 309.13 83.8251 308.187V161.141C83.8716 160.293 84.1129 159.467 84.5304 158.727C84.9478 157.987 85.5302 157.354 86.2322 156.876L300.629 33.0828C300.877 32.9227 301.162 32.8298 301.457 32.8132ZM301.457 31.8503C300.993 31.8701 300.542 32.0094 300.147 32.2547L85.7316 156.067C84.8866 156.628 84.1851 157.379 83.6834 158.26C83.1817 159.142 82.8939 160.128 82.843 161.141V308.187C82.843 309.669 83.6711 310.921 84.7687 310.921C85.1087 310.915 85.4409 310.818 85.7316 310.642L300.138 186.782C300.984 186.222 301.686 185.471 302.188 184.589C302.69 183.708 302.977 182.721 303.026 181.707V33.9493C303.026 32.6206 302.372 31.8503 301.409 31.8503H301.457Z" fill="#E0E0E0"/>
<path d="M80.2821 308.61C80.5998 308.774 82.8817 310.074 83.8831 310.651C83.5235 310.353 83.2387 309.975 83.0515 309.547C82.8642 309.119 82.7797 308.653 82.8047 308.187V170.741L79.0496 168.545V306.059C79.0185 306.554 79.1156 307.049 79.3315 307.496C79.5473 307.943 79.8747 308.327 80.2821 308.61Z" fill="#F0F0F0"/>
<path d="M303.074 33.9204C303.074 32.0717 301.755 31.3207 300.186 32.2547L85.7316 156.067C84.8866 156.628 84.1851 157.379 83.6834 158.26C83.1817 159.141 82.8939 160.128 82.843 161.141V170.769L303.074 43.5488V33.9204Z" fill="url(#paint8_linear_319_2119)" fill-opacity="0.73"/>
<g opacity="0.4">
<path d="M300.147 32.2547L85.7315 156.057C84.871 156.6 84.1621 157.352 83.671 158.243L79.9448 156.076C80.435 155.217 81.1379 154.497 81.986 153.987L296.392 30.1268C296.699 29.9065 297.06 29.7739 297.437 29.7434C297.813 29.7128 298.191 29.7855 298.53 29.9535C299.05 30.2808 301.486 31.6577 302.111 31.9947C301.788 31.8746 301.439 31.8356 301.097 31.8809C300.755 31.9262 300.429 32.0545 300.147 32.2547Z" fill="white"/>
</g>
<path opacity="0.15" d="M79.0496 168.555V159.013C79.0891 157.973 79.3976 156.961 79.945 156.076L83.6808 158.233C83.1413 159.103 82.8392 160.099 82.8047 161.122V170.75L79.0496 168.555Z" fill="black"/>
<path d="M257.859 144.763L129.445 218.902C128.82 219.307 128.3 219.854 127.927 220.498C127.554 221.143 127.338 221.866 127.298 222.609V259.428C127.338 260.172 127.554 260.895 127.927 261.539C128.3 262.183 128.82 262.73 129.445 263.135L133.19 265.292C133.856 265.629 134.591 265.804 135.337 265.804C136.083 265.804 136.819 265.629 137.485 265.292L265.88 191.153C266.504 190.746 267.024 190.197 267.397 189.551C267.77 188.905 267.986 188.181 268.027 187.436V150.608C267.986 149.864 267.77 149.141 267.397 148.497C267.024 147.853 266.504 147.306 265.88 146.901L262.125 144.744C261.462 144.413 260.731 144.242 259.99 144.245C259.249 144.248 258.519 144.426 257.859 144.763Z" fill="url(#paint9_linear_319_2119)" fill-opacity="0.73"/>
<path opacity="0.5" d="M268.027 150.28C267.873 149.173 266.977 148.768 265.899 149.394L137.485 223.533C136.851 223.927 136.33 224.477 135.973 225.132L127.933 220.491C128.293 219.847 128.81 219.304 129.435 218.912L257.859 144.773C258.523 144.435 259.257 144.259 260.002 144.259C260.746 144.259 261.48 144.435 262.144 144.773L265.899 146.929C266.472 147.305 266.957 147.797 267.324 148.375C267.691 148.953 267.931 149.602 268.027 150.28Z" fill="white"/>
<path d="M137.119 265.475C136.49 265.723 135.816 265.835 135.141 265.805C134.466 265.776 133.804 265.604 133.2 265.301L129.445 263.145C128.821 262.738 128.302 262.191 127.929 261.547C127.556 260.903 127.34 260.181 127.298 259.438V222.619C127.327 221.867 127.545 221.135 127.933 220.491L135.973 225.132C135.582 225.768 135.363 226.494 135.337 227.24V264.069C135.337 265.292 136.108 265.86 137.119 265.475Z" fill="#263238"/>
<path d="M137.485 223.533L265.899 149.394C267.083 148.711 268.046 149.26 268.046 150.627V187.456C268.005 188.2 267.79 188.925 267.417 189.57C267.044 190.216 266.524 190.765 265.899 191.172L137.504 265.311C136.32 265.995 135.357 265.436 135.357 264.069V227.25C135.395 226.507 135.608 225.784 135.978 225.138C136.347 224.492 136.863 223.943 137.485 223.533Z" fill="url(#paint10_linear_319_2119)" fill-opacity="0.73"/>
<path d="M223.813 164.424L129.454 218.912C128.829 219.304 128.313 219.847 127.952 220.491L135.992 225.132C136.35 224.477 136.871 223.927 137.504 223.533L231.863 169.056L223.813 164.424Z" fill="#455A64"/>
<path d="M231.843 169.056L137.485 223.533C136.86 223.941 136.34 224.489 135.967 225.135C135.594 225.781 135.378 226.505 135.337 227.25V264.059C135.337 265.427 136.3 265.985 137.485 265.302L231.843 210.824V169.056Z" fill="#37474F"/>
<path d="M159.245 219.046L207.936 190.941C209.948 189.776 211.585 190.604 211.585 192.79C211.495 194.017 211.117 195.206 210.481 196.26C209.845 197.314 208.97 198.203 207.926 198.856L159.245 226.971C157.232 228.136 155.586 227.308 155.586 225.122C155.677 223.893 156.055 222.703 156.691 221.648C157.326 220.593 158.201 219.701 159.245 219.046Z" fill="url(#paint11_linear_319_2119)" fill-opacity="0.73"/>
<path d="M169.22 228.357C169.229 228.347 169.24 228.339 169.253 228.333C169.265 228.327 169.279 228.325 169.292 228.325C169.306 228.325 169.319 228.327 169.332 228.333C169.344 228.339 169.355 228.347 169.364 228.357C169.408 228.423 169.428 228.5 169.422 228.579V234.057C169.423 234.586 169.378 235.115 169.287 235.636C169.208 236.113 169.072 236.578 168.883 237.023C168.71 237.43 168.484 237.812 168.209 238.159C167.938 238.48 167.612 238.751 167.246 238.958C166.96 239.145 166.625 239.245 166.283 239.247C166.153 239.237 166.025 239.2 165.91 239.138C165.794 239.077 165.692 238.993 165.609 238.891C165.398 238.608 165.259 238.277 165.205 237.928C165.113 237.462 165.071 236.987 165.08 236.512V231.024C165.079 230.928 165.099 230.833 165.138 230.745C165.161 230.666 165.212 230.597 165.282 230.552L165.889 230.196C165.908 230.178 165.934 230.168 165.961 230.168C165.988 230.168 166.013 230.178 166.033 230.196C166.078 230.261 166.098 230.339 166.091 230.418V235.829C166.083 236.127 166.113 236.424 166.177 236.715C166.204 236.901 166.284 237.075 166.409 237.215C166.452 237.267 166.507 237.308 166.568 237.335C166.63 237.361 166.697 237.373 166.765 237.369C166.929 237.359 167.089 237.305 167.227 237.215C167.398 237.113 167.554 236.987 167.689 236.84C167.839 236.667 167.963 236.472 168.055 236.262C168.164 236.015 168.244 235.757 168.296 235.492C168.352 235.174 168.378 234.852 168.373 234.529V229.108C168.376 229.011 168.399 228.916 168.44 228.829C168.464 228.75 168.515 228.681 168.585 228.636L169.22 228.357Z" fill="#FAFAFA"/>
<path d="M172.994 233.537C172.999 233.466 172.982 233.396 172.946 233.335C172.923 233.31 172.894 233.291 172.863 233.279C172.831 233.267 172.797 233.263 172.763 233.268C172.645 233.252 172.525 233.252 172.407 233.268L171.848 233.374C171.668 233.418 171.48 233.418 171.299 233.374C171.158 233.328 171.036 233.237 170.953 233.114C170.859 232.957 170.796 232.784 170.77 232.603C170.676 232.088 170.676 231.559 170.77 231.043C170.842 230.748 170.945 230.461 171.078 230.187C171.21 229.913 171.371 229.655 171.559 229.416C171.742 229.189 171.963 228.997 172.214 228.848C172.417 228.725 172.643 228.646 172.878 228.617C173.049 228.599 173.221 228.636 173.37 228.723C173.511 228.809 173.622 228.937 173.687 229.089C173.765 229.269 173.807 229.461 173.812 229.657C173.822 229.754 173.802 229.851 173.755 229.936C173.731 230.016 173.68 230.084 173.61 230.129L173.033 230.466C173.006 230.481 172.976 230.489 172.946 230.489C172.915 230.489 172.886 230.481 172.859 230.466L172.734 230.369C172.684 230.33 172.624 230.307 172.561 230.302C172.437 230.316 172.318 230.359 172.214 230.427C172.063 230.518 171.929 230.636 171.819 230.774C171.703 230.925 171.642 231.112 171.646 231.303C171.632 231.377 171.632 231.452 171.646 231.525C171.664 231.552 171.689 231.575 171.717 231.591C171.745 231.608 171.777 231.618 171.81 231.621C171.915 231.639 172.022 231.639 172.127 231.621L172.667 231.525C173.119 231.438 173.427 231.525 173.63 231.775C173.842 232.132 173.939 232.545 173.909 232.96C173.906 233.246 173.867 233.53 173.793 233.807C173.717 234.107 173.607 234.398 173.466 234.673C173.324 234.958 173.146 235.224 172.936 235.463C172.737 235.697 172.499 235.896 172.233 236.05C172.022 236.186 171.781 236.268 171.53 236.291C171.349 236.297 171.171 236.247 171.02 236.147C170.872 236.045 170.757 235.901 170.693 235.733C170.615 235.55 170.576 235.353 170.577 235.155C170.568 235.055 170.588 234.955 170.635 234.866C170.659 234.787 170.71 234.718 170.779 234.673L171.357 234.336C171.434 234.336 171.492 234.288 171.53 234.336L171.656 234.471C171.681 234.5 171.712 234.523 171.747 234.54C171.782 234.556 171.819 234.566 171.858 234.567C171.993 234.568 172.125 234.524 172.233 234.442C172.407 234.344 172.563 234.217 172.696 234.067C172.761 233.988 172.816 233.9 172.859 233.807C172.927 233.73 172.974 233.637 172.994 233.537Z" fill="#FAFAFA"/>
<path d="M174.958 230.928C174.957 230.428 174.998 229.928 175.083 229.436C175.164 228.972 175.29 228.517 175.459 228.078C175.601 227.684 175.795 227.312 176.037 226.971C176.239 226.677 176.501 226.431 176.807 226.249C177.03 226.099 177.302 226.04 177.568 226.085C177.803 226.139 178.009 226.28 178.145 226.48C178.326 226.741 178.454 227.035 178.521 227.346C178.613 227.75 178.658 228.164 178.656 228.579V229.176C178.659 229.276 178.635 229.376 178.588 229.465C178.565 229.544 178.513 229.612 178.444 229.657L175.94 231.111C175.934 231.28 175.957 231.45 176.008 231.612C176.045 231.721 176.112 231.817 176.2 231.891C176.279 231.954 176.379 231.984 176.48 231.978C176.596 231.964 176.708 231.924 176.807 231.862C176.953 231.783 177.083 231.679 177.192 231.554C177.291 231.443 177.375 231.32 177.442 231.188C177.484 231.112 177.529 231.038 177.577 230.967C177.619 230.918 177.667 230.875 177.722 230.841L178.319 230.495C178.339 230.478 178.365 230.469 178.391 230.469C178.417 230.469 178.443 230.478 178.463 230.495C178.488 230.525 178.507 230.561 178.517 230.599C178.527 230.637 178.528 230.677 178.521 230.716C178.51 230.904 178.471 231.089 178.405 231.265C178.322 231.532 178.213 231.79 178.078 232.035C177.927 232.317 177.746 232.582 177.539 232.825C177.332 233.073 177.084 233.284 176.807 233.451C176.579 233.6 176.307 233.664 176.037 233.634C175.8 233.577 175.593 233.432 175.459 233.229C175.269 232.937 175.142 232.61 175.083 232.266C174.996 231.826 174.954 231.377 174.958 230.928ZM176.807 227.857C176.659 227.936 176.531 228.048 176.431 228.184C176.325 228.319 176.237 228.468 176.172 228.627C176.104 228.786 176.049 228.95 176.008 229.118C175.974 229.27 175.951 229.425 175.94 229.58L177.635 228.617C177.625 228.484 177.606 228.352 177.577 228.222C177.562 228.106 177.516 227.996 177.442 227.905C177.414 227.863 177.377 227.828 177.333 227.801C177.29 227.775 177.242 227.758 177.192 227.751C177.055 227.739 176.919 227.777 176.807 227.857Z" fill="#FAFAFA"/>
<path d="M181.679 225.17C181.387 225.337 181.157 225.594 181.024 225.902C180.874 226.308 180.806 226.74 180.822 227.173V230.649C180.823 230.748 180.804 230.846 180.764 230.938C180.741 231.017 180.689 231.085 180.62 231.13L180.052 231.458C180.043 231.468 180.032 231.476 180.019 231.482C180.007 231.487 179.993 231.49 179.98 231.49C179.966 231.49 179.952 231.487 179.94 231.482C179.927 231.476 179.916 231.468 179.907 231.458C179.864 231.392 179.844 231.314 179.85 231.236V225.006C179.85 224.907 179.87 224.809 179.907 224.718C179.934 224.64 179.985 224.573 180.052 224.525L180.62 224.198C180.639 224.179 180.665 224.169 180.692 224.169C180.719 224.169 180.745 224.179 180.764 224.198C180.809 224.259 180.829 224.334 180.822 224.41V224.718C180.937 224.459 181.079 224.214 181.246 223.986C181.398 223.775 181.595 223.601 181.823 223.476L182.17 223.273C182.188 223.256 182.212 223.246 182.237 223.246C182.263 223.246 182.287 223.256 182.305 223.273C182.351 223.338 182.375 223.416 182.372 223.495V224.371C182.371 224.471 182.348 224.569 182.305 224.66C182.28 224.736 182.233 224.803 182.17 224.852L181.679 225.17Z" fill="#FAFAFA"/>
<path d="M188.862 224.708C188.871 224.698 188.882 224.69 188.894 224.684C188.907 224.678 188.92 224.675 188.934 224.675C188.948 224.675 188.961 224.678 188.974 224.684C188.986 224.69 188.997 224.698 189.006 224.708C189.049 224.774 189.07 224.851 189.064 224.929V225.892C189.063 225.991 189.044 226.09 189.006 226.181C188.973 226.253 188.924 226.315 188.862 226.364L185.569 228.29C185.549 228.308 185.523 228.318 185.497 228.318C185.47 228.318 185.444 228.308 185.424 228.29C185.381 228.228 185.361 228.153 185.367 228.078V219.412C185.367 219.313 185.387 219.215 185.424 219.124C185.451 219.048 185.502 218.984 185.569 218.941L186.175 218.584C186.195 218.566 186.221 218.556 186.248 218.556C186.274 218.556 186.3 218.566 186.32 218.584C186.363 218.646 186.383 218.721 186.378 218.796V226.123L188.862 224.708Z" fill="#FAFAFA"/>
<path d="M191.818 217.583C192.035 217.433 192.296 217.362 192.559 217.381C192.785 217.399 192.995 217.502 193.147 217.67C193.326 217.876 193.458 218.119 193.532 218.382C193.635 218.723 193.693 219.076 193.705 219.432C193.705 219.509 193.705 219.615 193.705 219.74V220.481C193.705 220.597 193.705 220.703 193.705 220.789C193.686 221.208 193.628 221.624 193.532 222.031C193.443 222.429 193.314 222.816 193.147 223.187C192.994 223.532 192.796 223.856 192.559 224.15C192.356 224.416 192.105 224.641 191.818 224.814C191.595 224.959 191.332 225.03 191.067 225.016C190.845 224.997 190.638 224.894 190.489 224.727C190.304 224.529 190.172 224.287 190.104 224.024C190.001 223.684 189.943 223.331 189.931 222.975C189.931 222.898 189.931 222.802 189.931 222.676V221.935C189.931 221.81 189.931 221.704 189.931 221.627C189.942 221.205 189.997 220.786 190.094 220.375C190.188 219.975 190.32 219.585 190.489 219.21C190.642 218.867 190.836 218.544 191.067 218.247C191.271 217.979 191.526 217.753 191.818 217.583ZM192.723 220.067C192.722 219.854 192.687 219.643 192.617 219.441C192.581 219.319 192.507 219.211 192.405 219.133C192.323 219.078 192.224 219.054 192.126 219.066C192.016 219.086 191.911 219.129 191.818 219.191C191.705 219.253 191.601 219.331 191.51 219.422C191.399 219.537 191.305 219.666 191.231 219.807C191.134 219.982 191.062 220.17 191.019 220.366C190.956 220.612 190.917 220.863 190.903 221.117C190.903 221.194 190.903 221.28 190.903 221.386V222.07C190.903 222.176 190.903 222.262 190.903 222.32C190.912 222.533 190.951 222.744 191.019 222.946C191.054 223.069 191.128 223.177 191.231 223.254C191.271 223.282 191.316 223.302 191.364 223.312C191.412 223.322 191.462 223.322 191.51 223.312C191.619 223.293 191.723 223.254 191.818 223.196C191.929 223.132 192.033 223.054 192.126 222.965C192.233 222.848 192.327 222.719 192.405 222.58C192.498 222.403 192.569 222.216 192.617 222.022C192.68 221.776 192.715 221.524 192.723 221.271C192.729 221.181 192.729 221.091 192.723 221.001V220.327C192.728 220.241 192.728 220.154 192.723 220.067Z" fill="#FAFAFA"/>
<path d="M196.651 223.216C196.774 223.14 196.885 223.046 196.978 222.936C197.094 222.801 197.194 222.652 197.277 222.493C197.373 222.3 197.447 222.097 197.498 221.887C197.557 221.651 197.587 221.408 197.585 221.165V220.674C197.585 220.77 197.489 220.886 197.421 221.02C197.355 221.161 197.278 221.296 197.19 221.425C197.09 221.56 196.98 221.689 196.863 221.81C196.742 221.937 196.602 222.044 196.449 222.128C196.35 222.195 196.238 222.242 196.121 222.265C196.003 222.288 195.882 222.287 195.765 222.262C195.551 222.195 195.367 222.056 195.245 221.868C195.088 221.619 194.974 221.345 194.908 221.059C194.826 220.695 194.781 220.324 194.773 219.952C194.773 219.826 194.773 219.672 194.773 219.489C194.773 219.306 194.773 219.152 194.773 219.018C194.785 218.594 194.831 218.173 194.908 217.756C194.987 217.347 195.1 216.944 195.245 216.553C195.381 216.213 195.556 215.89 195.765 215.59C195.943 215.325 196.176 215.101 196.449 214.935C196.577 214.858 196.717 214.803 196.863 214.771C196.971 214.751 197.082 214.751 197.19 214.771C197.276 214.796 197.354 214.838 197.421 214.897C197.483 214.944 197.538 214.999 197.585 215.06V214.752C197.585 214.653 197.605 214.555 197.643 214.463C197.67 214.388 197.72 214.324 197.787 214.28L198.355 213.943C198.375 213.925 198.401 213.915 198.427 213.915C198.454 213.915 198.48 213.925 198.5 213.943C198.546 214.008 198.57 214.086 198.567 214.165V220.423C198.593 221.361 198.419 222.293 198.057 223.158C197.773 223.838 197.28 224.411 196.651 224.795C196.436 224.928 196.191 225.004 195.938 225.016C195.739 225.028 195.54 224.978 195.37 224.872C195.208 224.75 195.076 224.592 194.985 224.41C194.891 224.19 194.839 223.955 194.831 223.716C194.822 223.616 194.842 223.516 194.889 223.427C194.913 223.348 194.964 223.28 195.033 223.235L195.544 222.946C195.555 222.933 195.57 222.923 195.585 222.917C195.601 222.91 195.618 222.906 195.635 222.906C195.652 222.906 195.669 222.91 195.685 222.917C195.701 222.923 195.715 222.933 195.727 222.946C195.774 222.996 195.816 223.051 195.852 223.11C195.91 223.213 196.007 223.289 196.121 223.322C196.237 223.408 196.41 223.312 196.651 223.216ZM195.746 218.546C195.746 218.803 195.746 219.053 195.746 219.297C195.718 219.681 195.828 220.063 196.054 220.375C196.14 220.449 196.249 220.49 196.362 220.49C196.475 220.49 196.585 220.449 196.67 220.375C196.95 220.194 197.168 219.932 197.296 219.624C197.471 219.222 197.569 218.791 197.585 218.353C197.585 218.209 197.585 218.036 197.585 217.833C197.585 217.631 197.585 217.458 197.585 217.333C197.605 216.988 197.502 216.647 197.296 216.37C197.211 216.291 197.099 216.248 196.983 216.248C196.867 216.248 196.756 216.291 196.67 216.37C196.396 216.551 196.182 216.809 196.054 217.111C195.856 217.564 195.751 218.052 195.746 218.546Z" fill="#FAFAFA"/>
<path d="M200.811 209.996C200.83 209.98 200.854 209.972 200.878 209.972C200.903 209.972 200.927 209.98 200.946 209.996C200.996 210.058 201.02 210.137 201.013 210.217V211.267C201.014 211.367 200.991 211.466 200.946 211.556C200.919 211.628 200.872 211.691 200.811 211.739L200.166 212.114C200.157 212.124 200.146 212.132 200.133 212.138C200.121 212.144 200.107 212.147 200.094 212.147C200.08 212.147 200.067 212.144 200.054 212.138C200.042 212.132 200.03 212.124 200.021 212.114C199.996 212.085 199.977 212.052 199.966 212.015C199.954 211.979 199.95 211.94 199.954 211.902V210.853C199.953 210.752 199.977 210.653 200.021 210.564C200.048 210.489 200.099 210.425 200.166 210.381L200.811 209.996ZM200.975 219.037C200.975 219.133 200.955 219.228 200.917 219.316C200.886 219.392 200.836 219.458 200.772 219.509L200.195 219.836C200.187 219.846 200.176 219.854 200.165 219.86C200.153 219.865 200.14 219.868 200.127 219.868C200.114 219.868 200.102 219.865 200.09 219.86C200.078 219.854 200.068 219.846 200.06 219.836C200.01 219.774 199.985 219.694 199.993 219.615V213.385C199.992 213.285 200.015 213.186 200.06 213.096C200.087 213.021 200.134 212.955 200.195 212.904L200.772 212.576C200.792 212.558 200.818 212.548 200.845 212.548C200.872 212.548 200.897 212.558 200.917 212.576C200.96 212.638 200.98 212.713 200.975 212.788V219.037Z" fill="#FAFAFA"/>
<path d="M206.039 216.1C206.039 216.199 206.019 216.297 205.981 216.389C205.954 216.464 205.904 216.528 205.837 216.572L205.259 216.909C205.241 216.927 205.217 216.937 205.192 216.937C205.167 216.937 205.142 216.927 205.124 216.909C205.074 216.847 205.05 216.767 205.057 216.688V213.298C205.087 212.898 205.014 212.497 204.845 212.133C204.71 211.893 204.499 211.854 204.2 212.027C203.902 212.227 203.682 212.523 203.574 212.865C203.413 213.319 203.335 213.799 203.343 214.28V217.679C203.343 217.778 203.323 217.876 203.285 217.968C203.262 218.047 203.21 218.116 203.141 218.161L202.573 218.488C202.564 218.498 202.553 218.507 202.54 218.512C202.528 218.518 202.514 218.521 202.501 218.521C202.487 218.521 202.473 218.518 202.461 218.512C202.449 218.507 202.437 218.498 202.428 218.488C202.384 218.427 202.363 218.352 202.371 218.276V212.047C202.369 211.947 202.389 211.849 202.428 211.758C202.452 211.678 202.503 211.61 202.573 211.565L203.141 211.238C203.15 211.228 203.161 211.219 203.174 211.214C203.186 211.208 203.199 211.205 203.213 211.205C203.227 211.205 203.24 211.208 203.253 211.214C203.265 211.219 203.276 211.228 203.285 211.238C203.328 211.303 203.349 211.381 203.343 211.459V211.758C203.47 211.464 203.625 211.184 203.805 210.92C203.964 210.677 204.178 210.476 204.431 210.333C204.65 210.173 204.923 210.104 205.192 210.14C205.298 210.167 205.398 210.216 205.484 210.284C205.571 210.352 205.642 210.438 205.692 210.535C205.832 210.796 205.924 211.079 205.962 211.373C206.013 211.756 206.039 212.142 206.039 212.528V216.1Z" fill="#FAFAFA"/>
<path d="M254.605 188.072L245.256 193.464L246.71 180.35C245.583 179.753 244.871 178.299 244.871 176.21C244.871 172.483 247.143 168.16 249.935 166.581C252.727 165.002 254.99 166.677 254.99 170.433C254.932 172.642 254.302 174.798 253.161 176.691L254.605 188.072Z" fill="#455A64"/>
<path d="M254.614 188.072L246.382 183.325L245.255 193.473L254.614 188.072Z" fill="#37474F"/>
<path d="M249.916 166.552C247.88 167.928 246.362 169.944 245.603 172.281L253.142 176.633C254.283 174.741 254.913 172.584 254.971 170.375C254.99 166.648 252.728 164.944 249.916 166.552Z" fill="#37474F"/>
<path d="M204.47 122.887C201.263 121.039 196.844 121.299 191.953 124.12C182.189 129.762 174.275 143.463 174.275 154.738C174.275 160.4 176.278 164.367 179.494 166.196L185.723 169.816C188.92 171.665 193.339 171.395 198.24 168.574C208.003 162.942 215.918 149.231 215.918 137.956C215.918 132.323 213.934 128.327 210.738 126.527" fill="url(#paint12_linear_319_2119)" fill-opacity="0.73"/>
<path d="M198.231 127.75C188.467 133.392 180.553 147.103 180.553 158.368C180.553 169.633 188.467 174.216 198.231 168.574C207.994 162.932 215.918 149.231 215.908 137.956C215.899 126.681 207.984 122.117 198.231 127.75Z" fill="url(#paint13_linear_319_2119)" fill-opacity="0.73"/>
<path d="M207.984 152.764V154.054C205.645 158.229 202.29 161.747 198.231 164.28C194.427 166.466 190.99 166.706 188.467 165.31V162.653C188.596 159.888 189.386 157.194 190.77 154.797C192.153 152.4 194.091 150.369 196.42 148.874L198.991 147.392C201.263 146.082 203.478 145.909 205.211 146.92C206.944 147.931 207.984 150.059 207.984 152.764Z" fill="url(#paint14_linear_319_2119)" fill-opacity="0.73"/>
<path opacity="0.4" d="M204.47 122.887L210.728 126.527C207.532 124.669 203.112 124.929 198.211 127.75C191.818 131.447 186.214 138.601 183.114 146.265L176.846 142.635C179.956 134.932 185.511 127.817 191.943 124.12C196.854 121.308 201.273 121.039 204.47 122.887Z" fill="white"/>
<path opacity="0.2" d="M185.501 169.672L179.503 166.196C176.287 164.367 174.284 160.419 174.284 154.738L180.552 158.378C180.591 163.866 182.439 167.775 185.501 169.672Z" fill="black"/>
<path opacity="0.1" d="M176.865 142.635L183.133 146.265C181.527 150.102 180.665 154.209 180.591 158.368L174.323 154.729C174.4 150.573 175.263 146.47 176.865 142.635Z" fill="black"/>
<path d="M195.996 146.785C195.399 146.792 194.811 146.639 194.292 146.342C193.667 145.925 193.166 145.348 192.842 144.67C192.519 143.992 192.384 143.239 192.453 142.491C192.535 140.736 193.036 139.027 193.913 137.506C194.791 135.985 196.02 134.697 197.498 133.748C198.092 133.274 198.815 132.99 199.573 132.934C200.33 132.877 201.087 133.051 201.745 133.432C202.402 133.812 202.929 134.383 203.257 135.068C203.586 135.753 203.699 136.521 203.584 137.272C203.5 139.026 202.999 140.735 202.121 142.255C201.244 143.776 200.015 145.065 198.538 146.015C197.774 146.492 196.897 146.758 195.996 146.785Z" fill="white"/>
<path d="M205.211 146.91C203.478 145.899 201.263 146.072 198.991 147.382L196.42 148.865C194.09 150.36 192.151 152.393 190.767 154.792C189.384 157.191 188.595 159.886 188.467 162.653V165.32C190.99 166.716 194.427 166.475 198.231 164.29C202.29 161.756 205.645 158.239 207.984 154.064V152.774C207.984 150.059 206.983 147.931 205.211 146.91Z" fill="white"/>
<path d="M403.152 313.482C403.152 313.482 404.433 302.236 410.027 293.503C415.621 284.77 423.305 279.33 430.478 278.762C437.651 278.194 443.447 284.799 435.774 289.353C428.1 293.908 414.466 298.51 408.188 315.456L403.152 313.482Z" fill="#1A1A1A"/>
<path opacity="0.1" d="M403.152 313.482C403.152 313.482 404.433 302.236 410.027 293.503C415.621 284.77 423.305 279.33 430.478 278.762C437.651 278.194 443.447 284.799 435.774 289.353C428.1 293.908 414.466 298.51 408.188 315.456L403.152 313.482Z" fill="black"/>
<path d="M405.261 310.555H405.184C405.09 310.517 405.014 310.442 404.975 310.349C404.935 310.255 404.934 310.149 404.972 310.054C412.54 291.423 426.944 283.634 433.511 282.132C433.56 282.121 433.611 282.119 433.661 282.127C433.711 282.136 433.759 282.154 433.802 282.181C433.845 282.208 433.882 282.243 433.911 282.284C433.941 282.325 433.962 282.372 433.973 282.421C433.985 282.47 433.986 282.521 433.978 282.571C433.969 282.621 433.951 282.669 433.924 282.712C433.898 282.755 433.863 282.792 433.821 282.821C433.78 282.851 433.734 282.872 433.684 282.883C427.252 284.366 413.128 292.011 405.685 310.353C405.648 310.43 405.585 310.492 405.508 310.528C405.431 310.565 405.344 310.575 405.261 310.555Z" fill="white"/>
<path d="M443.563 310.777C442.918 312.24 441.32 313.01 439.837 313.607C438.354 314.204 436.736 314.849 435.928 316.236C434.31 319.028 436.968 322.976 435.234 325.681C434.826 326.226 434.312 326.683 433.723 327.024C433.134 327.364 432.482 327.583 431.807 327.665C430.699 327.867 429.573 327.867 428.456 327.963C427.921 327.956 427.387 327.915 426.858 327.838C425.302 327.491 423.675 327.664 422.226 328.329C420.002 329.581 419.338 332.383 417.971 334.549C417.135 335.825 416.034 336.905 414.743 337.716C413.452 338.527 412.001 339.049 410.489 339.248C409.526 339.373 407.601 339.556 406.638 338.988C406.563 338.951 406.491 338.906 406.426 338.853C406.282 338.699 406.108 338.497 406.031 338.391C406.026 338.369 406.026 338.346 406.031 338.324C405.637 336.87 406.282 335.368 406.311 333.866V333.596C406.243 331.853 406.195 330.12 406.156 328.387C406.073 325.178 406.041 321.968 406.06 318.759C406.06 316.679 405.829 314.407 406.715 312.452C407.678 310.295 410.104 310.247 411.019 308.138C411.385 307.291 411.577 306.396 411.934 305.539C412.484 304.293 413.366 303.222 414.483 302.443C415.6 301.664 416.91 301.206 418.269 301.119C422.496 300.908 426.28 304.326 430.507 304.008C431.595 303.921 432.664 303.584 433.742 303.392C437.16 302.747 441.117 303.719 443.043 306.617C443.466 307.214 443.734 307.906 443.825 308.632C443.916 309.357 443.826 310.094 443.563 310.777Z" fill="#1A1A1A"/>
<path d="M405.608 331.651C405.517 331.624 405.44 331.563 405.393 331.48C405.346 331.398 405.334 331.3 405.357 331.208C411.192 309.313 434.243 306.174 439.664 306.54C439.711 306.543 439.758 306.555 439.801 306.575C439.844 306.596 439.882 306.625 439.914 306.661C439.945 306.697 439.969 306.739 439.984 306.785C439.999 306.83 440.005 306.878 440.001 306.925C439.991 307.019 439.945 307.105 439.874 307.166C439.802 307.227 439.709 307.258 439.615 307.253C434.329 306.877 411.76 309.968 406.051 331.401C406.024 331.492 405.963 331.569 405.88 331.616C405.797 331.662 405.7 331.675 405.608 331.651Z" fill="white"/>
<path d="M431.248 320.559C431.175 320.549 431.108 320.515 431.056 320.463C428.925 318.616 426.412 317.262 423.698 316.498C420.983 315.734 418.133 315.579 415.352 316.043C415.258 316.052 415.164 316.025 415.089 315.968C415.015 315.911 414.964 315.828 414.947 315.735C414.933 315.641 414.957 315.545 415.012 315.468C415.068 315.39 415.152 315.338 415.246 315.321C418.147 314.838 421.119 315.003 423.949 315.804C426.778 316.605 429.396 318.021 431.614 319.953C431.648 319.986 431.675 320.025 431.694 320.069C431.712 320.113 431.722 320.16 431.722 320.208C431.722 320.255 431.712 320.302 431.694 320.346C431.675 320.39 431.648 320.43 431.614 320.463C431.571 320.515 431.512 320.552 431.447 320.569C431.381 320.587 431.312 320.583 431.248 320.559Z" fill="white"/>
<path d="M350.167 49.0371L353.229 50.2117V43.4718C353.229 38.1184 357.494 36.8378 362.126 39.5145C366.767 42.1912 370.522 48.6904 370.522 54.0438V55.0067C371.167 54.8095 371.849 54.7607 372.516 54.8641C373.183 54.9675 373.818 55.2203 374.373 55.6037C376.132 56.7503 377.595 58.2958 378.644 60.1143C379.693 61.9329 380.298 63.9733 380.41 66.0698V66.5127L384.685 68.9776C385.842 69.7325 386.804 70.7491 387.495 71.9451C388.186 73.1411 388.586 74.4828 388.662 75.8619C388.662 78.4038 386.88 79.4341 384.685 78.1631L350.167 58.2226C349.01 57.4694 348.047 56.453 347.357 55.2565C346.668 54.06 346.271 52.7173 346.2 51.3383C346.2 48.806 347.962 47.7757 350.167 49.0371Z" fill="#E6E6E6"/>
<path d="M391.174 43.7029L396.73 46.9092C396.7 46.6664 396.684 46.4221 396.682 46.1774V44.5695C396.682 41.681 398.685 40.5448 401.169 41.9794C402.236 42.633 403.149 43.5101 403.845 44.5502C404.25 40.9492 407.081 39.6109 410.508 41.5847C412.467 42.8592 414.098 44.5773 415.269 46.5998C416.44 48.6222 417.118 50.8921 417.248 53.2255V55.6326C417.273 56.5944 417.079 57.5492 416.68 58.4248L421.302 61.0823C422.022 61.56 422.62 62.1999 423.048 62.9507C423.476 63.7016 423.723 64.5423 423.767 65.4055C423.767 66.9941 422.65 67.6392 421.273 66.8497L391.174 49.5185C390.446 49.0442 389.841 48.4044 389.408 47.6514C388.974 46.8983 388.725 46.0534 388.681 45.1857C388.681 43.5585 389.798 42.9134 391.174 43.7029Z" fill="#E6E6E6"/>
<path d="M369.665 189.834C365.621 196.67 361.731 202.611 358.996 205.461C353.807 207.868 341.617 211.584 336.851 212.201C336.014 212.307 335.166 212.109 334.463 211.642C332.586 210.41 331.132 210.208 329.158 209.524C327.608 208.994 326.953 208.253 326.664 208.561C326.366 208.911 326.216 209.363 326.246 209.822C326.277 210.281 326.486 210.709 326.828 211.016C327.568 211.72 328.389 212.334 329.273 212.846C327.159 213.37 324.954 213.41 322.822 212.961C318.692 211.873 316.747 213.857 319.539 218.344C320.502 219.942 324.469 222.513 332.441 221.819C335.285 221.666 338.118 221.345 340.924 220.857C348.569 219.22 357.071 217.641 362.299 216.042C364.244 215.278 365.984 214.071 367.383 212.518C376.173 202.495 379.091 195.351 382.942 188.861L382.615 178.27C376.376 178.058 373.044 184.114 369.665 189.834Z" fill="#FFA8A7"/>
<path d="M383.684 178.058C381.875 177.804 380.03 178.049 378.35 178.767C376.67 179.485 375.218 180.648 374.152 182.131C369.877 187.61 362.309 200.762 362.309 200.762C362.309 200.762 364.783 207.358 371.465 208.465L382.201 193.964C382.201 193.964 387.285 183.893 383.684 178.058Z" fill="#455A64"/>
<path d="M406.898 325.893H399.898V338.372H406.898V325.893Z" fill="#FFA8A7"/>
<path d="M382.634 325.229L375.644 325.479L375.288 312.269L382.634 312.019V325.229Z" fill="#FFA8A7"/>
<path d="M407.88 217.872C407.88 224.824 406.859 280.832 406.859 280.832C407.014 282.835 408.785 286.532 408.429 294.225C407.899 304.672 407.196 332.133 407.196 332.133C405.995 332.747 404.669 333.081 403.32 333.108C401.97 333.134 400.632 332.854 399.407 332.287C399.407 332.287 393.726 293.773 392.475 283.461C391.377 274.42 388.565 244.495 388.565 244.495L384.781 279.869C385.584 283.665 385.875 287.551 385.648 291.424C385.321 296.238 383.068 321.156 383.068 321.156C381.858 321.87 380.502 322.298 379.103 322.41C377.703 322.522 376.297 322.314 374.989 321.801C374.989 321.801 371.003 284.25 370.926 279.841C370.83 274.834 373.256 217.814 373.256 217.814L407.88 217.872Z" fill="#37474F"/>
<path d="M399.898 334.771V333.731C399.224 334.029 397.674 340.211 394.891 342.849C392.686 344.948 389.682 347.365 388.912 349.704C388.142 352.044 393.1 353.479 395.171 353.103C397.558 352.66 401.718 350.898 402.758 349.252C403.798 347.605 404.289 345.218 405.136 344.024C405.983 342.83 407.938 341.501 408.39 340.115C408.532 338.817 408.397 337.505 407.996 336.263C407.668 334.973 407.322 333.558 406.898 333.683V334.472C405.911 335.282 404.67 335.719 403.393 335.705C402.373 335.791 399.888 335.58 399.898 334.771Z" fill="#263238"/>
<path d="M375.567 323.226C375.201 323.226 374.903 323.775 374.103 324.68C372.915 325.93 371.525 326.972 369.992 327.761C367.373 329.129 362.289 331.228 359.969 332.316C358.525 332.99 358.592 334.8 360.084 335.83C361.577 336.86 365.168 337.602 369.482 336.6C371.831 336.051 374.893 333.789 376.838 333.914C378.783 334.039 382.393 334.001 383.828 332.951C385.263 331.902 384.685 329.725 384.281 327.848C383.838 325.787 383.318 322.581 382.634 322.726V323.448C381.797 324.776 377.454 325.316 375.605 324.343L375.567 323.226Z" fill="#263238"/>
<path d="M388.565 244.494C384.924 243.302 381.595 241.312 378.821 238.669C378.821 238.669 380.747 242.338 386.293 245.756L385.099 277.347L388.565 244.494Z" fill="#263238"/>
<path d="M403.971 179.079C403.971 179.079 409.748 180.408 409.334 190.845L408.13 207.454V232.391C402.988 238.226 380.208 237.803 372.36 231.929C372.36 231.929 373.246 202.418 373.776 191.057C374.151 182.988 376.01 178.925 383.943 178.039L393.697 178.463L403.971 179.079Z" fill="#A2ADB2"/>
<path d="M396.615 157.396C396.648 158.793 396.404 160.183 395.898 161.486C395.391 162.788 394.632 163.978 393.663 164.986C392.695 165.994 391.537 166.8 390.255 167.358C388.974 167.916 387.594 168.215 386.197 168.237C380.42 168.237 377.031 163.25 375.779 157.396C373.468 146.679 380.439 146.544 386.197 146.544C389.017 146.602 391.699 147.778 393.652 149.813C395.606 151.848 396.672 154.575 396.615 157.396Z" fill="#263238"/>
<path d="M401.929 161.776C401.929 161.776 400.331 169.595 399.686 170.885C399.28 171.661 398.59 172.251 397.76 172.531L397.876 167.034L401.929 161.776Z" fill="#263238"/>
<path d="M399.917 150.579C399.917 150.579 401.063 150.29 402.286 152.196C403.326 153.823 403.567 157.482 401.93 161.825L398.916 162.191L399.917 150.579Z" fill="#263238"/>
<path d="M401.024 152.167L404.722 152.235C404.747 151.996 404.723 151.754 404.65 151.525C404.578 151.296 404.458 151.084 404.3 150.904C404.142 150.723 403.948 150.576 403.731 150.474C403.513 150.372 403.277 150.316 403.037 150.309C402.531 150.316 402.046 150.51 401.675 150.853C401.303 151.196 401.072 151.664 401.024 152.167Z" fill="#263238"/>
<path d="M401.477 151.291L404.212 148.663C404.054 148.477 403.86 148.326 403.641 148.219C403.422 148.112 403.183 148.052 402.94 148.042C402.696 148.032 402.454 148.072 402.227 148.161C402 148.25 401.794 148.384 401.622 148.557C401.259 148.911 401.043 149.389 401.016 149.896C400.989 150.402 401.154 150.9 401.477 151.291Z" fill="#263238"/>
<path d="M398.011 162.142C398.617 162.518 399.474 161.314 400.225 160.496C400.976 159.678 403.306 158.927 404.52 161.584C405.733 164.241 403.663 166.87 401.93 167.737C398.82 169.277 397.837 167.034 397.837 167.034L397.577 179.416C393.206 186.156 383.289 185.944 386.861 179.088V175.324C385.392 175.568 383.899 175.646 382.413 175.555C379.986 175.17 378.465 173.177 377.724 170.442C376.549 166.052 376.096 162.508 377.098 153.872C378.195 144.416 388.767 144.311 394.429 148.095C400.09 151.879 398.011 162.142 398.011 162.142Z" fill="#FFA8A7"/>
<path d="M384.839 152.398C387.362 152.148 389.855 151.628 392.388 151.436C392.934 151.369 393.487 151.395 394.024 151.513C395.95 152.042 395.719 154.295 396.027 155.865C396.557 158.58 396.99 163.173 398.011 163.192C398.319 163.192 399.474 161.199 400.225 160.486C400.638 159.872 400.871 159.156 400.899 158.416C401.092 157.299 401.188 156.154 401.275 155.017C401.352 154.055 401.448 153.092 401.448 152.129C401.492 151.041 401.405 149.951 401.188 148.884C400.947 147.976 400.483 147.142 399.84 146.458L399.647 146.246C398.378 144.919 396.838 143.881 395.132 143.203C392.677 142.284 390.102 141.723 387.487 141.538C384.875 141.353 382.275 141.031 379.697 140.575C379.55 140.532 379.393 140.532 379.245 140.575C379.14 140.633 379.052 140.716 378.988 140.817C378.924 140.918 378.887 141.033 378.879 141.152C378.773 141.751 378.839 142.367 379.069 142.929C379.299 143.491 379.684 143.977 380.179 144.33C378.436 144.465 376.433 143.56 374.758 143.097C374.622 143.04 374.477 143.01 374.329 143.01C374.182 143.01 374.036 143.04 373.901 143.097C373.733 143.215 373.613 143.389 373.564 143.588C373.442 144.041 373.426 144.515 373.516 144.975C373.669 146.368 374.187 147.697 375.018 148.826C376.316 150.516 378.149 151.714 380.217 152.225C381.74 152.519 383.299 152.577 384.839 152.398Z" fill="#263238"/>
<path d="M386.871 175.324C386.871 175.324 392.282 174.188 394.169 173.138C395.293 172.523 396.206 171.584 396.788 170.442C396.504 171.589 395.997 172.669 395.295 173.619C393.919 175.468 386.871 176.816 386.871 176.816V175.324Z" fill="#F28F8F"/>
<path d="M388.171 160.727C388.16 161.024 388.268 161.314 388.47 161.532C388.672 161.75 388.952 161.88 389.249 161.892C389.485 161.911 389.721 161.859 389.927 161.742C390.132 161.625 390.298 161.448 390.401 161.236C390.505 161.023 390.542 160.784 390.507 160.549C390.473 160.315 390.368 160.097 390.207 159.923C390.047 159.75 389.837 159.629 389.606 159.576C389.376 159.523 389.134 159.542 388.914 159.629C388.694 159.716 388.505 159.867 388.373 160.063C388.24 160.259 388.169 160.49 388.171 160.727Z" fill="#263238"/>
<path d="M389.904 156.057L392.224 157.396C392.393 157.066 392.431 156.684 392.331 156.327C392.232 155.97 392.001 155.664 391.685 155.47C391.531 155.384 391.361 155.33 391.185 155.313C391.01 155.296 390.833 155.316 390.665 155.371C390.497 155.426 390.343 155.516 390.212 155.634C390.081 155.752 389.976 155.896 389.904 156.057Z" fill="#263238"/>
<path d="M387.352 168.536L384.877 169.499C384.927 169.668 385.011 169.826 385.125 169.962C385.238 170.098 385.378 170.209 385.536 170.288C385.694 170.368 385.867 170.414 386.043 170.424C386.22 170.434 386.396 170.407 386.562 170.346C386.899 170.201 387.168 169.933 387.315 169.597C387.462 169.261 387.475 168.881 387.352 168.536Z" fill="#F28F8F"/>
<path d="M378.215 157.049L380.333 155.354C380.238 155.206 380.113 155.08 379.966 154.984C379.819 154.887 379.654 154.823 379.48 154.795C379.307 154.767 379.129 154.775 378.959 154.82C378.789 154.865 378.631 154.946 378.494 155.056C378.211 155.296 378.026 155.632 377.975 155.999C377.923 156.367 378.009 156.74 378.215 157.049Z" fill="#263238"/>
<path d="M379.149 160.409C379.165 160.62 379.243 160.821 379.373 160.988C379.502 161.156 379.677 161.281 379.877 161.351C380.076 161.42 380.292 161.429 380.497 161.378C380.702 161.327 380.888 161.217 381.031 161.062C381.175 160.907 381.27 160.713 381.306 160.505C381.341 160.297 381.315 160.082 381.231 159.889C381.146 159.695 381.008 159.53 380.831 159.414C380.654 159.298 380.448 159.235 380.237 159.235C380.088 159.24 379.941 159.274 379.806 159.336C379.671 159.398 379.549 159.486 379.448 159.595C379.346 159.704 379.268 159.832 379.217 159.972C379.165 160.112 379.142 160.261 379.149 160.409Z" fill="#263238"/>
<path d="M384.955 159.504L384.829 166.35L380.939 165.464L384.955 159.504Z" fill="#F28F8F"/>
<path d="M292.58 216.842L298.617 213.356L301.004 210.458L294.977 213.943L292.58 216.842Z" fill="url(#paint15_linear_319_2119)" fill-opacity="0.73"/>
<path opacity="0.4" d="M292.58 216.842L298.617 213.356L301.004 210.458L294.977 213.943L292.58 216.842Z" fill="black"/>
<path d="M308.996 226.316L315.033 222.83L320.068 218.372L314.041 221.848L308.996 226.316Z" fill="url(#paint16_linear_319_2119)" fill-opacity="0.73"/>
<path opacity="0.4" d="M308.996 226.316L315.033 222.83L320.068 218.372L314.041 221.848L308.996 226.316Z" fill="black"/>
<path d="M360.277 238.342C361.705 240.255 362.569 242.53 362.771 244.908C361.35 242.992 360.487 240.719 360.277 238.342ZM374.306 238.525C372.274 224.708 364.851 211.045 356.012 205.933C351.766 203.477 347.837 203.391 344.689 205.23L339.008 208.503L338.69 208.696C338.437 208.835 338.193 208.989 337.959 209.158C337.492 209.479 337.054 209.84 336.649 210.236L336.456 210.419C336.283 210.593 336.1 210.795 335.937 210.987C335.773 211.18 335.523 211.478 335.33 211.738C334.921 212.276 334.551 212.843 334.223 213.433C334.049 213.732 333.886 214.049 333.732 214.396L284.116 185.761L278.089 189.237V193.088L278.599 193.377L279.081 193.656V194.427L278.118 194.995V197.228L285.406 212.634L292.609 216.803L295.006 213.914L301.361 217.718L305.01 223.967L309.035 226.287L314.07 221.819L320.252 225.392L322.332 233.971L332.721 239.979C333.234 242.162 333.877 244.313 334.646 246.42C334.714 246.632 334.8 246.853 334.887 247.094C338.334 256.145 343.813 263.896 349.994 267.468C350.735 267.907 351.511 268.284 352.315 268.594C352.739 268.763 353.173 268.908 353.614 269.028C354 269.13 354.385 269.217 354.77 269.288C355.986 269.509 357.232 269.509 358.448 269.288L358.949 269.162C359.188 269.114 359.423 269.047 359.651 268.96L360.191 268.748C360.381 268.68 360.565 268.593 360.739 268.489C360.917 268.412 361.091 268.325 361.259 268.229L361.51 268.074C361.555 268.06 361.597 268.037 361.635 268.007C363.012 267.218 366.401 265.253 367.325 264.733C371.908 262.076 374.874 255.355 374.874 245.852C374.866 243.399 374.676 240.95 374.306 238.525Z" fill="url(#paint17_linear_319_2119)" fill-opacity="0.73"/>
<path d="M358.515 250.002C356.127 248.625 354.201 244.543 354.201 240.884C354.201 237.225 356.127 235.367 358.515 236.734C360.902 238.101 362.819 242.193 362.819 245.862C362.819 249.53 360.893 251.379 358.515 250.002ZM368.268 242.001C366.246 228.193 358.823 214.521 349.974 209.418C345.872 207.049 342.079 206.876 338.998 208.503L338.68 208.696C338.427 208.835 338.183 208.989 337.948 209.158C337.482 209.479 337.044 209.84 336.639 210.236L336.446 210.419C336.273 210.593 336.09 210.795 335.926 210.987C335.763 211.18 335.512 211.479 335.32 211.738C334.911 212.276 334.541 212.843 334.212 213.433C334.039 213.732 333.875 214.049 333.721 214.396C332.824 216.257 332.176 218.229 331.796 220.26L278.079 189.237V193.088L278.589 193.377L279.07 193.656V194.427L278.107 194.995V197.228L285.396 212.634L292.598 216.803L294.996 213.915L301.351 217.718L305 223.967L309.024 226.287L314.06 221.819L320.242 225.392L322.321 233.971L332.72 239.979C333.234 242.162 333.877 244.313 334.646 246.42C334.713 246.632 334.8 246.853 334.886 247.094C338.333 256.145 343.812 263.896 349.993 267.468C350.734 267.907 351.51 268.284 352.314 268.594C352.739 268.763 353.173 268.908 353.614 269.028C353.999 269.13 354.384 269.217 354.769 269.288C355.985 269.509 357.231 269.509 358.447 269.288L358.948 269.163C359.187 269.114 359.422 269.047 359.651 268.96L360.19 268.748C360.381 268.68 360.565 268.593 360.739 268.489C360.917 268.412 361.09 268.325 361.259 268.229L361.509 268.074C361.554 268.06 361.597 268.037 361.634 268.007C366.025 265.234 368.846 258.61 368.846 249.338C368.83 246.881 368.637 244.429 368.268 242.001Z" fill="url(#paint18_linear_319_2119)" fill-opacity="0.73"/>
<path opacity="0.4" d="M362.819 245.852C362.819 249.521 360.893 251.379 358.515 250.002C356.136 248.625 354.201 244.552 354.201 240.884C354.201 237.215 356.127 235.357 358.515 236.734C359.202 237.152 359.801 237.702 360.277 238.352C360.484 240.729 361.347 243.003 362.77 244.918C362.806 245.228 362.822 245.54 362.819 245.852Z" fill="black"/>
<path opacity="0.4" d="M374.854 245.842C374.854 255.346 371.889 262.066 367.306 264.724C366.343 265.244 362.992 267.208 361.615 267.997C366.006 265.224 368.827 258.6 368.827 249.328C368.817 246.875 368.63 244.427 368.269 242.001C366.247 228.194 358.823 214.521 349.974 209.418C345.873 207.049 342.079 206.876 338.998 208.503L344.679 205.23C347.827 203.391 351.756 203.477 356.002 205.933C364.85 211.045 372.274 224.708 374.296 238.525C374.663 240.947 374.849 243.393 374.854 245.842Z" fill="white"/>
<path d="M368.827 249.309C368.827 258.581 366.006 265.205 361.615 267.978C362.992 267.189 366.381 265.224 367.306 264.705C371.889 262.047 374.854 255.326 374.854 245.823C374.854 245.477 374.854 245.12 374.854 244.764L368.827 248.25C368.817 248.625 368.827 248.972 368.827 249.309Z" fill="url(#paint19_linear_319_2119)" fill-opacity="0.73"/>
<path opacity="0.1" d="M368.827 249.309C368.827 258.581 366.006 265.205 361.615 267.978C362.992 267.189 366.381 265.224 367.306 264.705C371.889 262.047 374.854 255.326 374.854 245.823C374.854 245.477 374.854 245.12 374.854 244.764L368.827 248.25C368.817 248.625 368.827 248.972 368.827 249.309Z" fill="black"/>
<path opacity="0.15" d="M332.027 224.198V226.152L278.089 195.014L279.081 194.436V193.627L332.027 224.198Z" fill="black"/>
<path opacity="0.15" d="M332.027 225.007V226.152L278.089 195.014L279.081 194.436V194.427L332.027 225.007Z" fill="black"/>
<path opacity="0.15" d="M355.482 264.714C353.438 264.661 351.444 264.066 349.705 262.991C340.914 257.916 333.76 242.819 333.76 229.339C333.76 221.473 336.138 215.599 340.288 213.202C343.177 211.527 346.595 211.738 350.186 213.809C358.968 218.883 366.121 234.028 366.121 247.508C366.121 255.365 363.743 261.248 359.593 263.636C358.342 264.351 356.923 264.723 355.482 264.714ZM344.457 213.058C343.174 213.05 341.912 213.383 340.799 214.02C337.015 216.206 334.752 221.935 334.752 229.33C334.752 242.501 341.684 257.252 350.215 262.143C353.479 264.069 356.57 264.242 359.141 262.76C362.925 260.574 365.188 254.855 365.188 247.46C365.188 234.279 358.255 219.538 349.734 214.637C348.141 213.668 346.321 213.136 344.457 213.096V213.058Z" fill="black"/>
<path opacity="0.4" d="M333.683 214.377C332.786 216.238 332.138 218.209 331.758 220.24L278.041 189.218L284.068 185.742L333.683 214.377Z" fill="white"/>
<path d="M403.499 217.39C406.31 212.066 409.526 200.107 411.125 194.07C413.397 185.501 409.719 180.109 405.54 179.888C402.931 180.292 394.333 211.556 394.333 211.556C393.37 212.316 380.304 218.95 376.106 220.616C375.355 220.9 374.527 220.9 373.776 220.616C371.764 219.884 370.387 220.019 368.413 219.826C366.863 219.672 366.083 219.123 365.881 219.451C365.697 219.857 365.673 220.318 365.814 220.741C365.955 221.164 366.251 221.518 366.641 221.733C367.491 222.228 368.396 222.622 369.337 222.907C367.65 223.419 365.891 223.657 364.128 223.61C360.084 223.524 358.63 225.276 361.769 229.387C363.695 231.949 366.882 232.757 373.997 230.302C376.039 229.59 378.812 228.213 381.402 227.279C386.736 225.353 388.142 225.122 392.205 223.745C398.126 221.742 402.247 219.759 403.499 217.39Z" fill="#FFA8A7"/>
<path d="M403.971 179.079C406.426 179.416 408.785 179.965 410.239 181.967C411.693 183.97 412.858 186.782 411.433 194.436C410.342 199.819 408.881 205.121 407.061 210.304C407.061 210.304 401.342 212.749 395.267 206.549L399.445 190.392C399.445 190.392 400.119 179.888 403.971 179.079Z" fill="#455A64"/>
<defs>
<linearGradient id="paint0_linear_319_2119" x1="137.09" y1="267.736" x2="244.843" y2="267.736" gradientUnits="userSpaceOnUse">
<stop stop-color="#FF8200"/>
<stop offset="1" stop-color="#FF002B"/>
</linearGradient>
<linearGradient id="paint1_linear_319_2119" x1="141.114" y1="268.756" x2="244.457" y2="268.756" gradientUnits="userSpaceOnUse">
<stop stop-color="#FF8200"/>
<stop offset="1" stop-color="#FF002B"/>
</linearGradient>
<linearGradient id="paint2_linear_319_2119" x1="183.19" y1="301.201" x2="239.731" y2="301.201" gradientUnits="userSpaceOnUse">
<stop stop-color="#FF8200"/>
<stop offset="1" stop-color="#FF002B"/>
</linearGradient>
<linearGradient id="paint3_linear_319_2119" x1="42.9043" y1="165.667" x2="313.335" y2="165.667" gradientUnits="userSpaceOnUse">
<stop stop-color="#FF8200"/>
<stop offset="1" stop-color="#FF002B"/>
</linearGradient>
<linearGradient id="paint4_linear_319_2119" x1="50.7129" y1="167.948" x2="312.5" y2="167.948" gradientUnits="userSpaceOnUse">
<stop stop-color="#FF8200"/>
<stop offset="1" stop-color="#FF002B"/>
</linearGradient>
<linearGradient id="paint5_linear_319_2119" x1="42.9043" y1="323.433" x2="55.5497" y2="323.433" gradientUnits="userSpaceOnUse">
<stop stop-color="#FF8200"/>
<stop offset="1" stop-color="#FF002B"/>
</linearGradient>
<linearGradient id="paint6_linear_319_2119" x1="50.7034" y1="257.431" x2="312.49" y2="257.431" gradientUnits="userSpaceOnUse">
<stop stop-color="#FF8200"/>
<stop offset="1" stop-color="#FF002B"/>
</linearGradient>
<linearGradient id="paint7_linear_319_2119" x1="79.0923" y1="170.332" x2="327.923" y2="170.332" gradientUnits="userSpaceOnUse">
<stop stop-color="#FF8200"/>
<stop offset="1" stop-color="#FF002B"/>
</linearGradient>
<linearGradient id="paint8_linear_319_2119" x1="82.843" y1="101.311" x2="327.545" y2="101.311" gradientUnits="userSpaceOnUse">
<stop stop-color="#FF8200"/>
<stop offset="1" stop-color="#FF002B"/>
</linearGradient>
<linearGradient id="paint9_linear_319_2119" x1="127.298" y1="205.025" x2="283.664" y2="205.025" gradientUnits="userSpaceOnUse">
<stop stop-color="#FF8200"/>
<stop offset="1" stop-color="#FF002B"/>
</linearGradient>
<linearGradient id="paint10_linear_319_2119" x1="135.357" y1="207.352" x2="282.79" y2="207.352" gradientUnits="userSpaceOnUse">
<stop stop-color="#FF8200"/>
<stop offset="1" stop-color="#FF002B"/>
</linearGradient>
<linearGradient id="paint11_linear_319_2119" x1="155.586" y1="208.956" x2="217.807" y2="208.956" gradientUnits="userSpaceOnUse">
<stop stop-color="#FF8200"/>
<stop offset="1" stop-color="#FF002B"/>
</linearGradient>
<linearGradient id="paint12_linear_319_2119" x1="174.275" y1="146.35" x2="220.545" y2="146.35" gradientUnits="userSpaceOnUse">
<stop stop-color="#FF8200"/>
<stop offset="1" stop-color="#FF002B"/>
</linearGradient>
<linearGradient id="paint13_linear_319_2119" x1="180.553" y1="148.163" x2="219.837" y2="148.163" gradientUnits="userSpaceOnUse">
<stop stop-color="#FF8200"/>
<stop offset="1" stop-color="#FF002B"/>
</linearGradient>
<linearGradient id="paint14_linear_319_2119" x1="188.467" y1="156.225" x2="210.153" y2="156.225" gradientUnits="userSpaceOnUse">
<stop stop-color="#FF8200"/>
<stop offset="1" stop-color="#FF002B"/>
</linearGradient>
<linearGradient id="paint15_linear_319_2119" x1="292.58" y1="213.65" x2="301.941" y2="213.65" gradientUnits="userSpaceOnUse">
<stop stop-color="#FF8200"/>
<stop offset="1" stop-color="#FF002B"/>
</linearGradient>
<linearGradient id="paint16_linear_319_2119" x1="308.996" y1="222.344" x2="321.299" y2="222.344" gradientUnits="userSpaceOnUse">
<stop stop-color="#FF8200"/>
<stop offset="1" stop-color="#FF002B"/>
</linearGradient>
<linearGradient id="paint17_linear_319_2119" x1="278.089" y1="227.607" x2="385.628" y2="227.607" gradientUnits="userSpaceOnUse">
<stop stop-color="#FF8200"/>
<stop offset="1" stop-color="#FF002B"/>
</linearGradient>
<linearGradient id="paint18_linear_319_2119" x1="278.079" y1="229.345" x2="378.931" y2="229.345" gradientUnits="userSpaceOnUse">
<stop stop-color="#FF8200"/>
<stop offset="1" stop-color="#FF002B"/>
</linearGradient>
<linearGradient id="paint19_linear_319_2119" x1="361.615" y1="256.371" x2="376.325" y2="256.371" gradientUnits="userSpaceOnUse">
<stop stop-color="#FF8200"/>
<stop offset="1" stop-color="#FF002B"/>
</linearGradient>
</defs>
</svg>
