<svg width="767" height="744" viewBox="0 0 767 744" fill="none" xmlns="http://www.w3.org/2000/svg">
<path d="M383.5 743.821C595.301 743.821 767 644.69 767 522.406C767 400.122 595.301 300.991 383.5 300.991C171.699 300.991 0 400.122 0 522.406C0 644.69 171.699 743.821 383.5 743.821Z" fill="#F0F0F0"/>
<path d="M603.743 599.233C578.595 584.714 578.595 561.178 603.743 546.659C628.89 532.14 669.664 532.14 694.812 546.659C719.96 561.178 719.96 584.714 694.812 599.233C669.664 613.752 628.89 613.752 603.743 599.233Z" fill="#E0E0E0"/>
<path d="M92.2574 601.251L26.1081 563.066C22.3806 560.917 22.3806 557.418 26.1081 555.269L410.878 333.122C412.969 332.062 415.28 331.51 417.624 331.51C419.969 331.51 422.28 332.062 424.371 333.122L490.537 371.308C494.264 373.456 494.264 376.956 490.537 379.104L105.767 601.251C103.673 602.311 101.359 602.863 99.0123 602.863C96.6654 602.863 94.3514 602.311 92.2574 601.251Z" fill="#E0E0E0"/>
<path d="M330.03 533.181L386.902 500.302C392.762 496.916 395.691 492.489 395.691 488.046C395.691 483.602 395.691 480.135 395.691 480.135L336.704 446.865C335.056 445.799 333.684 444.359 332.7 442.662C331.715 440.964 331.146 439.058 331.04 437.099V366.962L231.75 424.354V494.459C231.865 496.416 232.437 498.319 233.421 500.016C234.405 501.712 235.773 503.153 237.415 504.225L287.613 533.132C299.3 539.953 318.311 539.953 330.03 533.181Z" fill="#BA68C8"/>
<g opacity="0.6">
<path d="M330.03 533.181L386.902 500.302C392.762 496.916 395.691 492.489 395.691 488.046C395.691 483.602 395.691 480.135 395.691 480.135L336.704 446.865C335.056 445.799 333.684 444.359 332.7 442.662C331.715 440.964 331.146 439.058 331.04 437.099V366.962L231.75 424.354V494.459C231.865 496.416 232.437 498.319 233.421 500.016C234.405 501.712 235.773 503.153 237.415 504.225L287.613 533.132C299.3 539.953 318.311 539.953 330.03 533.181Z" fill="black"/>
</g>
<path opacity="0.3" d="M255.563 506.878V514.756L237.366 504.257C235.724 503.187 234.357 501.745 233.376 500.049C232.395 498.352 231.827 496.448 231.718 494.491V424.354L250.632 413.432C251.022 418.234 251.445 423.198 251.852 428.081L238.554 435.732V490.503C238.659 492.463 239.228 494.37 240.212 496.067C241.197 497.765 242.57 499.205 244.218 500.27L255.563 506.878Z" fill="black"/>
<path d="M238.554 490.52C238.666 492.478 239.237 494.382 240.221 496.079C241.205 497.775 242.574 499.216 244.219 500.286L287.548 525.254C299.267 532.009 318.278 532.026 330.014 525.254L386.983 492.375C398.719 485.604 398.719 474.633 386.983 467.862L343.622 442.893C341.981 441.821 340.616 440.379 339.635 438.683C338.654 436.986 338.085 435.084 337.973 433.127V378.339L238.684 435.732L238.554 490.52Z" fill="#BA68C8"/>
<path opacity="0.3" d="M238.554 490.52C238.666 492.478 239.237 494.382 240.221 496.079C241.205 497.775 242.574 499.216 244.219 500.286L287.548 525.254C299.267 532.009 318.278 532.026 330.014 525.254L386.983 492.375C398.719 485.604 398.719 474.633 386.983 467.862L343.622 442.893C341.981 441.821 340.616 440.379 339.635 438.683C338.654 436.986 338.085 435.084 337.973 433.127V378.339L238.684 435.732L238.554 490.52Z" fill="black"/>
<path opacity="0.5" d="M355.097 449.583L343.556 442.926C341.916 441.854 340.551 440.412 339.57 438.715C338.589 437.019 338.02 435.116 337.908 433.16V378.339L238.619 435.732V490.52C238.731 492.478 239.302 494.382 240.286 496.079C241.27 497.775 242.639 499.216 244.284 500.286L255.677 506.796L355.097 449.583Z" fill="black"/>
<path d="M395.708 480.151V488.062C395.708 492.505 392.762 496.916 386.918 500.318L329.949 533.181C323.715 536.509 316.751 538.237 309.684 538.211V530.333C316.751 530.359 323.715 528.631 329.949 525.303L386.918 492.408C392.762 489.038 395.708 484.595 395.708 480.151Z" fill="#BA68C8"/>
<path opacity="0.5" d="M395.708 480.151V488.062C395.708 492.505 392.762 496.916 386.918 500.318L329.949 533.181C323.715 536.509 316.751 538.237 309.684 538.211V530.333C316.751 530.359 323.715 528.631 329.949 525.303L386.918 492.408C392.762 489.038 395.708 484.595 395.708 480.151Z" fill="black"/>
<path d="M79.0405 558.606C81.187 559.643 83.547 560.161 85.9303 560.118C88.3137 560.076 90.6537 559.474 92.762 558.362L476.897 336.589C478.956 335.245 480.671 333.436 481.901 331.306C483.131 329.177 483.842 326.788 483.977 324.332V13.5739C483.904 11.1851 483.267 8.84739 482.118 6.7514C480.97 4.65542 479.342 2.86043 477.369 1.51271C475.225 0.474825 472.866 -0.04252 470.485 0.00273267C468.104 0.0479853 465.766 0.654558 463.664 1.77314L79.5288 223.611C77.4763 224.963 75.7724 226.781 74.556 228.916C73.3397 231.052 72.6454 233.445 72.5298 235.9V546.61C72.6024 548.979 73.2292 551.298 74.3598 553.381C75.4905 555.465 77.0936 557.254 79.0405 558.606Z" fill="#BA68C8"/>
<path d="M92.8107 558.345L476.945 336.573C479.008 335.232 480.724 333.423 481.955 331.293C483.185 329.163 483.895 326.772 484.026 324.316V13.5739C484.026 9.06518 480.852 7.22589 476.945 9.48838L92.8107 231.261C90.75 232.604 89.035 234.413 87.8048 236.543C86.5745 238.672 85.8638 241.062 85.7302 243.518V554.26C85.7302 558.769 88.9042 560.608 92.8107 558.345Z" fill="#BA68C8"/>
<path opacity="0.5" d="M92.8107 558.345L476.945 336.573C479.008 335.232 480.724 333.423 481.955 331.293C483.185 329.163 483.895 326.772 484.026 324.316V13.5739C484.026 9.06518 480.852 7.22589 476.945 9.48838L92.8107 231.261C90.75 232.604 89.035 234.413 87.8048 236.543C86.5745 238.672 85.8638 241.062 85.7302 243.518V554.26C85.7302 558.769 88.9042 560.608 92.8107 558.345Z" fill="black"/>
<path d="M91.7691 566.419C89.7547 567.298 87.5737 567.73 85.3762 567.685C83.1788 567.64 81.0172 567.119 79.0405 566.158C77.0892 564.803 75.4835 563.009 74.3526 560.919C73.2217 558.83 72.5974 556.504 72.5298 554.13V525.84L85.7955 533.523V561.812C85.7141 565.93 88.3347 567.802 91.7691 566.419Z" fill="#BA68C8"/>
<path opacity="0.5" d="M91.7691 566.419C89.7547 567.298 87.5737 567.73 85.3762 567.685C83.1788 567.64 81.0172 567.119 79.0405 566.158C77.0892 564.803 75.4835 563.009 74.3526 560.919C73.2217 558.83 72.5974 556.504 72.5298 554.13V525.84L85.7955 533.523V561.812C85.7141 565.93 88.3347 567.802 91.7691 566.419Z" fill="black"/>
<path d="M85.7141 533.523V561.812C85.7141 566.321 88.9695 568.144 92.7946 565.898L476.929 344.125C478.981 342.788 480.69 340.989 481.919 338.871C483.149 336.754 483.865 334.378 484.01 331.934V303.514L85.7141 533.523Z" fill="#BA68C8"/>
<path opacity="0.3" d="M85.7302 533.458V561.812C85.7302 566.321 88.9856 568.144 92.8107 565.898L476.945 344.125C478.994 342.786 480.7 340.986 481.926 338.869C483.153 336.752 483.867 334.377 484.01 331.934V303.514L85.7302 533.458Z" fill="black"/>
<path d="M98.9961 497.958V247.929C99.0719 246.456 99.4947 245.021 100.23 243.743C100.966 242.464 101.993 241.378 103.228 240.572L466.431 30.8111C468.775 29.4601 470.679 30.5507 470.679 33.2527V283.412C470.6 284.887 470.174 286.321 469.436 287.6C468.698 288.878 467.668 289.964 466.431 290.769L103.244 500.481C100.9 501.832 98.9961 500.725 98.9961 497.958Z" fill="#BA68C8"/>
<path d="M98.9961 497.958V247.929C99.0719 246.456 99.4947 245.021 100.23 243.743C100.966 242.464 101.993 241.378 103.228 240.572L466.431 30.8111C468.775 29.4601 470.679 30.5507 470.679 33.2527V283.412C470.6 284.887 470.174 286.321 469.436 287.6C468.698 288.878 467.668 289.964 466.431 290.769L103.244 500.481C100.9 501.832 98.9961 500.725 98.9961 497.958Z" fill="#263238"/>
<path d="M284.862 427.528C282.929 428.785 281.319 430.482 280.165 432.478C279.011 434.475 278.345 436.716 278.221 439.019C278.221 443.251 281.2 444.977 284.862 442.861C286.797 441.602 288.408 439.903 289.562 437.903C290.716 435.903 291.381 433.659 291.503 431.353C291.503 427.121 288.524 425.412 284.862 427.528Z" fill="#BA68C8"/>
<path opacity="0.7" d="M87.8138 236.519C86.5523 238.639 85.8313 241.037 85.7141 243.501V533.523L72.5298 525.84V235.9C72.6152 233.427 73.3325 231.018 74.6132 228.901L87.8138 236.519Z" fill="black"/>
<path opacity="0.3" d="M483.945 12.402C483.44 8.75594 480.494 7.5189 476.929 9.48841L92.7946 231.261C90.7118 232.564 88.9928 234.372 87.7976 236.519L74.5156 228.852C75.7188 226.707 77.4429 224.898 79.5289 223.595L463.664 1.83826C465.769 0.719524 468.109 0.112922 470.493 0.0676734C472.877 0.0224247 475.238 0.539804 477.385 1.57783C479.19 2.80732 480.709 4.40994 481.841 6.27734C482.972 8.14473 483.69 10.2333 483.945 12.402Z" fill="black"/>
<path d="M504.665 50.6527C504.095 50.3664 503.457 50.2409 502.82 50.2896C502.184 50.3384 501.572 50.5596 501.052 50.9294L138.598 260.315C137.168 261.262 135.98 262.531 135.132 264.021C134.284 265.512 133.798 267.181 133.715 268.893V517.393C133.664 518.232 133.831 519.069 134.198 519.825C134.566 520.581 135.123 521.229 135.814 521.706C136.612 522.146 140.877 524.62 142.146 525.303C142.595 525.532 143.097 525.638 143.601 525.609C144.104 525.58 144.591 525.419 145.011 525.141L507.383 315.755C508.814 314.808 510.001 313.539 510.849 312.049C511.698 310.558 512.183 308.889 512.267 307.177V57.3914C512.339 56.7602 512.235 56.1212 511.964 55.5461C511.694 54.9711 511.269 54.4828 510.737 54.136C509.923 53.5988 505.577 51.1899 504.665 50.6527Z" fill="#BA68C8"/>
<path d="M144.929 263.831L507.4 54.5266C510.134 52.8989 512.283 54.2336 512.283 57.3914V307.177C512.199 308.889 511.714 310.558 510.866 312.049C510.017 313.539 508.83 314.808 507.4 315.755L144.929 525.141C142.195 526.768 140.046 524.148 140.046 520.99V272.409C140.132 270.697 140.619 269.029 141.467 267.539C142.315 266.049 143.501 264.779 144.929 263.831Z" fill="#FAFAFA"/>
<path d="M509.613 55.4707C510.574 55.4707 510.72 56.6752 510.72 57.3914V307.177C510.632 308.611 510.212 310.005 509.491 311.248C508.771 312.491 507.77 313.549 506.57 314.339L144.148 523.725C143.905 523.882 143.624 523.972 143.334 523.985C142.423 523.985 141.707 522.585 141.707 520.99V272.409C141.785 270.975 142.193 269.579 142.899 268.329C143.605 267.078 144.589 266.007 145.776 265.199L508.214 55.9265C508.633 55.6559 509.115 55.4988 509.613 55.4707ZM509.613 53.843C508.829 53.8764 508.066 54.1119 507.4 54.5266L144.929 263.831C143.501 264.779 142.315 266.049 141.467 267.539C140.619 269.029 140.132 270.697 140.046 272.409V520.99C140.046 523.497 141.446 525.613 143.302 525.613C143.876 525.602 144.438 525.439 144.929 525.141L507.383 315.755C508.814 314.809 510.001 313.539 510.849 312.049C511.698 310.559 512.183 308.889 512.266 307.177V57.3914C512.266 55.1452 511.16 53.843 509.532 53.843H509.613Z" fill="#E0E0E0"/>
<path d="M135.717 521.706C136.254 521.983 140.112 524.18 141.804 525.157C141.197 524.653 140.715 524.013 140.399 523.29C140.082 522.566 139.939 521.779 139.981 520.99V288.637L133.633 284.926V517.393C133.581 518.23 133.745 519.067 134.11 519.823C134.475 520.578 135.028 521.227 135.717 521.706Z" fill="#F0F0F0"/>
<path d="M512.348 57.3425C512.348 54.2173 510.118 52.9477 507.465 54.5266L144.929 263.831C143.501 264.779 142.315 266.049 141.467 267.539C140.619 269.029 140.132 270.697 140.046 272.409V288.686L512.348 73.6194V57.3425Z" fill="#BA68C8"/>
<g opacity="0.4">
<path d="M507.4 54.5266L144.929 263.815C143.475 264.732 142.276 266.004 141.446 267.51L135.147 263.848C135.976 262.394 137.164 261.178 138.598 260.315L501.052 50.9294C501.57 50.557 502.181 50.3329 502.818 50.2813C503.454 50.2297 504.093 50.3524 504.665 50.6364C505.544 51.1899 509.662 53.5175 510.72 54.0871C510.173 53.8842 509.584 53.8181 509.005 53.8947C508.427 53.9713 507.875 54.1883 507.4 54.5266Z" fill="white"/>
</g>
<path opacity="0.15" d="M133.633 284.942V268.812C133.7 267.054 134.222 265.344 135.147 263.848L141.462 267.494C140.55 268.964 140.04 270.647 139.981 272.377V288.654L133.633 284.942Z" fill="black"/>
<path d="M435.912 244.722L218.827 370.054C217.771 370.739 216.892 371.664 216.261 372.753C215.63 373.842 215.266 375.064 215.197 376.321V438.564C215.266 439.82 215.63 441.043 216.261 442.132C216.892 443.221 217.771 444.145 218.827 444.83L225.158 448.476C226.284 449.046 227.527 449.342 228.788 449.342C230.049 449.342 231.292 449.046 232.418 448.476L449.47 323.144C450.526 322.456 451.405 321.528 452.036 320.437C452.666 319.345 453.031 318.12 453.1 316.861V254.602C453.031 253.346 452.666 252.123 452.036 251.034C451.405 249.945 450.526 249.021 449.47 248.336L443.122 244.69C442.002 244.13 440.766 243.841 439.513 243.846C438.26 243.852 437.027 244.152 435.912 244.722Z" fill="#BA68C8"/>
<path opacity="0.5" d="M453.1 254.049C452.84 252.177 451.326 251.493 449.503 252.551L232.418 377.884C231.347 378.549 230.467 379.48 229.862 380.585L216.271 372.74C216.88 371.651 217.754 370.733 218.81 370.071L435.912 244.738C437.034 244.168 438.275 243.871 439.533 243.871C440.792 243.871 442.033 244.168 443.155 244.738L449.503 248.384C450.471 249.019 451.292 249.852 451.912 250.829C452.533 251.805 452.938 252.903 453.1 254.049Z" fill="white"/>
<path d="M231.799 448.786C230.736 449.205 229.597 449.395 228.456 449.344C227.314 449.294 226.196 449.004 225.175 448.493L218.827 444.847C217.773 444.16 216.895 443.235 216.265 442.146C215.634 441.058 215.268 439.836 215.197 438.58V376.337C215.246 375.067 215.615 373.829 216.271 372.74L229.862 380.585C229.202 381.661 228.832 382.889 228.788 384.15V446.409C228.788 448.476 230.09 449.437 231.799 448.786Z" fill="#263238"/>
<path d="M232.418 377.883L449.503 252.551C451.505 251.396 453.132 252.323 453.132 254.635V316.894C453.063 318.153 452.699 319.378 452.068 320.469C451.438 321.561 450.559 322.488 449.503 323.177L232.45 448.509C230.448 449.665 228.821 448.721 228.821 446.409V384.166C228.886 382.91 229.245 381.688 229.87 380.596C230.495 379.505 231.368 378.576 232.418 377.883Z" fill="#BA68C8"/>
<path d="M378.357 277.96L218.843 370.071C217.786 370.733 216.913 371.651 216.304 372.74L229.895 380.585C230.499 379.48 231.38 378.549 232.45 377.883L391.964 285.789L378.357 277.96Z" fill="#455A64"/>
<path d="M391.931 285.789L232.418 377.884C231.362 378.572 230.483 379.5 229.852 380.591C229.222 381.683 228.857 382.908 228.788 384.166V446.393C228.788 448.704 230.416 449.648 232.418 448.493L391.931 356.398V285.789Z" fill="#37474F"/>
<path d="M269.204 370.298L351.516 322.786C354.918 320.817 357.685 322.217 357.685 325.911C357.533 327.987 356.893 329.997 355.818 331.778C354.744 333.56 353.264 335.063 351.5 336.166L269.204 383.694C265.802 385.664 263.018 384.264 263.018 380.569C263.172 378.492 263.812 376.48 264.886 374.696C265.961 372.912 267.439 371.406 269.204 370.298Z" fill="#BA68C8"/>
<path d="M286.066 386.038C286.082 386.021 286.101 386.007 286.122 385.998C286.143 385.988 286.165 385.983 286.189 385.983C286.212 385.983 286.234 385.988 286.256 385.998C286.277 386.007 286.295 386.021 286.311 386.038C286.383 386.149 286.418 386.28 286.408 386.413V395.674C286.409 396.569 286.333 397.462 286.18 398.344C286.046 399.149 285.816 399.936 285.497 400.687C285.205 401.376 284.822 402.022 284.357 402.608C283.9 403.152 283.348 403.609 282.73 403.959C282.245 404.275 281.68 404.444 281.102 404.447C280.881 404.43 280.666 404.367 280.47 404.264C280.274 404.16 280.102 404.018 279.963 403.845C279.605 403.366 279.371 402.808 279.279 402.217C279.123 401.43 279.052 400.628 279.067 399.825V390.547C279.067 390.385 279.1 390.224 279.165 390.075C279.205 389.941 279.292 389.825 279.409 389.749L280.435 389.147C280.468 389.116 280.511 389.099 280.557 389.099C280.602 389.099 280.646 389.116 280.679 389.147C280.754 389.257 280.789 389.389 280.776 389.522V398.669C280.764 399.172 280.813 399.675 280.923 400.167C280.968 400.481 281.104 400.775 281.314 401.013C281.387 401.1 281.479 401.169 281.584 401.214C281.688 401.26 281.802 401.28 281.916 401.273C282.194 401.255 282.463 401.165 282.697 401.013C282.987 400.84 283.25 400.626 283.478 400.378C283.733 400.086 283.941 399.756 284.097 399.402C284.281 398.984 284.417 398.547 284.504 398.099C284.599 397.562 284.642 397.017 284.634 396.472V387.308C284.639 387.144 284.678 386.984 284.748 386.836C284.788 386.702 284.875 386.586 284.992 386.51L286.066 386.038Z" fill="#FAFAFA"/>
<path d="M292.447 394.795C292.455 394.676 292.427 394.556 292.366 394.453C292.327 394.411 292.279 394.378 292.225 394.359C292.171 394.339 292.113 394.332 292.056 394.339C291.856 394.312 291.654 394.312 291.454 394.339L290.51 394.518C290.205 394.594 289.887 394.594 289.582 394.518C289.343 394.442 289.137 394.287 288.996 394.079C288.837 393.815 288.732 393.521 288.687 393.216C288.528 392.344 288.528 391.451 288.687 390.579C288.809 390.08 288.984 389.594 289.208 389.131C289.431 388.668 289.704 388.232 290.022 387.829C290.33 387.444 290.705 387.119 291.129 386.868C291.471 386.66 291.854 386.526 292.252 386.478C292.54 386.448 292.831 386.51 293.082 386.657C293.32 386.802 293.508 387.018 293.619 387.275C293.75 387.579 293.822 387.905 293.83 388.236C293.847 388.399 293.813 388.564 293.733 388.708C293.693 388.842 293.606 388.957 293.489 389.033L292.512 389.603C292.468 389.628 292.417 389.642 292.366 389.642C292.314 389.642 292.264 389.628 292.219 389.603L292.007 389.44C291.923 389.374 291.821 389.334 291.714 389.326C291.505 389.349 291.304 389.422 291.129 389.538C290.873 389.692 290.647 389.89 290.461 390.124C290.264 390.38 290.161 390.696 290.168 391.019C290.145 391.143 290.145 391.27 290.168 391.393C290.199 391.439 290.24 391.478 290.288 391.506C290.336 391.534 290.39 391.551 290.445 391.556C290.623 391.586 290.804 391.586 290.982 391.556L291.894 391.393C292.659 391.247 293.179 391.393 293.521 391.816C293.88 392.42 294.045 393.118 293.993 393.818C293.989 394.302 293.923 394.784 293.798 395.251C293.669 395.758 293.484 396.25 293.245 396.716C293.005 397.198 292.704 397.646 292.349 398.05C292.012 398.446 291.61 398.782 291.161 399.043C290.803 399.272 290.396 399.412 289.973 399.45C289.667 399.461 289.365 399.376 289.11 399.206C288.859 399.034 288.666 398.79 288.557 398.506C288.425 398.198 288.359 397.865 288.361 397.53C288.346 397.361 288.38 397.191 288.459 397.041C288.499 396.907 288.586 396.792 288.703 396.716L289.68 396.146C289.81 396.146 289.908 396.065 289.973 396.146L290.184 396.374C290.228 396.422 290.28 396.462 290.339 396.49C290.398 396.518 290.461 396.534 290.526 396.537C290.755 396.538 290.979 396.464 291.161 396.325C291.455 396.158 291.719 395.944 291.942 395.69C292.053 395.556 292.146 395.409 292.219 395.251C292.334 395.122 292.413 394.965 292.447 394.795Z" fill="#FAFAFA"/>
<path d="M295.768 390.384C295.765 389.539 295.835 388.694 295.979 387.861C296.115 387.077 296.328 386.309 296.614 385.566C296.853 384.901 297.182 384.271 297.591 383.694C297.932 383.199 298.376 382.782 298.893 382.474C299.27 382.22 299.73 382.121 300.179 382.197C300.576 382.289 300.925 382.527 301.155 382.864C301.462 383.306 301.677 383.804 301.79 384.329C301.946 385.013 302.023 385.712 302.018 386.413V387.422C302.023 387.592 301.984 387.76 301.904 387.91C301.864 388.044 301.778 388.16 301.66 388.236L297.428 390.693C297.418 390.98 297.456 391.266 297.542 391.54C297.605 391.724 297.717 391.888 297.867 392.012C298.001 392.118 298.169 392.17 298.339 392.158C298.536 392.135 298.725 392.068 298.893 391.963C299.139 391.829 299.359 391.653 299.544 391.442C299.71 391.255 299.853 391.047 299.967 390.824C300.037 390.695 300.113 390.57 300.195 390.449C300.265 390.367 300.347 390.295 300.439 390.238L301.448 389.652C301.483 389.624 301.526 389.609 301.57 389.609C301.615 389.609 301.658 389.624 301.692 389.652C301.735 389.703 301.766 389.763 301.783 389.828C301.8 389.893 301.802 389.96 301.79 390.026C301.772 390.343 301.706 390.656 301.595 390.954C301.454 391.405 301.269 391.842 301.041 392.256C300.787 392.733 300.481 393.18 300.13 393.591C299.78 394.01 299.361 394.368 298.893 394.649C298.508 394.901 298.047 395.01 297.591 394.958C297.19 394.862 296.841 394.618 296.614 394.274C296.294 393.781 296.078 393.227 295.979 392.647C295.831 391.902 295.76 391.144 295.768 390.384ZM298.893 385.192C298.643 385.327 298.426 385.516 298.258 385.745C298.077 385.973 297.929 386.225 297.819 386.494C297.704 386.763 297.612 387.041 297.542 387.324C297.485 387.581 297.446 387.843 297.428 388.105L300.293 386.478C300.276 386.253 300.243 386.03 300.195 385.81C300.17 385.614 300.091 385.428 299.967 385.273C299.918 385.203 299.856 385.144 299.783 385.099C299.71 385.054 299.629 385.025 299.544 385.013C299.312 384.993 299.082 385.057 298.893 385.192Z" fill="#FAFAFA"/>
<path d="M307.129 380.651C306.636 380.932 306.247 381.366 306.022 381.888C305.769 382.575 305.653 383.304 305.68 384.036V389.912C305.683 390.08 305.649 390.246 305.583 390.4C305.543 390.535 305.456 390.65 305.338 390.726L304.378 391.279C304.363 391.297 304.344 391.31 304.323 391.32C304.302 391.33 304.279 391.334 304.256 391.334C304.233 391.334 304.21 391.33 304.189 391.32C304.168 391.31 304.149 391.297 304.134 391.279C304.061 391.169 304.027 391.037 304.036 390.905V380.374C304.037 380.206 304.07 380.04 304.134 379.885C304.179 379.754 304.265 379.64 304.378 379.56L305.338 379.007C305.372 378.976 305.415 378.958 305.46 378.958C305.506 378.958 305.549 378.976 305.583 379.007C305.658 379.11 305.693 379.237 305.68 379.365V379.885C305.874 379.449 306.114 379.034 306.396 378.648C306.654 378.292 306.987 377.997 307.373 377.786L307.959 377.444C307.989 377.414 308.03 377.397 308.073 377.397C308.116 377.397 308.156 377.414 308.187 377.444C308.265 377.553 308.306 377.684 308.301 377.818V379.3C308.298 379.469 308.259 379.635 308.187 379.788C308.146 379.917 308.066 380.031 307.959 380.113L307.129 380.651Z" fill="#FAFAFA"/>
<path d="M319.271 379.869C319.287 379.852 319.305 379.838 319.327 379.829C319.348 379.819 319.37 379.814 319.393 379.814C319.417 379.814 319.439 379.819 319.46 379.829C319.482 379.838 319.5 379.852 319.516 379.869C319.588 379.98 319.623 380.112 319.613 380.244V381.871C319.612 382.039 319.579 382.205 319.516 382.36C319.46 382.481 319.376 382.587 319.271 382.669L313.705 385.924C313.672 385.955 313.628 385.972 313.583 385.972C313.537 385.972 313.494 385.955 313.461 385.924C313.388 385.82 313.353 385.693 313.363 385.566V370.917C313.364 370.75 313.397 370.584 313.461 370.429C313.506 370.302 313.592 370.193 313.705 370.119L314.73 369.517C314.763 369.486 314.807 369.469 314.852 369.469C314.898 369.469 314.941 369.486 314.974 369.517C315.047 369.622 315.082 369.748 315.072 369.875V382.262L319.271 379.869Z" fill="#FAFAFA"/>
<path d="M324.268 367.824C324.635 367.571 325.077 367.45 325.522 367.483C325.903 367.513 326.258 367.687 326.515 367.971C326.818 368.319 327.04 368.731 327.166 369.175C327.34 369.752 327.438 370.348 327.459 370.95C327.459 371.08 327.459 371.259 327.459 371.47V372.724C327.459 372.919 327.459 373.098 327.459 373.245C327.426 373.952 327.328 374.655 327.166 375.344C327.015 376.016 326.797 376.67 326.515 377.298C326.257 377.881 325.923 378.429 325.522 378.925C325.178 379.375 324.753 379.756 324.268 380.048C323.892 380.293 323.447 380.413 322.999 380.39C322.623 380.358 322.274 380.183 322.022 379.902C321.71 379.566 321.486 379.158 321.371 378.714C321.197 378.137 321.099 377.541 321.078 376.939C321.078 376.809 321.078 376.646 321.078 376.435V375.182C321.078 374.97 321.078 374.791 321.078 374.661C321.097 373.948 321.19 373.239 321.355 372.545C321.513 371.868 321.737 371.209 322.022 370.575C322.281 369.995 322.609 369.449 322.999 368.948C323.344 368.493 323.775 368.111 324.268 367.824ZM325.798 372.024C325.798 371.664 325.737 371.306 325.619 370.966C325.559 370.758 325.433 370.576 325.261 370.445C325.123 370.352 324.955 370.311 324.789 370.331C324.603 370.366 324.426 370.438 324.268 370.543C324.077 370.647 323.902 370.779 323.748 370.933C323.561 371.127 323.402 371.347 323.276 371.584C323.112 371.88 322.991 372.198 322.917 372.528C322.811 372.944 322.745 373.369 322.722 373.798C322.722 373.928 322.722 374.075 322.722 374.254V375.409C322.722 375.588 322.722 375.735 322.722 375.833C322.737 376.193 322.803 376.549 322.917 376.891C322.977 377.099 323.103 377.282 323.276 377.412C323.343 377.459 323.42 377.493 323.501 377.51C323.583 377.526 323.666 377.526 323.748 377.509C323.932 377.478 324.109 377.412 324.268 377.314C324.457 377.205 324.632 377.074 324.789 376.923C324.971 376.725 325.129 376.506 325.261 376.272C325.418 375.973 325.538 375.656 325.619 375.328C325.726 374.913 325.786 374.487 325.798 374.058C325.808 373.907 325.808 373.754 325.798 373.603V372.463C325.808 372.317 325.808 372.17 325.798 372.024Z" fill="#FAFAFA"/>
<path d="M332.439 377.346C332.648 377.219 332.834 377.06 332.993 376.874C333.189 376.645 333.358 376.393 333.497 376.126C333.659 375.798 333.785 375.455 333.872 375.1C333.972 374.701 334.021 374.291 334.018 373.879V373.049C334.018 373.212 333.855 373.407 333.742 373.635C333.63 373.873 333.499 374.102 333.351 374.319C333.181 374.548 332.996 374.765 332.797 374.97C332.593 375.184 332.357 375.365 332.098 375.507C331.93 375.621 331.742 375.7 331.543 375.739C331.344 375.779 331.14 375.777 330.942 375.735C330.58 375.622 330.269 375.386 330.063 375.068C329.798 374.647 329.605 374.185 329.493 373.7C329.354 373.086 329.278 372.459 329.265 371.829C329.265 371.617 329.265 371.356 329.265 371.047C329.265 370.738 329.265 370.478 329.265 370.25C329.286 369.534 329.362 368.821 329.493 368.117C329.627 367.425 329.817 366.744 330.063 366.083C330.293 365.509 330.588 364.962 330.942 364.455C331.242 364.006 331.636 363.629 332.098 363.348C332.314 363.218 332.551 363.125 332.797 363.072C332.98 363.038 333.168 363.038 333.351 363.072C333.495 363.112 333.629 363.184 333.742 363.283C333.846 363.363 333.939 363.456 334.018 363.56V363.039C334.019 362.871 334.052 362.706 334.116 362.551C334.161 362.424 334.247 362.315 334.36 362.241L335.32 361.672C335.354 361.641 335.397 361.624 335.442 361.624C335.488 361.624 335.531 361.641 335.565 361.672C335.643 361.78 335.683 361.912 335.678 362.046V372.626C335.722 374.211 335.428 375.787 334.816 377.249C334.335 378.399 333.504 379.367 332.439 380.016C332.076 380.241 331.662 380.37 331.235 380.39C330.897 380.411 330.562 380.325 330.275 380.146C329.999 379.94 329.776 379.673 329.623 379.365C329.465 378.994 329.376 378.596 329.363 378.193C329.348 378.024 329.382 377.854 329.461 377.704C329.501 377.57 329.587 377.455 329.705 377.379L330.568 376.891C330.587 376.869 330.611 376.853 330.638 376.841C330.664 376.829 330.693 376.823 330.722 376.823C330.751 376.823 330.78 376.829 330.806 376.841C330.833 376.853 330.857 376.869 330.877 376.891C330.957 376.975 331.028 377.068 331.088 377.167C331.187 377.342 331.351 377.47 331.544 377.525C331.739 377.672 332.032 377.509 332.439 377.346ZM330.909 369.452C330.909 369.886 330.909 370.309 330.909 370.722C330.863 371.372 331.047 372.017 331.43 372.545C331.575 372.67 331.76 372.738 331.951 372.738C332.142 372.738 332.327 372.67 332.472 372.545C332.944 372.238 333.313 371.795 333.53 371.275C333.826 370.596 333.992 369.867 334.018 369.127C334.018 368.882 334.018 368.589 334.018 368.248C334.018 367.906 334.018 367.613 334.018 367.401C334.051 366.818 333.879 366.242 333.53 365.774C333.386 365.641 333.197 365.567 333.001 365.567C332.805 365.567 332.616 365.641 332.472 365.774C332.009 366.079 331.646 366.516 331.43 367.027C331.096 367.792 330.919 368.617 330.909 369.452Z" fill="#FAFAFA"/>
<path d="M339.471 354.998C339.503 354.972 339.543 354.957 339.585 354.957C339.627 354.957 339.667 354.972 339.699 354.998C339.784 355.103 339.825 355.238 339.813 355.373V357.147C339.814 357.316 339.775 357.484 339.699 357.635C339.653 357.757 339.574 357.865 339.471 357.944L338.381 358.579C338.365 358.596 338.346 358.61 338.325 358.62C338.304 358.629 338.282 358.634 338.258 358.634C338.235 358.634 338.213 358.629 338.191 358.62C338.17 358.61 338.152 358.596 338.136 358.579C338.094 358.53 338.062 358.474 338.042 358.412C338.023 358.35 338.016 358.285 338.022 358.221V356.447C338.021 356.277 338.06 356.11 338.136 355.959C338.182 355.832 338.268 355.723 338.381 355.649L339.471 354.998ZM339.748 370.282C339.748 370.445 339.715 370.605 339.65 370.754C339.598 370.882 339.514 370.994 339.406 371.08L338.429 371.633C338.416 371.65 338.398 371.664 338.379 371.673C338.359 371.683 338.337 371.688 338.315 371.688C338.294 371.688 338.272 371.683 338.252 371.673C338.233 371.664 338.215 371.65 338.201 371.633C338.116 371.528 338.075 371.394 338.088 371.259V360.728C338.086 360.558 338.126 360.391 338.201 360.239C338.247 360.113 338.326 360 338.429 359.914L339.406 359.36C339.439 359.33 339.483 359.312 339.528 359.312C339.573 359.312 339.617 359.33 339.65 359.36C339.723 359.465 339.757 359.591 339.748 359.719V370.282Z" fill="#FAFAFA"/>
<path d="M348.309 365.318C348.309 365.485 348.275 365.651 348.212 365.806C348.166 365.933 348.081 366.042 347.968 366.115L346.991 366.685C346.961 366.715 346.92 366.732 346.877 366.732C346.835 366.732 346.794 366.715 346.763 366.685C346.678 366.58 346.637 366.445 346.649 366.311V360.581C346.699 359.905 346.576 359.227 346.291 358.612C346.063 358.205 345.705 358.14 345.201 358.433C344.697 358.771 344.324 359.27 344.143 359.849C343.871 360.617 343.739 361.427 343.752 362.241V367.987C343.751 368.155 343.718 368.32 343.654 368.475C343.614 368.61 343.528 368.725 343.41 368.801L342.45 369.354C342.435 369.372 342.416 369.386 342.395 369.395C342.374 369.405 342.351 369.41 342.328 369.41C342.305 369.41 342.282 369.405 342.261 369.395C342.24 369.386 342.221 369.372 342.206 369.354C342.13 369.251 342.095 369.124 342.108 368.996V358.465C342.106 358.297 342.139 358.131 342.206 357.977C342.246 357.843 342.332 357.727 342.45 357.651L343.41 357.098C343.425 357.081 343.444 357.067 343.465 357.057C343.486 357.048 343.509 357.043 343.532 357.043C343.555 357.043 343.578 357.048 343.599 357.057C343.62 357.067 343.639 357.081 343.654 357.098C343.727 357.209 343.761 357.34 343.752 357.472V357.977C343.966 357.481 344.228 357.006 344.533 356.561C344.801 356.15 345.164 355.809 345.591 355.568C345.962 355.297 346.423 355.181 346.877 355.242C347.057 355.288 347.226 355.371 347.372 355.486C347.517 355.601 347.637 355.745 347.724 355.91C347.96 356.35 348.114 356.83 348.179 357.326C348.266 357.973 348.31 358.626 348.309 359.279V365.318Z" fill="#FAFAFA"/>
<path d="M430.41 317.936L414.605 327.051L417.063 304.882C415.159 303.872 413.954 301.415 413.954 297.883C413.954 291.583 417.795 284.275 422.516 281.606C427.236 278.936 431.061 281.768 431.061 288.116C430.963 291.851 429.898 295.497 427.968 298.696L430.41 317.936Z" fill="#455A64"/>
<path d="M430.426 317.936L416.51 309.911L414.605 327.067L430.426 317.936Z" fill="#37474F"/>
<path d="M422.483 281.557C419.041 283.882 416.475 287.291 415.191 291.242L427.936 298.599C429.865 295.399 430.931 291.754 431.029 288.019C431.061 281.72 427.236 278.839 422.483 281.557Z" fill="#37474F"/>
<path d="M345.656 207.741C340.236 204.616 332.765 205.055 324.496 209.825C307.991 219.363 294.612 242.525 294.612 261.585C294.612 271.156 297.997 277.862 303.434 280.955L313.965 287.075C319.369 290.2 326.84 289.744 335.125 284.975C351.63 275.453 365.009 252.275 365.009 233.214C365.009 223.692 361.656 216.938 356.252 213.894" fill="#BA68C8"/>
<path d="M335.109 215.961C318.604 225.499 305.224 248.677 305.224 267.721C305.224 286.765 318.604 294.513 335.109 284.975C351.614 275.437 365.009 252.275 364.993 233.214C364.977 214.154 351.597 206.439 335.109 215.961Z" fill="#BA68C8"/>
<path d="M351.597 258.248V260.429C347.643 267.487 341.972 273.433 335.109 277.715C328.679 281.41 322.869 281.817 318.604 279.457V274.965C318.822 270.291 320.157 265.737 322.496 261.685C324.835 257.632 328.111 254.199 332.049 251.672L336.395 249.166C340.236 246.952 343.98 246.659 346.91 248.368C349.839 250.077 351.597 253.674 351.597 258.248Z" fill="#BA68C8"/>
<path opacity="0.4" d="M345.656 207.741L356.236 213.894C350.832 210.752 343.361 211.192 335.076 215.961C324.268 222.211 314.795 234.305 309.554 247.261L298.958 241.125C304.215 228.104 313.607 216.075 324.48 209.825C332.781 205.072 340.252 204.616 345.656 207.741Z" fill="white"/>
<path opacity="0.2" d="M313.591 286.831L303.45 280.955C298.014 277.862 294.628 271.188 294.628 261.585L305.224 267.738C305.29 277.016 308.415 283.624 313.591 286.831Z" fill="black"/>
<path opacity="0.1" d="M298.99 241.125L309.586 247.261C306.871 253.748 305.413 260.691 305.289 267.721L294.693 261.569C294.824 254.544 296.282 247.608 298.99 241.125Z" fill="black"/>
<path d="M331.333 248.14C330.323 248.151 329.328 247.893 328.452 247.392C327.395 246.687 326.548 245.71 326.001 244.564C325.454 243.418 325.226 242.145 325.343 240.881C325.481 237.915 326.327 235.026 327.811 232.455C329.295 229.883 331.373 227.705 333.872 226.101C334.875 225.3 336.098 224.82 337.378 224.725C338.659 224.63 339.939 224.923 341.05 225.566C342.161 226.21 343.053 227.174 343.607 228.332C344.162 229.491 344.354 230.789 344.159 232.059C344.018 235.024 343.17 237.912 341.687 240.483C340.203 243.054 338.126 245.233 335.63 246.838C334.338 247.645 332.855 248.094 331.333 248.14Z" fill="white"/>
<path d="M346.91 248.352C343.98 246.643 340.236 246.936 336.395 249.149L332.049 251.656C328.108 254.184 324.831 257.62 322.492 261.676C320.153 265.731 318.82 270.288 318.604 274.965V279.473C322.869 281.834 328.679 281.427 335.109 277.732C341.972 273.449 347.643 267.503 351.597 260.446V258.265C351.597 253.674 349.905 250.077 346.91 248.352Z" fill="white"/>
<path d="M681.53 529.942C681.53 529.942 683.695 510.931 693.152 496.168C702.609 481.405 715.598 472.208 727.724 471.248C739.85 470.287 749.649 481.453 736.676 489.152C723.703 496.851 700.655 504.632 690.043 533.279L681.53 529.942Z" fill="#BA68C8"/>
<path opacity="0.1" d="M681.53 529.942C681.53 529.942 683.695 510.931 693.152 496.168C702.609 481.405 715.598 472.208 727.724 471.248C739.85 470.287 749.649 481.453 736.676 489.152C723.703 496.851 700.655 504.632 690.043 533.279L681.53 529.942Z" fill="black"/>
<path d="M685.095 524.994H684.964C684.805 524.929 684.678 524.803 684.611 524.645C684.543 524.486 684.542 524.307 684.606 524.148C697.4 492.652 721.75 479.484 732.851 476.945C732.934 476.925 733.021 476.923 733.105 476.937C733.189 476.951 733.27 476.982 733.343 477.027C733.415 477.072 733.478 477.132 733.528 477.201C733.578 477.271 733.613 477.35 733.632 477.433C733.652 477.516 733.654 477.603 733.64 477.687C733.626 477.771 733.595 477.852 733.55 477.925C733.505 477.997 733.445 478.06 733.376 478.11C733.306 478.16 733.227 478.195 733.144 478.214C722.271 480.721 698.393 493.645 685.811 524.652C685.748 524.782 685.643 524.887 685.513 524.949C685.383 525.011 685.235 525.027 685.095 524.994Z" fill="white"/>
<path d="M749.844 525.368C748.754 527.843 746.052 529.145 743.545 530.154C741.038 531.163 738.304 532.254 736.936 534.597C734.202 539.318 738.694 545.991 735.765 550.565C735.075 551.486 734.206 552.258 733.21 552.834C732.214 553.41 731.112 553.779 729.97 553.918C728.098 554.26 726.194 554.26 724.306 554.423C723.401 554.411 722.499 554.34 721.604 554.211C718.973 553.624 716.223 553.916 713.774 555.041C710.014 557.157 708.891 561.894 706.58 565.556C705.168 567.712 703.307 569.538 701.124 570.909C698.942 572.28 696.488 573.164 693.933 573.499C692.305 573.711 689.05 574.02 687.422 573.06C687.295 572.997 687.175 572.921 687.064 572.832C686.82 572.571 686.527 572.23 686.397 572.051C686.388 572.013 686.388 571.974 686.397 571.937C685.729 569.479 686.82 566.94 686.869 564.4V563.945C686.755 560.999 686.673 558.069 686.608 555.139C686.467 549.713 686.413 544.288 686.446 538.862C686.446 535.346 686.055 531.505 687.552 528.201C689.18 524.555 693.282 524.473 694.828 520.909C695.447 519.476 695.772 517.962 696.374 516.514C697.305 514.408 698.796 512.597 700.684 511.28C702.573 509.963 704.787 509.189 707.085 509.043C714.23 508.685 720.627 514.463 727.773 513.926C729.612 513.779 731.419 513.21 733.242 512.884C739.02 511.794 745.71 513.437 748.965 518.337C749.68 519.346 750.134 520.516 750.287 521.742C750.44 522.969 750.288 524.215 749.844 525.368Z" fill="#BA68C8"/>
<path d="M685.681 560.657C685.527 560.611 685.397 560.508 685.318 560.368C685.239 560.228 685.217 560.063 685.257 559.908C695.121 522.894 734.088 517.588 743.252 518.207C743.333 518.211 743.412 518.231 743.484 518.266C743.557 518.301 743.622 518.351 743.675 518.412C743.728 518.472 743.768 518.543 743.794 518.62C743.819 518.696 743.828 518.777 743.822 518.858C743.805 519.016 743.728 519.162 743.607 519.265C743.486 519.368 743.33 519.42 743.171 519.411C734.235 518.776 696.082 524.001 686.429 560.234C686.384 560.388 686.28 560.518 686.141 560.597C686.001 560.676 685.836 560.697 685.681 560.657Z" fill="white"/>
<path d="M729.026 541.906C728.902 541.889 728.788 541.831 728.7 541.743C725.098 538.621 720.85 536.332 716.261 535.041C711.672 533.75 706.855 533.487 702.153 534.272C701.994 534.287 701.836 534.241 701.709 534.145C701.583 534.048 701.497 533.908 701.469 533.751C701.445 533.592 701.485 533.429 701.579 533.299C701.673 533.168 701.815 533.079 701.974 533.051C706.878 532.235 711.902 532.514 716.686 533.867C721.47 535.221 725.895 537.616 729.644 540.88C729.702 540.937 729.748 541.004 729.779 541.078C729.81 541.152 729.826 541.231 729.826 541.312C729.826 541.392 729.81 541.472 729.779 541.546C729.748 541.62 729.702 541.687 729.644 541.743C729.571 541.831 729.472 541.894 729.361 541.923C729.25 541.952 729.133 541.946 729.026 541.906Z" fill="white"/>
<path d="M591.958 82.8972L597.134 84.883V73.4892C597.134 64.4392 604.345 62.2744 612.174 66.7994C620.02 71.3243 626.368 82.3112 626.368 91.3612V92.9889C627.459 92.6555 628.611 92.5731 629.739 92.7479C630.866 92.9226 631.939 93.35 632.878 93.9981C635.851 95.9366 638.325 98.5491 640.098 101.623C641.872 104.698 642.895 108.147 643.084 111.691V112.44L650.311 116.607C652.266 117.883 653.893 119.601 655.061 121.623C656.229 123.645 656.905 125.913 657.033 128.245C657.033 132.542 654.022 134.283 650.311 132.135L591.958 98.4254C590.002 97.1521 588.374 95.4339 587.209 93.4112C586.043 91.3885 585.373 89.1188 585.252 86.7874C585.252 82.5066 588.231 80.7649 591.958 82.8972Z" fill="#E6E6E6"/>
<path d="M661.282 73.8798L670.673 79.3001C670.622 78.8897 670.595 78.4766 670.592 78.063V75.3448C670.592 70.4617 673.978 68.541 678.177 70.9663C679.982 72.0711 681.525 73.5538 682.702 75.3122C683.386 69.2246 688.171 66.9622 693.966 70.2989C697.277 72.4535 700.034 75.358 702.014 78.7769C703.993 82.1959 705.14 86.0331 705.359 89.9777V94.0469C705.401 95.6728 705.073 97.2869 704.399 98.7672L712.212 103.26C713.43 104.067 714.441 105.149 715.165 106.418C715.888 107.688 716.304 109.109 716.379 110.568C716.379 113.254 714.491 114.344 712.163 113.01L661.282 83.7111C660.051 82.9093 659.028 81.8277 658.295 80.5547C657.562 79.2817 657.141 77.8534 657.066 76.3865C657.066 73.6357 658.954 72.5451 661.282 73.8798Z" fill="#E6E6E6"/>
<path d="M624.919 320.914C618.083 332.471 611.507 342.514 606.884 347.332C598.111 351.401 577.504 357.684 569.447 358.726C568.032 358.906 566.599 358.571 565.411 357.781C562.237 355.698 559.779 355.356 556.442 354.201C553.821 353.305 552.715 352.052 552.226 352.573C551.722 353.164 551.468 353.929 551.52 354.704C551.572 355.48 551.924 356.204 552.503 356.723C553.755 357.913 555.143 358.951 556.637 359.816C553.063 360.703 549.335 360.77 545.732 360.011C538.749 358.172 535.461 361.525 540.181 369.11C541.809 371.812 548.515 376.158 561.992 374.986C566.8 374.727 571.589 374.183 576.332 373.359C589.256 370.591 603.629 367.922 612.467 365.22C615.755 363.927 618.697 361.888 621.061 359.263C635.922 342.318 640.854 330.241 647.365 319.27L646.811 301.366C636.264 301.008 630.632 311.246 624.919 320.914Z" fill="#FFA8A7"/>
<path d="M648.618 301.008C645.56 300.578 642.442 300.992 639.602 302.205C636.762 303.419 634.307 305.386 632.504 307.893C625.277 317.154 612.483 339.389 612.483 339.389C612.483 339.389 616.667 350.538 627.963 352.41L646.111 327.897C646.111 327.897 654.706 310.871 648.618 301.008Z" fill="#455A64"/>
<path d="M687.862 550.923H676.028V572.018H687.862V550.923Z" fill="#FFA8A7"/>
<path d="M646.844 549.8L635.027 550.223L634.425 527.891L646.844 527.468V549.8Z" fill="#FFA8A7"/>
<path d="M689.522 368.313C689.522 380.065 687.797 474.747 687.797 474.747C688.057 478.133 691.052 484.383 690.45 497.388C689.555 515.049 688.366 561.471 688.366 561.471C686.335 562.51 684.094 563.074 681.812 563.119C679.531 563.164 677.269 562.689 675.198 561.731C675.198 561.731 665.595 496.623 663.479 479.191C661.623 463.907 656.871 413.318 656.871 413.318L650.474 473.12C651.83 479.536 652.323 486.105 651.939 492.652C651.385 500.79 647.577 542.915 647.577 542.915C645.532 544.121 643.24 544.846 640.874 545.035C638.508 545.224 636.13 544.872 633.92 544.006C633.92 544.006 627.182 480.526 627.051 473.071C626.889 464.607 630.99 368.215 630.99 368.215L689.522 368.313Z" fill="#37474F"/>
<path d="M676.028 565.931V564.173C674.889 564.677 672.268 575.127 667.564 579.587C663.837 583.135 658.759 587.221 657.456 591.176C656.154 595.131 664.537 597.556 668.036 596.922C672.073 596.173 679.105 593.194 680.863 590.411C682.621 587.628 683.451 583.591 684.883 581.573C686.315 579.554 689.62 577.308 690.385 574.964C690.623 572.771 690.396 570.552 689.717 568.453C689.164 566.272 688.578 563.88 687.862 564.091V565.426C686.193 566.795 684.095 567.533 681.937 567.509C680.212 567.656 676.012 567.298 676.028 565.931Z" fill="#263238"/>
<path d="M634.897 546.415C634.278 546.415 633.774 547.342 632.423 548.872C630.414 550.985 628.064 552.746 625.472 554.081C621.045 556.392 612.451 559.941 608.528 561.78C606.086 562.919 606.2 565.979 608.723 567.721C611.246 569.463 617.318 570.716 624.61 569.023C628.581 568.095 633.757 564.27 637.045 564.482C640.333 564.693 646.437 564.628 648.862 562.854C651.287 561.08 650.311 557.401 649.627 554.227C648.878 550.744 647.999 545.324 646.844 545.568V546.789C645.428 549.035 638.087 549.947 634.962 548.303L634.897 546.415Z" fill="#263238"/>
<path d="M656.871 413.318C650.715 411.303 645.087 407.939 640.398 403.471C640.398 403.471 643.654 409.672 653.029 415.451L651.011 468.855L656.871 413.318Z" fill="#263238"/>
<path d="M682.914 302.733C682.914 302.733 692.68 304.979 691.98 322.623L689.945 350.701V392.858C681.253 402.722 642.742 402.006 629.477 392.077C629.477 392.077 630.974 342.188 631.869 322.981C632.504 309.341 635.646 302.473 649.058 300.975L665.546 301.691L682.914 302.733Z" fill="#BA68C8"/>
<path d="M670.478 266.077C670.534 268.44 670.122 270.79 669.266 272.992C668.41 275.194 667.126 277.205 665.489 278.909C663.852 280.612 661.893 281.975 659.727 282.919C657.561 283.862 655.229 284.367 652.867 284.405C643.1 284.405 637.371 275.974 635.255 266.077C631.348 247.961 643.133 247.733 652.867 247.733C657.634 247.832 662.168 249.819 665.47 253.259C668.773 256.699 670.574 261.31 670.478 266.077Z" fill="#263238"/>
<path d="M679.463 273.483C679.463 273.483 676.761 286.7 675.67 288.881C674.985 290.194 673.818 291.191 672.415 291.665L672.61 282.371L679.463 273.483Z" fill="#263238"/>
<path d="M676.061 254.553C676.061 254.553 677.998 254.065 680.065 257.288C681.823 260.039 682.23 266.224 679.463 273.565L674.368 274.183L676.061 254.553Z" fill="#263238"/>
<path d="M677.933 257.239L684.183 257.353C684.226 256.949 684.185 256.541 684.062 256.153C683.94 255.766 683.738 255.408 683.471 255.103C683.203 254.797 682.875 254.55 682.508 254.377C682.14 254.204 681.741 254.109 681.335 254.098C680.48 254.11 679.66 254.437 679.032 255.017C678.405 255.597 678.013 256.388 677.933 257.239Z" fill="#263238"/>
<path d="M678.698 255.758L683.32 251.314C683.054 251 682.726 250.745 682.355 250.564C681.985 250.384 681.582 250.282 681.17 250.265C680.759 250.248 680.349 250.317 679.965 250.466C679.581 250.616 679.233 250.844 678.942 251.135C678.329 251.735 677.964 252.543 677.918 253.399C677.873 254.255 678.151 255.097 678.698 255.758Z" fill="#263238"/>
<path d="M672.838 274.102C673.864 274.737 675.312 272.702 676.582 271.319C677.851 269.935 681.79 268.666 683.841 273.158C685.892 277.65 682.393 282.094 679.463 283.559C674.205 286.163 672.545 282.371 672.545 282.371L672.106 303.303C664.716 314.697 647.951 314.338 653.99 302.749V296.385C651.506 296.798 648.983 296.929 646.47 296.776C642.368 296.125 639.796 292.755 638.543 288.133C636.557 280.71 635.792 274.721 637.485 260.12C639.34 244.136 657.212 243.957 666.783 250.354C676.354 256.751 672.838 274.102 672.838 274.102Z" fill="#FFA8A7"/>
<path d="M650.571 257.63C654.836 257.207 659.052 256.328 663.332 256.002C664.256 255.89 665.191 255.934 666.1 256.132C669.355 257.028 668.964 260.836 669.485 263.489C670.38 268.08 671.113 275.844 672.838 275.876C673.359 275.876 675.312 272.507 676.582 271.302C677.28 270.265 677.674 269.053 677.721 267.803C678.047 265.915 678.21 263.978 678.356 262.057C678.486 260.429 678.649 258.802 678.649 257.174C678.723 255.335 678.576 253.493 678.209 251.689C677.801 250.154 677.018 248.744 675.931 247.587L675.605 247.229C673.46 244.986 670.856 243.231 667.971 242.085C663.821 240.531 659.468 239.582 655.047 239.269C650.633 238.957 646.237 238.413 641.879 237.642C641.63 237.569 641.364 237.569 641.114 237.642C640.938 237.74 640.788 237.88 640.68 238.051C640.572 238.222 640.509 238.417 640.496 238.618C640.317 239.63 640.429 240.671 640.818 241.622C641.207 242.572 641.857 243.393 642.693 243.99C639.747 244.218 636.362 242.688 633.529 241.906C633.3 241.809 633.054 241.759 632.805 241.759C632.556 241.759 632.31 241.809 632.081 241.906C631.797 242.105 631.594 242.4 631.511 242.736C631.305 243.501 631.277 244.303 631.43 245.08C631.689 247.436 632.565 249.682 633.969 251.591C636.163 254.447 639.262 256.473 642.758 257.337C645.332 257.833 647.967 257.932 650.571 257.63Z" fill="#263238"/>
<path d="M654.006 296.385C654.006 296.385 663.154 294.464 666.344 292.69C668.244 291.651 669.787 290.062 670.771 288.133C670.291 290.071 669.433 291.896 668.248 293.504C665.921 296.629 654.006 298.908 654.006 298.908V296.385Z" fill="#F28F8F"/>
<path d="M656.203 271.709C656.185 272.212 656.367 272.701 656.709 273.07C657.05 273.439 657.524 273.658 658.026 273.679C658.425 273.712 658.824 273.623 659.172 273.425C659.519 273.227 659.799 272.929 659.974 272.569C660.149 272.209 660.212 271.805 660.153 271.409C660.095 271.013 659.918 270.644 659.646 270.351C659.374 270.057 659.02 269.852 658.63 269.764C658.24 269.675 657.832 269.706 657.46 269.853C657.088 269.999 656.769 270.255 656.544 270.587C656.32 270.918 656.201 271.309 656.203 271.709Z" fill="#263238"/>
<path d="M659.133 263.815L663.056 266.077C663.341 265.52 663.406 264.875 663.237 264.271C663.068 263.668 662.678 263.15 662.144 262.822C661.884 262.676 661.597 262.586 661.3 262.557C661.003 262.528 660.703 262.562 660.42 262.655C660.137 262.749 659.876 262.9 659.654 263.1C659.433 263.299 659.255 263.543 659.133 263.815Z" fill="#263238"/>
<path d="M654.82 284.91L650.636 286.538C650.721 286.824 650.863 287.091 651.054 287.321C651.246 287.55 651.482 287.738 651.75 287.872C652.017 288.007 652.309 288.085 652.607 288.102C652.906 288.118 653.204 288.073 653.485 287.97C654.054 287.725 654.509 287.272 654.757 286.704C655.005 286.135 655.027 285.494 654.82 284.91Z" fill="#F28F8F"/>
<path d="M639.373 265.492L642.954 262.627C642.793 262.377 642.582 262.163 642.334 262C642.085 261.837 641.805 261.728 641.512 261.681C641.219 261.633 640.919 261.648 640.631 261.724C640.344 261.8 640.076 261.936 639.845 262.122C639.366 262.528 639.054 263.096 638.967 263.717C638.88 264.338 639.024 264.97 639.373 265.492Z" fill="#263238"/>
<path d="M640.952 271.172C640.98 271.528 641.112 271.868 641.33 272.151C641.549 272.434 641.845 272.646 642.183 272.763C642.52 272.88 642.885 272.897 643.231 272.81C643.578 272.723 643.892 272.538 644.135 272.275C644.377 272.013 644.539 271.686 644.598 271.334C644.658 270.982 644.614 270.62 644.472 270.292C644.329 269.964 644.095 269.685 643.796 269.489C643.498 269.293 643.148 269.187 642.791 269.186C642.539 269.195 642.292 269.253 642.063 269.357C641.834 269.462 641.628 269.611 641.457 269.796C641.286 269.98 641.153 270.197 641.067 270.433C640.98 270.67 640.941 270.921 640.952 271.172Z" fill="#263238"/>
<path d="M650.767 269.642L650.555 281.215L643.979 279.717L650.767 269.642Z" fill="#F28F8F"/>
<path d="M494.606 366.571L504.812 360.679L508.848 355.779L498.659 361.672L494.606 366.571Z" fill="#BA68C8"/>
<path opacity="0.4" d="M494.606 366.571L504.812 360.679L508.848 355.779L498.659 361.672L494.606 366.571Z" fill="black"/>
<path d="M522.358 382.587L532.564 376.695L541.077 369.159L530.888 375.035L522.358 382.587Z" fill="#BA68C8"/>
<path opacity="0.4" d="M522.358 382.587L532.564 376.695L541.077 369.159L530.888 375.035L522.358 382.587Z" fill="black"/>
<path d="M609.049 402.917C611.462 406.152 612.922 409.997 613.265 414.018C610.862 410.778 609.403 406.936 609.049 402.917ZM632.764 403.227C629.33 379.869 616.78 356.772 601.838 348.129C594.66 343.979 588.019 343.832 582.697 346.941L573.093 352.475L572.556 352.801C572.129 353.036 571.715 353.297 571.319 353.582C570.53 354.125 569.79 354.735 569.105 355.405L568.78 355.714C568.487 356.007 568.178 356.349 567.901 356.675C567.624 357 567.201 357.505 566.875 357.944C566.185 358.854 565.559 359.811 565.004 360.809C564.711 361.314 564.434 361.851 564.174 362.437L480.299 314.029L470.109 319.905V326.416L470.972 326.904L471.786 327.376V328.678L470.158 329.639V333.415L482.48 359.458L494.655 366.506L498.708 361.623L509.451 368.052L515.62 378.616L522.423 382.539L530.936 374.986L541.386 381.025L544.902 395.528L562.464 405.684C563.333 409.376 564.42 413.012 565.72 416.574C565.834 416.932 565.98 417.306 566.127 417.713C571.954 433.013 581.215 446.116 591.665 452.155C592.918 452.898 594.23 453.535 595.588 454.059C596.306 454.345 597.04 454.589 597.785 454.792C598.436 454.965 599.087 455.112 599.739 455.231C601.794 455.606 603.901 455.606 605.956 455.231L606.803 455.02C607.207 454.938 607.605 454.824 607.991 454.678L608.902 454.32C609.225 454.203 609.536 454.056 609.83 453.88C610.131 453.75 610.425 453.603 610.709 453.441L611.132 453.18C611.209 453.155 611.281 453.117 611.344 453.066C613.672 451.732 619.401 448.411 620.964 447.532C628.711 443.04 633.725 431.679 633.725 415.613C633.712 411.466 633.391 407.326 632.764 403.227Z" fill="#BA68C8"/>
<path d="M606.07 422.629C602.034 420.301 598.778 413.4 598.778 407.214C598.778 401.029 602.034 397.888 606.07 400.199C610.107 402.51 613.346 409.428 613.346 415.63C613.346 421.831 610.091 424.956 606.07 422.629ZM622.559 409.103C619.141 385.761 606.591 362.648 591.633 354.022C584.699 350.017 578.286 349.724 573.077 352.475L572.54 352.801C572.112 353.036 571.699 353.297 571.303 353.582C570.514 354.125 569.774 354.735 569.089 355.405L568.764 355.714C568.471 356.007 568.162 356.349 567.885 356.675C567.608 357 567.185 357.505 566.859 357.944C566.169 358.854 565.543 359.811 564.988 360.809C564.695 361.314 564.418 361.851 564.157 362.437C562.64 365.583 561.545 368.916 560.902 372.349L470.093 319.905V326.416L470.956 326.904L471.77 327.376V328.678L470.142 329.639V333.415L482.464 359.458L494.639 366.506L498.692 361.623L509.435 368.052L515.603 378.616L522.407 382.539L530.92 374.986L541.37 381.025L544.886 395.528L562.465 405.684C563.333 409.376 564.42 413.012 565.72 416.574C565.834 416.932 565.98 417.306 566.127 417.713C571.954 433.013 581.216 446.116 591.665 452.155C592.918 452.898 594.23 453.535 595.588 454.059C596.306 454.345 597.04 454.589 597.786 454.792C598.437 454.965 599.088 455.112 599.739 455.231C601.794 455.606 603.901 455.606 605.957 455.231L606.803 455.02C607.208 454.938 607.605 454.824 607.991 454.678L608.903 454.32C609.225 454.203 609.536 454.056 609.83 453.88C610.131 453.75 610.425 453.603 610.709 453.441L611.133 453.18C611.209 453.155 611.281 453.117 611.344 453.066C618.766 448.379 623.536 437.18 623.536 421.506C623.508 417.353 623.182 413.208 622.559 409.103Z" fill="#BA68C8"/>
<path opacity="0.4" d="M613.346 415.613C613.346 421.815 610.091 424.956 606.07 422.629C602.05 420.301 598.778 413.416 598.778 407.214C598.778 401.013 602.034 397.872 606.07 400.199C607.233 400.907 608.245 401.836 609.049 402.934C609.399 406.953 610.858 410.796 613.265 414.034C613.324 414.559 613.352 415.086 613.346 415.613Z" fill="black"/>
<path opacity="0.4" d="M633.692 415.597C633.692 431.662 628.679 443.024 620.931 447.516C619.304 448.395 613.639 451.715 611.312 453.05C618.734 448.362 623.503 437.164 623.503 421.489C623.486 417.343 623.17 413.203 622.559 409.103C619.141 385.761 606.591 362.648 591.633 354.022C584.699 350.017 578.286 349.724 573.077 352.475L582.681 346.941C588.003 343.832 594.644 343.979 601.822 348.129C616.781 356.772 629.33 379.869 632.748 403.227C633.368 407.321 633.684 411.456 633.692 415.597Z" fill="white"/>
<path d="M623.503 421.457C623.503 437.131 618.734 448.33 611.312 453.018C613.639 451.683 619.369 448.362 620.931 447.483C628.679 442.991 633.692 431.63 633.692 415.565C633.692 414.979 633.692 414.376 633.692 413.774L623.503 419.666C623.487 420.301 623.503 420.887 623.503 421.457Z" fill="#BA68C8"/>
<path opacity="0.1" d="M623.503 421.457C623.503 437.131 618.734 448.33 611.312 453.018C613.639 451.683 619.369 448.362 620.931 447.483C628.679 442.991 633.692 431.63 633.692 415.565C633.692 414.979 633.692 414.376 633.692 413.774L623.503 419.666C623.487 420.301 623.503 420.887 623.503 421.457Z" fill="black"/>
<path opacity="0.15" d="M561.293 379.007V382.311L470.109 329.671L471.786 328.695V327.327L561.293 379.007Z" fill="black"/>
<path opacity="0.15" d="M561.293 380.374V382.311L470.109 329.671L471.786 328.695V328.678L561.293 380.374Z" fill="black"/>
<path opacity="0.15" d="M600.943 447.5C597.487 447.41 594.117 446.405 591.177 444.586C576.316 436.008 564.222 410.486 564.222 387.698C564.222 374.4 568.243 364.471 575.258 360.418C580.141 357.586 585.92 357.944 591.991 361.444C606.835 370.022 618.929 395.625 618.929 418.413C618.929 431.695 614.909 441.64 607.893 445.677C605.777 446.885 603.38 447.514 600.943 447.5ZM582.306 360.174C580.137 360.162 578.003 360.724 576.121 361.802C569.724 365.497 565.899 375.182 565.899 387.682C565.899 409.949 577.618 434.885 592.04 443.154C597.558 446.409 602.782 446.702 607.128 444.196C613.525 440.501 617.35 430.832 617.35 418.332C617.35 396.048 605.631 371.129 591.226 362.844C588.534 361.206 585.457 360.307 582.306 360.239V360.174Z" fill="black"/>
<path opacity="0.4" d="M564.092 362.404C562.575 365.55 561.48 368.883 560.837 372.317L470.028 319.873L480.217 313.997L564.092 362.404Z" fill="white"/>
<path d="M682.116 367.499C686.869 358.498 692.305 338.282 695.007 328.076C698.849 313.59 692.631 304.475 685.567 304.1C681.156 304.784 666.62 357.635 666.62 357.635C664.993 358.921 642.905 370.136 635.808 372.952C634.539 373.432 633.138 373.432 631.869 372.952C628.467 371.715 626.14 371.942 622.803 371.617C620.183 371.356 618.864 370.429 618.522 370.982C618.212 371.669 618.172 372.448 618.41 373.163C618.649 373.878 619.148 374.476 619.808 374.84C621.245 375.676 622.774 376.343 624.366 376.825C621.513 377.691 618.54 378.092 615.56 378.014C608.724 377.867 606.266 380.83 611.572 387.78C614.827 392.109 620.215 393.477 632.244 389.326C635.694 388.122 640.382 385.794 644.761 384.215C653.778 380.96 656.154 380.569 663.023 378.242C673.034 374.856 680 371.503 682.116 367.499Z" fill="#FFA8A7"/>
<path d="M682.914 302.733C687.064 303.303 691.052 304.231 693.51 307.616C695.968 311.002 697.937 315.755 695.528 328.695C693.683 337.795 691.214 346.758 688.138 355.519C688.138 355.519 678.47 359.653 668.199 349.171L675.263 321.858C675.263 321.858 676.403 304.1 682.914 302.733Z" fill="#455A64"/>
</svg>
