<svg width="106" height="107" viewBox="0 0 106 107" fill="none" xmlns="http://www.w3.org/2000/svg">
<g filter="url(#filter0_d_39_1834)">
<ellipse cx="52.5714" cy="51.5" rx="28.5714" ry="28.5714" fill="url(#paint0_linear_39_1834)" fill-opacity="0.15" shape-rendering="crispEdges"/>
<path d="M52.5714 82.0714C69.4556 82.0714 83.1429 68.3841 83.1429 51.5C83.1429 34.6159 69.4556 20.9286 52.5714 20.9286C35.6873 20.9286 22 34.6159 22 51.5C22 68.3841 35.6873 82.0714 52.5714 82.0714Z" stroke="#FBFBFB" stroke-width="4" shape-rendering="crispEdges"/>
</g>
<path d="M57.8721 55.8203C58.5811 55.4395 59.3927 55.2227 60.2569 55.2227H60.2598C60.3477 55.2227 60.3887 55.1172 60.3243 55.0586C59.4255 54.252 58.3988 53.6005 57.2862 53.1309C57.2745 53.125 57.2628 53.1221 57.251 53.1162C59.0704 51.7949 60.254 49.6475 60.254 47.2246C60.254 43.2109 57.0079 39.959 53.003 39.959C48.9981 39.959 45.755 43.2109 45.755 47.2246C45.755 49.6475 46.9385 51.7949 48.7608 53.1162C48.7491 53.1221 48.7374 53.125 48.7257 53.1309C47.4161 53.6846 46.2413 54.4785 45.2305 55.4922C44.2256 56.4953 43.4256 57.6844 42.8751 58.9932C42.3334 60.2748 42.0411 61.6479 42.0137 63.0391C42.013 63.0703 42.0184 63.1014 42.0299 63.1306C42.0413 63.1597 42.0584 63.1862 42.0803 63.2086C42.1021 63.231 42.1282 63.2488 42.1571 63.2609C42.1859 63.2731 42.2168 63.2793 42.2481 63.2793H44.003C44.129 63.2793 44.2344 63.1768 44.2374 63.0508C44.296 60.7891 45.2012 58.6709 46.8038 57.0654C48.4591 55.4043 50.6622 54.4902 53.0059 54.4902C54.6671 54.4902 56.2608 54.9502 57.6348 55.8115C57.6701 55.8337 57.7107 55.8462 57.7523 55.8477C57.794 55.8493 57.8353 55.8398 57.8721 55.8203ZM53.0059 52.2637C51.6641 52.2637 50.4014 51.7393 49.4493 50.7871C48.9808 50.3199 48.6094 49.7645 48.3565 49.1531C48.1036 48.5417 47.9742 47.8863 47.9757 47.2246C47.9757 45.8799 48.5001 44.6143 49.4493 43.6621C50.3985 42.71 51.6612 42.1855 53.0059 42.1855C54.3507 42.1855 55.6104 42.71 56.5626 43.6621C57.031 44.1294 57.4024 44.6847 57.6553 45.2961C57.9083 45.9075 58.0377 46.5629 58.0362 47.2246C58.0362 48.5693 57.5118 49.835 56.5626 50.7871C55.6104 51.7393 54.3477 52.2637 53.0059 52.2637ZM63.7813 59.2363H61.3204V56.7754C61.3204 56.6465 61.2149 56.541 61.086 56.541H59.4454C59.3165 56.541 59.211 56.6465 59.211 56.7754V59.2363H56.7501C56.6212 59.2363 56.5157 59.3418 56.5157 59.4707V61.1113C56.5157 61.2402 56.6212 61.3457 56.7501 61.3457H59.211V63.8066C59.211 63.9355 59.3165 64.041 59.4454 64.041H61.086C61.2149 64.041 61.3204 63.9355 61.3204 63.8066V61.3457H63.7813C63.9102 61.3457 64.0157 61.2402 64.0157 61.1113V59.4707C64.0157 59.3418 63.9102 59.2363 63.7813 59.2363Z" fill="black"/>
<defs>
<filter id="filter0_d_39_1834" x="0" y="0.928558" width="105.143" height="105.143" filterUnits="userSpaceOnUse" color-interpolation-filters="sRGB">
<feFlood flood-opacity="0" result="BackgroundImageFix"/>
<feColorMatrix in="SourceAlpha" type="matrix" values="0 0 0 0 0 0 0 0 0 0 0 0 0 0 0 0 0 0 127 0" result="hardAlpha"/>
<feMorphology radius="1" operator="erode" in="SourceAlpha" result="effect1_dropShadow_39_1834"/>
<feOffset dy="2"/>
<feGaussianBlur stdDeviation="10.5"/>
<feComposite in2="hardAlpha" operator="out"/>
<feColorMatrix type="matrix" values="0 0 0 0 0 0 0 0 0 0 0 0 0 0 0 0 0 0 0.1 0"/>
<feBlend mode="normal" in2="BackgroundImageFix" result="effect1_dropShadow_39_1834"/>
<feBlend mode="normal" in="SourceGraphic" in2="effect1_dropShadow_39_1834" result="shape"/>
</filter>
<linearGradient id="paint0_linear_39_1834" x1="24" y1="51.5" x2="87.4921" y2="51.5" gradientUnits="userSpaceOnUse">
<stop stop-color="#FF8200"/>
<stop offset="1" stop-color="#FF002B"/>
</linearGradient>
</defs>
</svg>
