<svg width="24" height="24" viewBox="0 0 24 24" fill="none" xmlns="http://www.w3.org/2000/svg">
<g clip-path="url(#clip0_27_44)">
<path d="M5.14261 20.5094L5.31213 20.6366C7.53342 22.3025 10.2963 23.0799 13.0604 22.8167L13.3151 22.7924C16.2782 22.5102 18.9851 20.9921 20.771 18.6109C22.3505 16.5049 23.0875 13.8855 22.8379 11.2648L22.7908 10.7704C22.5082 7.80298 21.0561 5.07005 18.755 3.17508L18.5736 3.0257C16.2349 1.09971 13.1888 0.256615 10.1927 0.706039C7.58053 1.09786 5.20598 2.44291 3.52686 4.48184L3.2618 4.80369C1.19528 7.31304 0.351815 10.6115 0.960069 13.8048C1.47015 16.4828 2.96174 18.8738 5.14261 20.5094Z" stroke="white" stroke-width="1.5"/>
<path d="M11.6565 9.83711L15.8855 10.876C15.9478 10.8913 16.0135 10.8813 16.0684 10.8481C16.1232 10.815 16.1627 10.7614 16.178 10.6991C16.1934 10.6369 16.1833 10.5711 16.1502 10.5162C16.117 10.4614 16.0634 10.422 16.0012 10.4066L11.7721 9.36775C11.7099 9.35283 11.6443 9.36306 11.5896 9.39622C11.5349 9.42938 11.4954 9.48279 11.4799 9.54485C11.4721 9.57564 11.4706 9.60766 11.4753 9.63905C11.48 9.67045 11.4909 9.7006 11.5073 9.72777C11.5237 9.75494 11.5454 9.77859 11.571 9.79735C11.5966 9.81612 11.6256 9.82963 11.6565 9.83711ZM16.5939 12.0469L10.4855 10.546C10.4547 10.5384 10.4227 10.537 10.3913 10.5418C10.36 10.5466 10.3298 10.5576 10.3027 10.574C10.2756 10.5904 10.2519 10.6121 10.2332 10.6377C10.2144 10.6632 10.2008 10.6923 10.1933 10.7231C10.1857 10.7539 10.1843 10.7859 10.1891 10.8173C10.1939 10.8486 10.2048 10.8787 10.2213 10.9059C10.2377 10.933 10.2594 10.9567 10.2849 10.9754C10.3105 10.9942 10.3395 11.0078 10.3704 11.0153L16.4792 12.5163C16.51 12.5238 16.542 12.5252 16.5734 12.5204C16.6048 12.5155 16.6348 12.5046 16.662 12.4881C16.6891 12.4716 16.7127 12.45 16.7314 12.4244C16.7502 12.3988 16.7637 12.3698 16.7712 12.339C16.7788 12.3081 16.7802 12.2761 16.7753 12.2448C16.7705 12.2134 16.7595 12.1833 16.743 12.1562C16.7266 12.1291 16.7049 12.1055 16.6793 12.0868C16.6538 12.068 16.6247 12.0545 16.5939 12.0469ZM16.2479 13.4565L10.1391 11.9555C10.1082 11.9479 10.0762 11.9465 10.0449 11.9513C10.0135 11.9561 9.98339 11.9671 9.95626 11.9835C9.92912 12 9.90548 12.0216 9.8867 12.0472C9.86792 12.0727 9.85437 12.1018 9.8468 12.1326C9.83924 12.1634 9.83783 12.1954 9.84263 12.2268C9.84744 12.2581 9.85838 12.2883 9.87482 12.3154C9.89127 12.3425 9.9129 12.3662 9.93848 12.385C9.96406 12.4037 9.99308 12.4173 10.0239 12.4249L16.1328 13.9258C16.195 13.9411 16.2608 13.931 16.3156 13.8978C16.3704 13.8646 16.4098 13.811 16.425 13.7487C16.4403 13.6865 16.4302 13.6207 16.397 13.5659C16.3638 13.5111 16.3102 13.4717 16.2479 13.4565ZM15.9015 14.866L11.9294 13.89C11.8986 13.8825 11.8666 13.881 11.8352 13.8858C11.8038 13.8906 11.7737 13.9016 11.7466 13.918C11.7194 13.9345 11.6958 13.9561 11.677 13.9817C11.6582 14.0073 11.6447 14.0363 11.6371 14.0671C11.6296 14.0979 11.6281 14.1299 11.633 14.1613C11.6378 14.1927 11.6487 14.2228 11.6651 14.2499C11.6816 14.2771 11.7032 14.3007 11.7288 14.3195C11.7544 14.3382 11.7834 14.3518 11.8142 14.3594L15.7863 15.3353C15.8486 15.3506 15.9143 15.3405 15.9691 15.3073C16.0239 15.2741 16.0633 15.2205 16.0786 15.1582C16.0939 15.096 16.0838 15.0302 16.0506 14.9754C16.0173 14.9206 15.9637 14.8813 15.9015 14.866ZM15.555 16.2755L14.4058 15.9934C14.3449 15.9816 14.2817 15.9937 14.2294 16.0272C14.1771 16.0607 14.1397 16.113 14.1249 16.1733C14.1101 16.2336 14.1191 16.2973 14.1499 16.3511C14.1808 16.405 14.2312 16.445 14.2907 16.4628L15.4399 16.7449C15.5021 16.7601 15.5679 16.75 15.6227 16.7168C15.6775 16.6836 15.7169 16.63 15.7321 16.5678C15.7474 16.5055 15.7373 16.4398 15.7041 16.3849C15.6709 16.3301 15.6173 16.2908 15.555 16.2755Z" fill="white"/>
<path d="M18.4066 9.68856C18.4073 9.64641 18.3967 9.60484 18.3761 9.56808L16.9584 7.22663C16.93 7.18189 16.8874 7.14798 16.8374 7.13034C16.8277 7.12646 16.8195 7.11969 16.8093 7.11727L15.3631 6.76211L13.5045 4.90356C13.4665 4.86774 13.418 4.84517 13.3661 4.83921C13.355 4.83776 13.3448 4.83292 13.3332 4.83292H7.04289C6.97873 4.83292 6.91719 4.85841 6.87182 4.90378C6.82645 4.94915 6.80096 5.01069 6.80096 5.07485V10.5387L5.1166 10.1115C5.07307 10.1005 5.02734 10.1018 4.98452 10.1153C4.94171 10.1288 4.9035 10.154 4.87417 10.188C4.84484 10.222 4.82556 10.2635 4.81847 10.3078C4.81138 10.3522 4.81676 10.3976 4.83402 10.439L5.66676 12.4365L5.67064 12.4413C5.68452 12.4739 5.70552 12.503 5.73209 12.5265L6.80144 13.4492V15.7195C6.80144 15.7837 6.82693 15.8452 6.8723 15.8906C6.91767 15.936 6.97921 15.9615 7.04338 15.9615H7.90999L7.86838 16.1313C7.86079 16.1621 7.85935 16.1941 7.86415 16.2255C7.86895 16.2569 7.87988 16.287 7.89633 16.3142C7.91278 16.3413 7.93442 16.3649 7.96001 16.3837C7.9856 16.4025 8.01464 16.416 8.04547 16.4236L10.6622 17.0666C10.6618 17.0908 10.6589 17.114 10.6603 17.1387C10.6743 17.3318 10.7629 17.5084 10.91 17.6347C11.0233 17.7327 11.1644 17.7929 11.3135 17.8071C11.4627 17.8212 11.6125 17.7885 11.7422 17.7136L12.3253 18.2168C12.3974 18.2791 12.4812 18.3265 12.5717 18.3563C12.6622 18.3861 12.7577 18.3977 12.8527 18.3905C13.0463 18.3765 13.2224 18.2874 13.3487 18.1408L13.6443 17.7982L16.0332 18.3852C16.0641 18.3928 16.0961 18.3943 16.1276 18.3896C16.159 18.3848 16.1892 18.3739 16.2164 18.3574C16.2436 18.341 16.2673 18.3193 16.2861 18.2937C16.3049 18.2681 16.3184 18.239 16.326 18.2081L18.4042 9.7505C18.4066 9.73985 18.4047 9.72921 18.4056 9.71856L18.4066 9.68856ZM17.659 9.31888L16.5814 9.05372L16.8461 7.97663L17.4224 8.92792L17.659 9.31888ZM14.4553 6.53856L13.5752 6.32227V5.6584L14.4553 6.53856ZM7.28435 5.3163H13.0908V6.20372L10.6995 5.6163C10.6373 5.60125 10.5716 5.61142 10.5169 5.6446C10.4621 5.67778 10.4227 5.73127 10.4072 5.7934L10.4058 5.80017H9.46225C9.39808 5.80017 9.33655 5.82566 9.29117 5.87104C9.2458 5.91641 9.22031 5.97794 9.22031 6.04211V7.00985C9.22031 7.07402 9.2458 7.13555 9.29117 7.18093C9.33655 7.2263 9.39808 7.25179 9.46225 7.25179H10.0492L9.8116 8.21953H8.97838C8.91421 8.21953 8.85267 8.24502 8.8073 8.29039C8.76193 8.33576 8.73644 8.3973 8.73644 8.46146C8.73644 8.52563 8.76193 8.58717 8.8073 8.63254C8.85267 8.67791 8.91421 8.7034 8.97838 8.7034H9.69257L9.45499 9.67114H8.01064C7.94647 9.67114 7.88493 9.69663 7.83956 9.742C7.79419 9.78737 7.7687 9.84891 7.7687 9.91308C7.7687 9.97724 7.79419 10.0388 7.83956 10.0842C7.88493 10.1295 7.94647 10.155 8.01064 10.155H9.33596L9.09838 11.1228H8.01112C7.95939 11.124 7.90946 11.142 7.86886 11.174L7.31289 10.694C7.30423 10.6866 7.29501 10.6798 7.28531 10.6737V5.3163H7.28435ZM6.23047 12.3179L6.54644 11.9516L11.3082 16.0616L10.9922 16.4279L8.65273 14.4087L7.20064 13.155L7.19967 13.1545L6.23047 12.3179ZM7.17886 11.219L8.85451 12.6658L11.9402 15.329L11.6242 15.6953L6.86241 11.5853L7.17886 11.219ZM10.1677 6.76792H9.7037V6.28405H10.2868L10.1677 6.76792ZM8.87193 12.0407L8.36918 11.6066H8.97886L8.87193 12.0407ZM6.71483 11.0158L6.14338 11.6778L5.96193 11.8882L5.46596 10.6989L6.71483 11.0158ZM7.28435 13.8668L8.22451 14.6782L8.02805 15.4776H7.28435V13.8668ZM8.63531 15.0329L10.3158 16.4836L8.39483 16.0118L8.63531 15.0329ZM11.4016 17.3265C11.3698 17.3291 11.3378 17.3252 11.3076 17.3151C11.2773 17.3051 11.2494 17.289 11.2255 17.2679C11.2014 17.2473 11.1816 17.2221 11.1673 17.1937C11.1531 17.1654 11.1445 17.1346 11.1422 17.1029C11.1404 17.0632 11.1484 17.0236 11.1655 16.9878C11.1679 16.9829 11.1737 16.9805 11.1756 16.9757C11.1834 16.9587 11.1926 16.9384 11.1984 16.9302C11.1993 16.9292 11.1993 16.9278 11.2003 16.9273L11.8318 16.1957L11.8327 16.1952L11.8332 16.1942L12.4647 15.4626C12.4867 15.437 12.5141 15.4167 12.545 15.4031C12.5556 15.3982 12.5668 15.3973 12.5779 15.3939C12.5978 15.3867 12.6187 15.3823 12.6398 15.3808C12.6582 15.381 12.6766 15.3831 12.6945 15.3871C12.7052 15.389 12.7158 15.389 12.726 15.3924C12.7632 15.4053 12.7968 15.4271 12.8237 15.456C12.8506 15.4848 12.8701 15.5198 12.8804 15.5579C12.8907 15.5959 12.8915 15.6359 12.8828 15.6744C12.8741 15.7129 12.8561 15.7486 12.8305 15.7786L11.5656 17.2432C11.5453 17.2674 11.5202 17.2872 11.4921 17.3015C11.4639 17.3158 11.4331 17.3243 11.4016 17.3265ZM12.8164 17.9086C12.7848 17.9114 12.7528 17.9077 12.7226 17.8977C12.6924 17.8877 12.6646 17.8716 12.6408 17.8505L12.0916 17.3763L13.04 16.2779L13.5892 16.7521C13.6134 16.7727 13.6332 16.7979 13.6476 16.8262C13.662 16.8546 13.6706 16.8855 13.673 16.9172C13.6753 16.9489 13.6713 16.9807 13.6613 17.0108C13.6512 17.041 13.6353 17.0688 13.6143 17.0928L13.3743 17.3705L12.9819 17.8253C12.9612 17.8494 12.9359 17.8692 12.9075 17.8835C12.8791 17.8978 12.8482 17.9063 12.8164 17.9086ZM15.9132 17.8587L13.9981 17.3879C14.0019 17.3831 14.0029 17.3773 14.0063 17.3724C14.0576 17.3052 14.0977 17.2321 14.1224 17.1532C14.1239 17.1489 14.1239 17.1445 14.1253 17.1397C14.1657 17.0061 14.1665 16.8636 14.1274 16.7296C14.0883 16.5955 14.0111 16.4758 13.9052 16.3849L13.3245 15.8836C13.3264 15.8787 13.326 15.8734 13.3279 15.8686C13.3501 15.8081 13.3641 15.745 13.3695 15.6808C13.3705 15.6682 13.37 15.6561 13.3705 15.6436C13.3725 15.5849 13.3675 15.5263 13.3555 15.4689C13.3535 15.4602 13.3531 15.451 13.3511 15.4423C13.3349 15.3796 13.3103 15.3194 13.2781 15.2632L13.2553 15.2265C13.2188 15.1681 13.1744 15.1152 13.1232 15.0692C13.0705 15.025 13.0116 14.9887 12.9485 14.9613C12.9355 14.9555 12.9229 14.9492 12.9093 14.9444C12.8488 14.9204 12.7854 14.9048 12.7206 14.8979C12.7124 14.8969 12.7042 14.8979 12.696 14.8974C12.6364 14.8939 12.5766 14.8976 12.5179 14.9086L12.4835 14.9144C12.4206 14.9289 12.3606 14.9521 12.3031 14.9831C12.2987 14.9855 12.2934 14.986 12.289 14.9884L9.2837 12.3944L10.8195 6.14275L16.4585 7.52856L16.0545 9.17276C16.0469 9.20357 16.0455 9.23559 16.0503 9.26696C16.0551 9.29834 16.066 9.32846 16.0825 9.3556C16.0989 9.38275 16.1205 9.40638 16.1461 9.42516C16.1717 9.44393 16.2008 9.45747 16.2316 9.46501L17.8763 9.86953L15.9132 17.8587Z" fill="white"/>
<path d="M12.4722 8.54273L15.2917 9.23563C15.3225 9.24322 15.3545 9.24467 15.3859 9.23989C15.4173 9.23512 15.4474 9.2242 15.4746 9.20778C15.5017 9.19136 15.5254 9.16975 15.5442 9.14418C15.563 9.11862 15.5766 9.08959 15.5842 9.05878C15.5918 9.02796 15.5933 8.99595 15.5885 8.96457C15.5837 8.93319 15.5728 8.90306 15.5564 8.8759C15.5399 8.84874 15.5183 8.82508 15.4928 8.80627C15.4672 8.78746 15.4382 8.77387 15.4074 8.76628L12.8225 8.13047L12.9382 7.66015L15.5225 8.29547C15.5533 8.30303 15.5853 8.30445 15.6167 8.29964C15.6481 8.29483 15.6782 8.28389 15.7053 8.26745C15.7325 8.251 15.7561 8.22938 15.7749 8.2038C15.7937 8.17822 15.8072 8.14919 15.8148 8.11837C15.8223 8.08755 15.8238 8.05555 15.8189 8.02418C15.8141 7.99282 15.8032 7.9627 15.7868 7.93557C15.7703 7.90843 15.7487 7.88479 15.7231 7.86601C15.6975 7.84723 15.6685 7.83368 15.6377 7.82611L12.8182 7.13321C12.7559 7.11802 12.6902 7.12814 12.6354 7.16134C12.5806 7.19454 12.5412 7.24811 12.5259 7.31031L12.2951 8.24999C12.2798 8.31229 12.2898 8.37813 12.323 8.43303C12.3562 8.48793 12.4099 8.52739 12.4722 8.54273Z" fill="white"/>
</g>
<defs>
<clipPath id="clip0_27_44">
<rect width="24" height="24" fill="white"/>
</clipPath>
</defs>
</svg>
