<svg width="23" height="24" viewBox="0 0 23 24" fill="none" xmlns="http://www.w3.org/2000/svg">
<g clip-path="url(#clip0_8_1869)">
<path d="M9.14284 0.857147C5.79998 0.857147 3.14284 3.51429 3.14284 6.85715C3.13698 7.84018 3.37414 8.80942 3.83322 9.67869C4.2923 10.548 4.95908 11.2903 5.77427 11.8397C2.72284 13.1537 0.571411 16.1931 0.571411 19.7143H2.2857C2.2857 15.9429 5.37141 12.8571 9.14284 12.8571C12.4857 12.8571 15.1428 10.2 15.1428 6.85715C15.1428 3.51429 12.4857 0.857147 9.14284 0.857147ZM9.14284 2.57143C11.5428 2.57143 13.4286 4.45715 13.4286 6.85715C13.4286 9.25715 11.5428 11.1429 9.14284 11.1429C6.74284 11.1429 4.85713 9.25715 4.85713 6.85715C4.85713 4.45715 6.74284 2.57143 9.14284 2.57143ZM16.0857 12V13.8C15.5714 13.8857 15.0571 14.1429 14.6286 14.4L13.3428 13.1143L12.1428 14.3143L13.4286 15.6C13.0857 16.0286 12.9143 16.5429 12.8286 17.1429H10.8571V18.8571H12.6571C12.7428 19.3714 13 19.8857 13.2571 20.4L11.9714 21.6857L13.1714 22.8857L14.4571 21.6C14.8857 21.8571 15.4 22.1143 15.9143 22.2V24H17.6286V22.2C18.1428 22.1143 18.6571 21.8571 19.0857 21.6L20.3714 22.8857L21.5714 21.6857L20.2857 20.4C20.6286 19.9714 20.8 19.4571 20.8857 18.8571H22.8571V17.1429H21.0571C20.9714 16.6286 20.7143 16.1143 20.4571 15.6L21.7428 14.3143L20.5428 13.1143L19.2571 14.4C18.8286 14.1429 18.3143 13.8857 17.8 13.8V12H16.0857ZM16.8571 15.4286C18.3143 15.4286 19.4286 16.5429 19.4286 18C19.4286 19.4571 18.3143 20.5714 16.8571 20.5714C15.4 20.5714 14.2857 19.4571 14.2857 18C14.2857 16.5429 15.4 15.4286 16.8571 15.4286ZM16.8571 17.1429C16.7481 17.1442 16.6408 17.1694 16.5426 17.2166C16.4405 17.2651 16.3477 17.3309 16.2683 17.4111C16.188 17.4906 16.1222 17.5834 16.0737 17.6854C16.0265 17.7837 16.0013 17.891 16 18C16 18.3214 16.2408 18.6429 16.5426 18.7834C16.6408 18.8306 16.7481 18.8558 16.8571 18.8571C17.2857 18.8571 17.7143 18.4286 17.7143 18C17.7143 17.5714 17.2857 17.1429 16.8571 17.1429Z" fill="black"/>
</g>
<defs>
<clipPath id="clip0_8_1869">
<rect width="22.8571" height="24" fill="white"/>
</clipPath>
</defs>
</svg>
