<svg width="106" height="107" viewBox="0 0 106 107" fill="none" xmlns="http://www.w3.org/2000/svg">
<g filter="url(#filter0_d_29_627)">
<ellipse cx="52.5714" cy="51.5" rx="28.5714" ry="28.5714" fill="url(#paint0_linear_29_627)" fill-opacity="0.15" shape-rendering="crispEdges"/>
<path d="M52.5714 82.0714C69.4556 82.0714 83.1429 68.3841 83.1429 51.5C83.1429 34.6159 69.4556 20.9286 52.5714 20.9286C35.6873 20.9286 22 34.6159 22 51.5C22 68.3841 35.6873 82.0714 52.5714 82.0714Z" stroke="#FBFBFB" stroke-width="4" shape-rendering="crispEdges"/>
</g>
<path d="M51.2002 51.8375C50.2731 51.8375 49.3668 51.5626 48.596 51.0475C47.8251 50.5324 47.2243 49.8004 46.8695 48.9438C46.5147 48.0873 46.4219 47.1448 46.6028 46.2355C46.7836 45.3262 47.2301 44.491 47.8856 43.8354C48.5412 43.1799 49.3764 42.7334 50.2857 42.5526C51.195 42.3717 52.1375 42.4645 52.994 42.8193C53.8506 43.1741 54.5826 43.7749 55.0977 44.5458C55.6128 45.3166 55.8877 46.2229 55.8877 47.15C55.8844 48.3922 55.3895 49.5826 54.5111 50.4609C53.6328 51.3393 52.4424 51.8342 51.2002 51.8375ZM51.2002 44.3375C50.6439 44.3375 50.1002 44.5024 49.6377 44.8115C49.1751 45.1205 48.8147 45.5598 48.6018 46.0737C48.3889 46.5876 48.3332 47.1531 48.4417 47.6987C48.5503 48.2443 48.8181 48.7454 49.2115 49.1387C49.6048 49.5321 50.1059 49.7999 50.6515 49.9085C51.1971 50.017 51.7626 49.9613 52.2765 49.7484C52.7904 49.5355 53.2297 49.1751 53.5387 48.7125C53.8477 48.25 54.0127 47.7063 54.0127 47.15C54.0127 46.4041 53.7164 45.6887 53.1889 45.1613C52.6615 44.6338 51.9461 44.3375 51.2002 44.3375ZM42.4502 60.5875C42.2016 60.5875 41.9631 60.4887 41.7873 60.3129C41.6115 60.1371 41.5127 59.8986 41.5127 59.65C41.5127 53.7125 48.3002 53.7125 51.2002 53.7125C52.1002 53.7125 52.9002 53.7125 53.6252 53.8C53.8718 53.8192 54.1008 53.9351 54.2624 54.1224C54.4239 54.3097 54.5049 54.5532 54.4877 54.8C54.4654 55.0477 54.3469 55.2767 54.1576 55.438C53.9683 55.5993 53.7233 55.6799 53.4752 55.6625C52.8002 55.6625 52.0502 55.5875 51.2002 55.5875C44.7252 55.5875 43.3877 57.2125 43.3877 59.65C43.3894 59.7736 43.3663 59.8962 43.3198 60.0107C43.2732 60.1252 43.2042 60.2293 43.1169 60.3167C43.0295 60.404 42.9254 60.473 42.8109 60.5196C42.6964 60.5661 42.5738 60.5892 42.4502 60.5875ZM53.8377 61.5375C53.5891 61.5373 53.3508 61.4384 53.1752 61.2625C53.0765 61.1684 53.0004 61.0532 52.9528 60.9254C52.9052 60.7976 52.8872 60.6607 52.9002 60.525L53.1002 58.125C53.1156 57.9043 53.2086 57.6962 53.3627 57.5375L60.2627 50.6375C60.7387 50.1965 61.3638 49.9514 62.0127 49.9514C62.6616 49.9514 63.2867 50.1965 63.7627 50.6375C63.9974 50.8741 64.1825 51.1552 64.307 51.4643C64.4315 51.7734 64.4929 52.1043 64.4877 52.4375C64.4926 52.7446 64.4365 53.0497 64.3228 53.335C64.2091 53.6204 64.04 53.8804 63.8252 54.1L56.9252 61C56.7722 61.1569 56.5684 61.2543 56.3502 61.275L53.9252 61.5L53.8377 61.5375ZM54.9377 58.6125L54.8627 59.5625L55.8377 59.475L62.5002 52.8125C62.5778 52.7176 62.6178 52.5975 62.6127 52.475C62.6112 52.3012 62.5493 52.1333 62.4377 52C62.3148 51.9087 62.1658 51.8594 62.0127 51.8594C61.8596 51.8594 61.7106 51.9087 61.5877 52L54.9377 58.6125Z" fill="black"/>
<defs>
<filter id="filter0_d_29_627" x="0" y="0.928558" width="105.143" height="105.143" filterUnits="userSpaceOnUse" color-interpolation-filters="sRGB">
<feFlood flood-opacity="0" result="BackgroundImageFix"/>
<feColorMatrix in="SourceAlpha" type="matrix" values="0 0 0 0 0 0 0 0 0 0 0 0 0 0 0 0 0 0 127 0" result="hardAlpha"/>
<feMorphology radius="1" operator="erode" in="SourceAlpha" result="effect1_dropShadow_29_627"/>
<feOffset dy="2"/>
<feGaussianBlur stdDeviation="10.5"/>
<feComposite in2="hardAlpha" operator="out"/>
<feColorMatrix type="matrix" values="0 0 0 0 0 0 0 0 0 0 0 0 0 0 0 0 0 0 0.1 0"/>
<feBlend mode="normal" in2="BackgroundImageFix" result="effect1_dropShadow_29_627"/>
<feBlend mode="normal" in="SourceGraphic" in2="effect1_dropShadow_29_627" result="shape"/>
</filter>
<linearGradient id="paint0_linear_29_627" x1="24" y1="51.5" x2="87.4921" y2="51.5" gradientUnits="userSpaceOnUse">
<stop stop-color="#FF8200"/>
<stop offset="1" stop-color="#FF002B"/>
</linearGradient>
</defs>
</svg>
